Atma-Regular.ufo
<glyph name="numbersign" format="1">
  <advance width="603"/>
  <unicode hex="0023"/>
  <outline>
    <contour>
      <point x="201" y="229" type="qcurve"/>
      <point x="239" y="225"/>
      <point x="323" y="220"/>
      <point x="368" y="219" type="qcurve"/>
      <point x="379" y="255"/>
      <point x="399" y="327"/>
      <point x="407" y="363" type="qcurve"/>
      <point x="360" y="363"/>
      <point x="279" y="367"/>
      <point x="240" y="371" type="qcurve"/>
      <point x="232" y="337"/>
      <point x="213" y="266"/>
    </contour>
    <contour>
      <point x="408" y="164" type="qcurve"/>
      <point x="390" y="113"/>
      <point x="351" y="12"/>
      <point x="328" y="-39" type="qcurve"/>
      <point x="307" y="-35"/>
      <point x="285" y="-26"/>
      <point x="275" y="-20" type="qcurve"/>
      <point x="296" y="24"/>
      <point x="333" y="117"/>
      <point x="350" y="165" type="qcurve"/>
      <point x="310" y="166"/>
      <point x="227" y="172"/>
      <point x="184" y="177" type="qcurve"/>
      <point x="167" y="130"/>
      <point x="126" y="25"/>
      <point x="100" y="-35" type="qcurve"/>
      <point x="81" y="-31"/>
      <point x="58" y="-22"/>
      <point x="47" y="-15" type="qcurve"/>
      <point x="69" y="33"/>
      <point x="110" y="133"/>
      <point x="128" y="185" type="qcurve"/>
      <point x="96" y="190"/>
      <point x="38" y="201"/>
      <point x="10" y="207" type="qcurve"/>
      <point x="9" y="221"/>
      <point x="12" y="246"/>
      <point x="17" y="260" type="qcurve"/>
      <point x="47" y="253"/>
      <point x="111" y="241"/>
      <point x="144" y="236" type="qcurve"/>
      <point x="155" y="271"/>
      <point x="175" y="342"/>
      <point x="183" y="377" type="qcurve"/>
      <point x="142" y="383"/>
      <point x="62" y="396"/>
      <point x="22" y="405" type="qcurve"/>
      <point x="21" y="420"/>
      <point x="25" y="445"/>
      <point x="29" y="458" type="qcurve"/>
      <point x="65" y="449"/>
      <point x="146" y="435"/>
      <point x="194" y="429" type="qcurve"/>
      <point x="204" y="481"/>
      <point x="218" y="577"/>
      <point x="222" y="621" type="qcurve"/>
      <point x="237" y="618"/>
      <point x="265" y="607"/>
      <point x="278" y="599" type="qcurve"/>
      <point x="274" y="557"/>
      <point x="261" y="471"/>
      <point x="252" y="423" type="qcurve"/>
      <point x="293" y="420"/>
      <point x="377" y="417"/>
      <point x="418" y="417" type="qcurve"/>
      <point x="428" y="464"/>
      <point x="442" y="563"/>
      <point x="447" y="616" type="qcurve"/>
      <point x="464" y="613"/>
      <point x="490" y="603"/>
      <point x="503" y="595" type="qcurve"/>
      <point x="499" y="553"/>
      <point x="486" y="467"/>
      <point x="477" y="419" type="qcurve"/>
      <point x="504" y="420"/>
      <point x="562" y="424"/>
      <point x="594" y="427" type="qcurve"/>
      <point x="595" y="414"/>
      <point x="591" y="386"/>
      <point x="586" y="372" type="qcurve"/>
      <point x="551" y="369"/>
      <point x="492" y="365"/>
      <point x="465" y="364" type="qcurve"/>
      <point x="458" y="330"/>
      <point x="439" y="259"/>
      <point x="426" y="219" type="qcurve"/>
      <point x="461" y="220"/>
      <point x="537" y="224"/>
      <point x="582" y="229" type="qcurve"/>
      <point x="582" y="212"/>
      <point x="578" y="185"/>
      <point x="574" y="173" type="qcurve"/>
      <point x="532" y="169"/>
      <point x="449" y="165"/>
    </contour>
  </outline>
</glyph>
<glyph name="dollar" format="1">
  <advance width="355"/>
  <unicode hex="0024"/>
  <outline>
    <contour>
      <point x="205" y="43" type="qcurve"/>
      <point x="207" y="0"/>
      <point x="207" y="-43"/>
      <point x="205" y="-60" type="qcurve"/>
      <point x="192" y="-65"/>
      <point x="164" y="-66"/>
      <point x="146" y="-63" type="qcurve"/>
      <point x="151" y="-27"/>
      <point x="154" y="20"/>
      <point x="153" y="44" type="qcurve"/>
      <point x="93" y="54"/>
      <point x="25" y="155"/>
      <point x="25" y="233" type="qcurve"/>
      <point x="43" y="239"/>
      <point x="79" y="245"/>
      <point x="95" y="244" type="qcurve"/>
      <point x="91" y="174"/>
      <point x="139" y="95"/>
      <point x="186" y="95" type="qcurve" smooth="yes"/>
      <point x="223" y="95"/>
      <point x="263" y="139"/>
      <point x="263" y="179" type="qcurve" smooth="yes"/>
      <point x="263" y="213"/>
      <point x="225" y="276"/>
      <point x="152" y="339" type="qcurve" smooth="yes"/>
      <point x="79" y="400"/>
      <point x="31" y="485"/>
      <point x="31" y="535" type="qcurve" smooth="yes"/>
      <point x="31" y="596"/>
      <point x="96" y="674"/>
      <point x="154" y="681" type="qcurve"/>
      <point x="150" y="708"/>
      <point x="147" y="751"/>
      <point x="148" y="768" type="qcurve"/>
      <point x="160" y="773"/>
      <point x="189" y="776"/>
      <point x="208" y="774" type="qcurve"/>
      <point x="206" y="748"/>
      <point x="206" y="702"/>
      <point x="207" y="681" type="qcurve"/>
      <point x="259" y="675"/>
      <point x="319" y="602"/>
      <point x="330" y="531" type="qcurve"/>
      <point x="317" y="524"/>
      <point x="285" y="516"/>
      <point x="265" y="515" type="qcurve"/>
      <point x="257" y="576"/>
      <point x="217" y="630"/>
      <point x="181" y="630" type="qcurve"/>
      <point x="147" y="630"/>
      <point x="108" y="586"/>
      <point x="108" y="547" type="qcurve" smooth="yes"/>
      <point x="108" y="507"/>
      <point x="153" y="434"/>
      <point x="216" y="383" type="qcurve" smooth="yes"/>
      <point x="290" y="322"/>
      <point x="340" y="239"/>
      <point x="340" y="190" type="qcurve" smooth="yes"/>
      <point x="340" y="130"/>
      <point x="266" y="50"/>
    </contour>
  </outline>
</glyph>
<glyph name="percent" format="1">
  <advance width="793"/>
  <unicode hex="0025"/>
  <outline>
    <contour>
      <point x="510" y="781" type="qcurve"/>
      <point x="527" y="776"/>
      <point x="557" y="760"/>
      <point x="570" y="749" type="qcurve"/>
      <point x="492" y="555"/>
      <point x="326" y="204"/>
      <point x="200" y="-30" type="qcurve"/>
      <point x="193" y="-28"/>
      <point x="180" y="-23"/>
      <point x="173" y="-18" type="qcurve" smooth="yes"/>
      <point x="168" y="-15"/>
      <point x="152" y="-4"/>
      <point x="149" y="-2" type="qcurve"/>
      <point x="259" y="209"/>
      <point x="422" y="562"/>
    </contour>
    <contour>
      <point x="37" y="525" type="qcurve"/>
      <point x="37" y="632"/>
      <point x="131" y="755"/>
      <point x="212" y="755" type="qcurve"/>
      <point x="273" y="755"/>
      <point x="343" y="661"/>
      <point x="343" y="579" type="qcurve"/>
      <point x="343" y="458"/>
      <point x="256" y="320"/>
      <point x="178" y="320" type="qcurve" smooth="yes"/>
      <point x="114" y="320"/>
      <point x="37" y="434"/>
    </contour>
    <contour>
      <point x="273" y="550" type="qcurve" smooth="yes"/>
      <point x="273" y="632"/>
      <point x="236" y="709"/>
      <point x="197" y="709" type="qcurve" smooth="yes"/>
      <point x="156" y="709"/>
      <point x="106" y="613"/>
      <point x="106" y="534" type="qcurve" smooth="yes"/>
      <point x="106" y="460"/>
      <point x="152" y="366"/>
      <point x="190" y="366" type="qcurve" smooth="yes"/>
      <point x="228" y="366"/>
      <point x="273" y="467"/>
    </contour>
    <contour>
      <point x="449" y="193" type="qcurve"/>
      <point x="449" y="300"/>
      <point x="543" y="423"/>
      <point x="624" y="423" type="qcurve"/>
      <point x="686" y="423"/>
      <point x="756" y="329"/>
      <point x="756" y="247" type="qcurve"/>
      <point x="756" y="126"/>
      <point x="669" y="-11"/>
      <point x="591" y="-11" type="qcurve" smooth="yes"/>
      <point x="526" y="-11"/>
      <point x="449" y="102"/>
    </contour>
    <contour>
      <point x="686" y="218" type="qcurve" smooth="yes"/>
      <point x="686" y="300"/>
      <point x="649" y="377"/>
      <point x="610" y="377" type="qcurve" smooth="yes"/>
      <point x="569" y="377"/>
      <point x="518" y="281"/>
      <point x="518" y="202" type="qcurve" smooth="yes"/>
      <point x="518" y="128"/>
      <point x="565" y="34"/>
      <point x="603" y="34" type="qcurve" smooth="yes"/>
      <point x="641" y="34"/>
      <point x="686" y="135"/>
    </contour>
  </outline>
</glyph>
<glyph name="quotesingle" format="1">
  <advance width="139"/>
  <unicode hex="0027"/>
  <outline>
    <contour>
      <point x="68" y="739" type="qcurve" smooth="yes"/>
      <point x="75" y="739"/>
      <point x="87" y="738"/>
      <point x="97" y="736" type="qcurve"/>
      <point x="97" y="682"/>
      <point x="90" y="575"/>
      <point x="81" y="500" type="qcurve"/>
      <point x="74" y="498"/>
      <point x="50" y="496"/>
      <point x="34" y="497" type="qcurve"/>
      <point x="34" y="579"/>
      <point x="31" y="682"/>
      <point x="28" y="735" type="qcurve"/>
      <point x="34" y="737"/>
      <point x="56" y="739"/>
    </contour>
  </outline>
</glyph>
<glyph name="parenleft" format="1">
  <advance width="338"/>
  <unicode hex="0028"/>
  <outline>
    <contour>
      <point x="333" y="756" type="qcurve"/>
      <point x="215" y="682"/>
      <point x="93" y="456"/>
      <point x="93" y="313" type="qcurve" smooth="yes"/>
      <point x="93" y="175"/>
      <point x="210" y="-42"/>
      <point x="327" y="-120" type="qcurve"/>
      <point x="312" y="-137"/>
      <point x="288" y="-156"/>
      <point x="274" y="-163" type="qcurve"/>
      <point x="151" y="-74"/>
      <point x="24" y="163"/>
      <point x="24" y="307" type="qcurve" smooth="yes"/>
      <point x="24" y="463"/>
      <point x="154" y="712"/>
      <point x="280" y="800" type="qcurve"/>
      <point x="293" y="794"/>
      <point x="318" y="773"/>
    </contour>
  </outline>
</glyph>
<glyph name="asterisk" format="1">
  <advance width="440"/>
  <unicode hex="002A"/>
  <outline>
    <contour>
      <point x="241" y="470" type="qcurve"/>
      <point x="242" y="430"/>
      <point x="247" y="358"/>
      <point x="251" y="315" type="qcurve"/>
      <point x="243" y="313"/>
      <point x="219" y="309"/>
      <point x="210" y="309" type="qcurve" smooth="yes"/>
      <point x="206" y="309"/>
      <point x="198" y="310"/>
      <point x="187" y="312" type="qcurve"/>
      <point x="186" y="339"/>
      <point x="189" y="406"/>
      <point x="194" y="469" type="qcurve"/>
      <point x="158" y="447"/>
      <point x="98" y="407"/>
      <point x="65" y="384" type="qcurve"/>
      <point x="48" y="406"/>
      <point x="42" y="415"/>
      <point x="40" y="419" type="qcurve" smooth="yes"/>
      <point x="38" y="423"/>
      <point x="33" y="435"/>
      <point x="31" y="439" type="qcurve"/>
      <point x="60" y="457"/>
      <point x="123" y="490"/>
      <point x="171" y="513" type="qcurve"/>
      <point x="137" y="532"/>
      <point x="74" y="563"/>
      <point x="34" y="581" type="qcurve"/>
      <point x="37" y="592"/>
      <point x="46" y="613"/>
      <point x="50" y="620" type="qcurve" smooth="yes"/>
      <point x="53" y="625"/>
      <point x="61" y="636"/>
      <point x="63" y="638" type="qcurve"/>
      <point x="92" y="623"/>
      <point x="154" y="584"/>
      <point x="197" y="554" type="qcurve"/>
      <point x="195" y="609"/>
      <point x="191" y="675"/>
      <point x="188" y="707" type="qcurve"/>
      <point x="196" y="709"/>
      <point x="219" y="712"/>
      <point x="229" y="712" type="qcurve" smooth="yes"/>
      <point x="235" y="712"/>
      <point x="250" y="710"/>
      <point x="252" y="710" type="qcurve"/>
      <point x="253" y="676"/>
      <point x="250" y="605"/>
      <point x="245" y="551" type="qcurve"/>
      <point x="279" y="571"/>
      <point x="339" y="611"/>
      <point x="374" y="637" type="qcurve"/>
      <point x="384" y="626"/>
      <point x="396" y="609"/>
      <point x="399" y="603" type="qcurve" smooth="yes"/>
      <point x="402" y="598"/>
      <point x="406" y="586"/>
      <point x="408" y="582" type="qcurve"/>
      <point x="381" y="566"/>
      <point x="318" y="533"/>
      <point x="267" y="510" type="qcurve"/>
      <point x="304" y="490"/>
      <point x="368" y="458"/>
      <point x="405" y="441" type="qcurve"/>
      <point x="402" y="430"/>
      <point x="393" y="409"/>
      <point x="389" y="402" type="qcurve" smooth="yes"/>
      <point x="386" y="396"/>
      <point x="377" y="384"/>
      <point x="376" y="383" type="qcurve"/>
      <point x="347" y="399"/>
      <point x="286" y="438"/>
    </contour>
  </outline>
</glyph>
<glyph name="zero" format="1">
  <advance width="512"/>
  <unicode hex="0030"/>
  <outline>
    <contour>
      <point x="38" y="310" type="qcurve"/>
      <point x="38" y="480"/>
      <point x="170" y="673"/>
      <point x="285" y="673" type="qcurve"/>
      <point x="373" y="673"/>
      <point x="473" y="520"/>
      <point x="473" y="389" type="qcurve"/>
      <point x="473" y="193"/>
      <point x="355" y="-20"/>
      <point x="245" y="-20" type="qcurve" smooth="yes"/>
      <point x="152" y="-20"/>
      <point x="38" y="164"/>
    </contour>
    <contour>
      <point x="395" y="347" type="qcurve" smooth="yes"/>
      <point x="395" y="485"/>
      <point x="333" y="616"/>
      <point x="268" y="616" type="qcurve" smooth="yes"/>
      <point x="200" y="616"/>
      <point x="116" y="455"/>
      <point x="116" y="321" type="qcurve" smooth="yes"/>
      <point x="116" y="194"/>
      <point x="193" y="36"/>
      <point x="257" y="36" type="qcurve" smooth="yes"/>
      <point x="320" y="36"/>
      <point x="395" y="205"/>
    </contour>
  </outline>
</glyph>
<glyph name="three" format="1">
  <advance width="406"/>
  <unicode hex="0033"/>
  <outline>
    <contour>
      <point x="401" y="157" type="qcurve" smooth="yes"/>
      <point x="401" y="62"/>
      <point x="298" y="-57"/>
      <point x="218" y="-57" type="qcurve" smooth="yes"/>
      <point x="137" y="-57"/>
      <point x="36" y="64"/>
      <point x="31" y="171" type="qcurve"/>
      <point x="46" y="177"/>
      <point x="82" y="183"/>
      <point x="104" y="185" type="qcurve"/>
      <point x="104" y="97"/>
      <point x="166" y="-2"/>
      <point x="219" y="-2" type="qcurve" smooth="yes"/>
      <point x="268" y="-2"/>
      <point x="323" y="71"/>
      <point x="323" y="137" type="qcurve" smooth="yes"/>
      <point x="323" y="233"/>
      <point x="214" y="332"/>
      <point x="114" y="325" type="qcurve"/>
      <point x="111" y="339"/>
      <point x="108" y="361"/>
      <point x="108" y="373" type="qcurve"/>
      <point x="174" y="414"/>
      <point x="270" y="506"/>
      <point x="307" y="562" type="qcurve"/>
      <point x="212" y="554"/>
      <point x="77" y="533"/>
      <point x="15" y="517" type="qcurve"/>
      <point x="11" y="533"/>
      <point x="9" y="568"/>
      <point x="11" y="585" type="qcurve"/>
      <point x="106" y="605"/>
      <point x="291" y="626"/>
      <point x="378" y="627" type="qcurve"/>
      <point x="381" y="613"/>
      <point x="384" y="582"/>
      <point x="383" y="567" type="qcurve"/>
      <point x="350" y="509"/>
      <point x="269" y="420"/>
      <point x="206" y="372" type="qcurve"/>
      <point x="302" y="354"/>
      <point x="401" y="244"/>
    </contour>
  </outline>
</glyph>
<glyph name="four" format="1">
  <advance width="504"/>
  <unicode hex="0034"/>
  <outline>
    <contour>
      <point x="337" y="138" type="qcurve"/>
      <point x="334" y="99"/>
      <point x="331" y="10"/>
      <point x="330" y="-40" type="qcurve"/>
      <point x="317" y="-41"/>
      <point x="301" y="-42"/>
      <point x="294" y="-41" type="qcurve" smooth="yes"/>
      <point x="287" y="-40"/>
      <point x="275" y="-38"/>
      <point x="269" y="-35" type="qcurve"/>
      <point x="268" y="8"/>
      <point x="267" y="49"/>
      <point x="267" y="66" type="qcurve" smooth="yes"/>
      <point x="267" y="99"/>
      <point x="267" y="131"/>
      <point x="268" y="145" type="qcurve"/>
      <point x="204" y="153"/>
      <point x="90" y="170"/>
      <point x="35" y="180" type="qcurve"/>
      <point x="29" y="190"/>
      <point x="20" y="211"/>
      <point x="17" y="225" type="qcurve"/>
      <point x="108" y="358"/>
      <point x="219" y="588"/>
      <point x="270" y="753" type="qcurve"/>
      <point x="287" y="751"/>
      <point x="326" y="739"/>
      <point x="347" y="730" type="qcurve"/>
      <point x="296" y="589"/>
      <point x="176" y="346"/>
      <point x="104" y="238" type="qcurve"/>
      <point x="149" y="228"/>
      <point x="231" y="213"/>
      <point x="271" y="208" type="qcurve"/>
      <point x="275" y="264"/>
      <point x="287" y="361"/>
      <point x="296" y="403" type="qcurve"/>
      <point x="307" y="408"/>
      <point x="327" y="412"/>
      <point x="339" y="412" type="qcurve" smooth="yes"/>
      <point x="349" y="413"/>
      <point x="371" y="411"/>
      <point x="378" y="409" type="qcurve"/>
      <point x="367" y="371"/>
      <point x="349" y="268"/>
      <point x="342" y="200" type="qcurve"/>
      <point x="379" y="197"/>
      <point x="458" y="192"/>
      <point x="505" y="190" type="qcurve"/>
      <point x="504" y="175"/>
      <point x="496" y="142"/>
      <point x="490" y="128" type="qcurve"/>
      <point x="447" y="130"/>
      <point x="371" y="135"/>
    </contour>
  </outline>
</glyph>
<glyph name="six" format="1">
  <advance width="472"/>
  <unicode hex="0036"/>
  <outline>
    <contour>
      <point x="275" y="381" type="qcurve" smooth="yes"/>
      <point x="351" y="381"/>
      <point x="447" y="274"/>
      <point x="447" y="193" type="qcurve" smooth="yes"/>
      <point x="447" y="86"/>
      <point x="336" y="-50"/>
      <point x="243" y="-50" type="qcurve" smooth="yes"/>
      <point x="147" y="-50"/>
      <point x="38" y="134"/>
      <point x="38" y="293" type="qcurve" smooth="yes"/>
      <point x="38" y="479"/>
      <point x="167" y="691"/>
      <point x="281" y="691" type="qcurve" smooth="yes"/>
      <point x="350" y="691"/>
      <point x="431" y="600"/>
      <point x="444" y="508" type="qcurve"/>
      <point x="427" y="499"/>
      <point x="394" y="488"/>
      <point x="373" y="485" type="qcurve"/>
      <point x="365" y="561"/>
      <point x="317" y="633"/>
      <point x="274" y="633" type="qcurve" smooth="yes"/>
      <point x="204" y="633"/>
      <point x="116" y="452"/>
      <point x="116" y="302" type="qcurve" smooth="yes"/>
      <point x="116" y="296"/>
      <point x="116" y="285"/>
      <point x="116" y="279" type="qcurve"/>
      <point x="144" y="329"/>
      <point x="225" y="381"/>
    </contour>
    <contour>
      <point x="124" y="191" type="qcurve"/>
      <point x="137" y="103"/>
      <point x="204" y="6"/>
      <point x="252" y="6" type="qcurve" smooth="yes"/>
      <point x="302" y="6"/>
      <point x="369" y="99"/>
      <point x="369" y="164" type="qcurve" smooth="yes"/>
      <point x="369" y="238"/>
      <point x="307" y="324"/>
      <point x="254" y="324" type="qcurve" smooth="yes"/>
      <point x="213" y="324"/>
      <point x="144" y="253"/>
    </contour>
  </outline>
</glyph>
<glyph name="eight" format="1">
  <advance width="455"/>
  <unicode hex="0038"/>
  <outline>
    <contour>
      <point x="422" y="226" type="qcurve" smooth="yes"/>
      <point x="422" y="125"/>
      <point x="303" y="-6"/>
      <point x="209" y="-6" type="qcurve" smooth="yes"/>
      <point x="133" y="-6"/>
      <point x="35" y="94"/>
      <point x="35" y="170" type="qcurve" smooth="yes"/>
      <point x="35" y="228"/>
      <point x="88" y="329"/>
      <point x="135" y="358" type="qcurve"/>
      <point x="93" y="379"/>
      <point x="43" y="466"/>
      <point x="43" y="518" type="qcurve" smooth="yes"/>
      <point x="43" y="612"/>
      <point x="151" y="723"/>
      <point x="241" y="723" type="qcurve" smooth="yes"/>
      <point x="314" y="723"/>
      <point x="409" y="632"/>
      <point x="409" y="561" type="qcurve" smooth="yes"/>
      <point x="409" y="497"/>
      <point x="364" y="402"/>
      <point x="322" y="375" type="qcurve"/>
      <point x="368" y="354"/>
      <point x="422" y="274"/>
    </contour>
    <contour>
      <point x="226" y="393" type="qcurve" smooth="yes"/>
      <point x="273" y="393"/>
      <point x="331" y="472"/>
      <point x="331" y="534" type="qcurve" smooth="yes"/>
      <point x="331" y="599"/>
      <point x="277" y="670"/>
      <point x="229" y="670" type="qcurve" smooth="yes"/>
      <point x="182" y="670"/>
      <point x="121" y="586"/>
      <point x="121" y="524" type="qcurve" smooth="yes"/>
      <point x="121" y="466"/>
      <point x="178" y="393"/>
    </contour>
    <contour>
      <point x="220" y="46" type="qcurve" smooth="yes"/>
      <point x="274" y="46"/>
      <point x="344" y="142"/>
      <point x="344" y="215" type="qcurve" smooth="yes"/>
      <point x="344" y="271"/>
      <point x="284" y="340"/>
      <point x="234" y="340" type="qcurve" smooth="yes"/>
      <point x="184" y="340"/>
      <point x="112" y="251"/>
      <point x="112" y="183" type="qcurve" smooth="yes"/>
      <point x="112" y="120"/>
      <point x="171" y="46"/>
    </contour>
  </outline>
</glyph>
<glyph name="semicolon" format="1">
  <advance width="168"/>
  <unicode hex="003B"/>
  <outline>
    <contour>
      <point x="135" y="542" type="qcurve"/>
      <point x="135" y="506"/>
      <point x="133" y="473"/>
      <point x="131" y="460" type="qcurve"/>
      <point x="109" y="458"/>
      <point x="68" y="458"/>
      <point x="43" y="461" type="qcurve"/>
      <point x="43" y="469"/>
      <point x="42" y="487"/>
      <point x="41" y="503" type="qcurve" smooth="yes"/>
      <point x="40" y="518"/>
      <point x="39" y="534"/>
      <point x="39" y="541" type="qcurve"/>
      <point x="51" y="544"/>
      <point x="78" y="547"/>
      <point x="94" y="547" type="qcurve" smooth="yes"/>
      <point x="104" y="547"/>
      <point x="125" y="544"/>
    </contour>
    <contour>
      <point x="47" y="81" type="qcurve"/>
      <point x="67" y="82"/>
      <point x="106" y="80"/>
      <point x="123" y="77" type="qcurve"/>
      <point x="124" y="5"/>
      <point x="91" y="-137"/>
      <point x="55" y="-221" type="qcurve"/>
      <point x="41" y="-219"/>
      <point x="18" y="-214"/>
      <point x="5" y="-210" type="qcurve"/>
      <point x="28" y="-116"/>
      <point x="47" y="14"/>
    </contour>
  </outline>
</glyph>
<glyph name="less" format="1">
  <advance width="364"/>
  <unicode hex="003C"/>
  <outline>
    <contour>
      <point x="332" y="215" type="qcurve"/>
      <point x="331" y="203"/>
      <point x="323" y="180"/>
      <point x="316" y="167" type="qcurve"/>
      <point x="231" y="199"/>
      <point x="86" y="277"/>
      <point x="30" y="320" type="qcurve"/>
      <point x="33" y="359" type="line"/>
      <point x="93" y="403"/>
      <point x="234" y="478"/>
      <point x="318" y="512" type="qcurve"/>
      <point x="325" y="494"/>
      <point x="334" y="470"/>
      <point x="335" y="464" type="qcurve"/>
      <point x="262" y="433"/>
      <point x="148" y="372"/>
      <point x="97" y="338" type="qcurve"/>
      <point x="141" y="308"/>
      <point x="254" y="248"/>
    </contour>
  </outline>
</glyph>
<glyph name="equal" format="1">
  <advance width="365"/>
  <unicode hex="003D"/>
  <outline>
    <contour>
      <point x="32" y="358" type="qcurve"/>
      <point x="32" y="373"/>
      <point x="35" y="399"/>
      <point x="38" y="412" type="qcurve"/>
      <point x="112" y="403"/>
      <point x="253" y="402"/>
      <point x="342" y="410" type="qcurve"/>
      <point x="342" y="397"/>
      <point x="339" y="371"/>
      <point x="336" y="358" type="qcurve"/>
      <point x="263" y="349"/>
      <point x="106" y="349"/>
    </contour>
    <contour>
      <point x="22" y="231" type="qcurve"/>
      <point x="22" y="244"/>
      <point x="24" y="268"/>
      <point x="27" y="285" type="qcurve"/>
      <point x="101" y="276"/>
      <point x="243" y="275"/>
      <point x="332" y="283" type="qcurve"/>
      <point x="332" y="270"/>
      <point x="329" y="244"/>
      <point x="326" y="231" type="qcurve"/>
      <point x="253" y="222"/>
      <point x="96" y="222"/>
    </contour>
  </outline>
</glyph>
<glyph name="at" format="1">
  <advance width="881"/>
  <unicode hex="0040"/>
  <outline>
    <contour>
      <point x="640" y="-36" type="qcurve"/>
      <point x="591" y="-66"/>
      <point x="476" y="-97"/>
      <point x="413" y="-97" type="qcurve" smooth="yes"/>
      <point x="246" y="-97"/>
      <point x="42" y="115"/>
      <point x="42" y="289" type="qcurve" smooth="yes"/>
      <point x="42" y="486"/>
      <point x="265" y="720"/>
      <point x="455" y="720" type="qcurve" smooth="yes"/>
      <point x="624" y="720"/>
      <point x="817" y="520"/>
      <point x="817" y="356" type="qcurve" smooth="yes"/>
      <point x="817" y="237"/>
      <point x="707" y="85"/>
      <point x="624" y="85" type="qcurve" smooth="yes"/>
      <point x="576" y="85"/>
      <point x="513" y="136"/>
      <point x="500" y="186" type="qcurve"/>
      <point x="482" y="140"/>
      <point x="427" y="96"/>
      <point x="388" y="96" type="qcurve" smooth="yes"/>
      <point x="328" y="96"/>
      <point x="254" y="205"/>
      <point x="254" y="293" type="qcurve" smooth="yes"/>
      <point x="254" y="401"/>
      <point x="353" y="532"/>
      <point x="433" y="532" type="qcurve" smooth="yes"/>
      <point x="445" y="532"/>
      <point x="472" y="527"/>
      <point x="486" y="523" type="qcurve"/>
      <point x="486" y="530"/>
      <point x="486" y="543"/>
      <point x="486" y="549" type="qcurve"/>
      <point x="505" y="555"/>
      <point x="544" y="557"/>
      <point x="563" y="553" type="qcurve"/>
      <point x="557" y="471"/>
      <point x="552" y="358"/>
      <point x="552" y="310" type="qcurve" smooth="yes"/>
      <point x="552" y="218"/>
      <point x="587" y="134"/>
      <point x="627" y="134" type="qcurve" smooth="yes"/>
      <point x="682" y="134"/>
      <point x="753" y="259"/>
      <point x="753" y="358" type="qcurve" smooth="yes"/>
      <point x="753" y="498"/>
      <point x="587" y="667"/>
      <point x="443" y="667" type="qcurve" smooth="yes"/>
      <point x="293" y="667"/>
      <point x="108" y="468"/>
      <point x="108" y="305" type="qcurve" smooth="yes"/>
      <point x="108" y="143"/>
      <point x="275" y="-44"/>
      <point x="421" y="-44" type="qcurve" smooth="yes"/>
      <point x="479" y="-44"/>
      <point x="569" y="-16"/>
      <point x="605" y="13" type="qcurve"/>
      <point x="613" y="6"/>
      <point x="626" y="-11"/>
    </contour>
    <contour>
      <point x="323" y="303" type="qcurve" smooth="yes"/>
      <point x="323" y="231"/>
      <point x="363" y="149"/>
      <point x="398" y="149" type="qcurve" smooth="yes"/>
      <point x="431" y="149"/>
      <point x="478" y="206"/>
      <point x="491" y="263" type="qcurve"/>
      <point x="491" y="265"/>
      <point x="488" y="423"/>
      <point x="487" y="475" type="qcurve"/>
      <point x="476" y="479"/>
      <point x="454" y="482"/>
      <point x="441" y="482" type="qcurve" smooth="yes"/>
      <point x="389" y="482"/>
      <point x="323" y="384"/>
    </contour>
  </outline>
</glyph>
<glyph name="A" format="1">
  <advance width="615"/>
  <unicode hex="0041"/>
  <outline>
    <contour>
      <point x="595" y="-80" type="qcurve"/>
      <point x="579" y="-89"/>
      <point x="545" y="-101"/>
      <point x="518" y="-105" type="qcurve"/>
      <point x="503" y="-2"/>
      <point x="473" y="154"/>
      <point x="457" y="219" type="qcurve"/>
      <point x="386" y="220"/>
      <point x="250" y="211"/>
      <point x="191" y="202" type="qcurve"/>
      <point x="170" y="150"/>
      <point x="119" y="40"/>
      <point x="88" y="-21" type="qcurve"/>
      <point x="69" y="-17"/>
      <point x="35" y="0"/>
      <point x="19" y="15" type="qcurve"/>
      <point x="108" y="172"/>
      <point x="221" y="473"/>
      <point x="274" y="705" type="qcurve"/>
      <point x="301" y="704"/>
      <point x="337" y="700"/>
      <point x="354" y="696" type="qcurve"/>
      <point x="452" y="506"/>
      <point x="559" y="160"/>
    </contour>
    <contour>
      <point x="316" y="611" type="qcurve"/>
      <point x="292" y="506"/>
      <point x="243" y="337"/>
      <point x="214" y="261" type="qcurve"/>
      <point x="262" y="268"/>
      <point x="376" y="277"/>
      <point x="442" y="279" type="qcurve"/>
      <point x="417" y="367"/>
      <point x="357" y="527"/>
    </contour>
    <contour>
      <point x="309" y="745" type="move" name="top"/>
    </contour>
  </outline>
</glyph>
<glyph name="C" format="1">
  <advance width="547"/>
  <unicode hex="0043"/>
  <outline>
    <contour>
      <point x="424" y="222" type="qcurve"/>
      <point x="443" y="223"/>
      <point x="474" y="217"/>
      <point x="489" y="209" type="qcurve"/>
      <point x="483" y="89"/>
      <point x="373" y="-35"/>
      <point x="274" y="-35" type="qcurve" smooth="yes"/>
      <point x="165" y="-35"/>
      <point x="46" y="129"/>
      <point x="46" y="281" type="qcurve" smooth="yes"/>
      <point x="46" y="465"/>
      <point x="199" y="693"/>
      <point x="323" y="693" type="qcurve" smooth="yes"/>
      <point x="410" y="693"/>
      <point x="492" y="580"/>
      <point x="489" y="465" type="qcurve"/>
      <point x="475" y="456"/>
      <point x="436" y="447"/>
      <point x="411" y="448" type="qcurve"/>
      <point x="418" y="547"/>
      <point x="370" y="635"/>
      <point x="309" y="635" type="qcurve" smooth="yes"/>
      <point x="234" y="635"/>
      <point x="130" y="447"/>
      <point x="130" y="298" type="qcurve" smooth="yes"/>
      <point x="130" y="165"/>
      <point x="210" y="23"/>
      <point x="285" y="23" type="qcurve" smooth="yes"/>
      <point x="353" y="23"/>
      <point x="427" y="130"/>
    </contour>
  </outline>
</glyph>
<glyph name="E" format="1">
  <advance width="520"/>
  <unicode hex="0045"/>
  <outline>
    <contour>
      <point x="480" y="-13" type="qcurve"/>
      <point x="401" y="-25"/>
      <point x="228" y="-38"/>
      <point x="126" y="-41" type="qcurve"/>
      <point x="97" y="151"/>
      <point x="60" y="548"/>
      <point x="58" y="691" type="qcurve"/>
      <point x="197" y="715"/>
      <point x="365" y="733"/>
      <point x="457" y="735" type="qcurve"/>
      <point x="457" y="717"/>
      <point x="454" y="684"/>
      <point x="451" y="670" type="qcurve"/>
      <point x="369" y="669"/>
      <point x="218" y="656"/>
      <point x="145" y="644" type="qcurve"/>
      <point x="143" y="584"/>
      <point x="147" y="456"/>
      <point x="152" y="382" type="qcurve"/>
      <point x="248" y="399"/>
      <point x="353" y="414"/>
      <point x="405" y="418" type="qcurve"/>
      <point x="409" y="404"/>
      <point x="412" y="374"/>
      <point x="411" y="356" type="qcurve"/>
      <point x="335" y="350"/>
      <point x="224" y="337"/>
      <point x="156" y="326" type="qcurve"/>
      <point x="163" y="244"/>
      <point x="180" y="90"/>
      <point x="191" y="20" type="qcurve"/>
      <point x="274" y="22"/>
      <point x="411" y="38"/>
      <point x="475" y="52" type="qcurve"/>
      <point x="479" y="38"/>
      <point x="482" y="0"/>
    </contour>
  </outline>
</glyph>
<glyph name="F" format="1">
  <advance width="506"/>
  <unicode hex="0046"/>
  <outline>
    <contour>
      <point x="175" y="326" type="qcurve" smooth="yes"/>
      <point x="178" y="169"/>
      <point x="179" y="8"/>
      <point x="177" y="-72" type="qcurve"/>
      <point x="161" y="-76"/>
      <point x="122" y="-79"/>
      <point x="104" y="-78" type="qcurve"/>
      <point x="108" y="154"/>
      <point x="85" y="549"/>
      <point x="57" y="721" type="qcurve"/>
      <point x="172" y="730"/>
      <point x="342" y="753"/>
      <point x="453" y="774" type="qcurve"/>
      <point x="456" y="766"/>
      <point x="460" y="749"/>
      <point x="461" y="741" type="qcurve" smooth="yes"/>
      <point x="462" y="734"/>
      <point x="461" y="718"/>
      <point x="460" y="705" type="qcurve"/>
      <point x="341" y="685"/>
      <point x="211" y="669"/>
      <point x="149" y="664" type="qcurve"/>
      <point x="157" y="609"/>
      <point x="169" y="485"/>
      <point x="172" y="415" type="qcurve"/>
      <point x="226" y="426"/>
      <point x="337" y="440"/>
      <point x="396" y="443" type="qcurve"/>
      <point x="400" y="425"/>
      <point x="403" y="396"/>
      <point x="403" y="380" type="qcurve"/>
      <point x="352" y="377"/>
      <point x="238" y="366"/>
      <point x="174" y="357" type="qcurve"/>
      <point x="174" y="354"/>
      <point x="174" y="348"/>
      <point x="175" y="342" type="qcurve" smooth="yes"/>
      <point x="175" y="335"/>
      <point x="175" y="329"/>
    </contour>
  </outline>
</glyph>
<glyph name="G" format="1">
  <advance width="568"/>
  <unicode hex="0047"/>
  <outline>
    <contour>
      <point x="486" y="348" type="qcurve"/>
      <point x="484" y="251"/>
      <point x="510" y="72"/>
      <point x="538" y="-21" type="qcurve"/>
      <point x="526" y="-24"/>
      <point x="494" y="-28"/>
      <point x="477" y="-29" type="qcurve"/>
      <point x="463" y="6"/>
      <point x="441" y="75"/>
      <point x="432" y="111" type="qcurve"/>
      <point x="397" y="43"/>
      <point x="304" y="-21"/>
      <point x="242" y="-21" type="qcurve" smooth="yes"/>
      <point x="152" y="-21"/>
      <point x="46" y="151"/>
      <point x="46" y="299" type="qcurve" smooth="yes"/>
      <point x="46" y="488"/>
      <point x="190" y="724"/>
      <point x="308" y="724" type="qcurve" smooth="yes"/>
      <point x="389" y="724"/>
      <point x="481" y="598"/>
      <point x="481" y="490" type="qcurve"/>
      <point x="462" y="485"/>
      <point x="423" y="479"/>
      <point x="401" y="478" type="qcurve"/>
      <point x="399" y="571"/>
      <point x="342" y="666"/>
      <point x="289" y="666" type="qcurve" smooth="yes"/>
      <point x="219" y="666"/>
      <point x="128" y="472"/>
      <point x="128" y="323" type="qcurve" smooth="yes"/>
      <point x="128" y="190"/>
      <point x="197" y="43"/>
      <point x="259" y="43" type="qcurve" smooth="yes"/>
      <point x="312" y="43"/>
      <point x="391" y="127"/>
      <point x="413" y="207" type="qcurve"/>
      <point x="409" y="236"/>
      <point x="402" y="301"/>
      <point x="400" y="339" type="qcurve"/>
      <point x="418" y="343"/>
      <point x="463" y="348"/>
    </contour>
  </outline>
</glyph>
<glyph name="H" format="1">
  <advance width="603"/>
  <unicode hex="0048"/>
  <outline>
    <contour>
      <point x="508" y="732" type="qcurve"/>
      <point x="517" y="551"/>
      <point x="529" y="100"/>
      <point x="529" y="-55" type="qcurve"/>
      <point x="511" y="-55"/>
      <point x="465" y="-49"/>
      <point x="451" y="-46" type="qcurve"/>
      <point x="451" y="21"/>
      <point x="448" y="227"/>
      <point x="446" y="342" type="qcurve"/>
      <point x="352" y="341"/>
      <point x="209" y="332"/>
      <point x="147" y="323" type="qcurve"/>
      <point x="148" y="234"/>
      <point x="152" y="74"/>
      <point x="156" y="13" type="qcurve"/>
      <point x="142" y="9"/>
      <point x="102" y="6"/>
      <point x="86" y="7" type="qcurve"/>
      <point x="76" y="177"/>
      <point x="65" y="528"/>
      <point x="65" y="704" type="qcurve"/>
      <point x="75" y="709"/>
      <point x="102" y="714"/>
      <point x="115" y="714" type="qcurve" smooth="yes"/>
      <point x="126" y="714"/>
      <point x="145" y="711"/>
      <point x="156" y="708" type="qcurve"/>
      <point x="151" y="653"/>
      <point x="146" y="481"/>
      <point x="147" y="381" type="qcurve"/>
      <point x="215" y="393"/>
      <point x="360" y="405"/>
      <point x="444" y="406" type="qcurve"/>
      <point x="440" y="524"/>
      <point x="433" y="685"/>
      <point x="428" y="735" type="qcurve"/>
      <point x="446" y="740"/>
      <point x="463" y="742"/>
      <point x="472" y="742" type="qcurve" smooth="yes"/>
      <point x="482" y="742"/>
      <point x="501" y="737"/>
    </contour>
  </outline>
</glyph>
<glyph name="I" format="1">
  <advance width="235"/>
  <unicode hex="0049"/>
  <outline>
    <contour>
      <point x="156" y="487" type="qcurve" smooth="yes"/>
      <point x="156" y="263"/>
      <point x="153" y="78"/>
      <point x="149" y="-20" type="qcurve"/>
      <point x="139" y="-23"/>
      <point x="103" y="-27"/>
      <point x="83" y="-28" type="qcurve"/>
      <point x="85" y="171"/>
      <point x="77" y="519"/>
      <point x="66" y="667" type="qcurve"/>
      <point x="78" y="674"/>
      <point x="105" y="680"/>
      <point x="119" y="680" type="qcurve" smooth="yes"/>
      <point x="127" y="680"/>
      <point x="142" y="679"/>
      <point x="151" y="677" type="qcurve"/>
      <point x="154" y="635"/>
      <point x="156" y="547"/>
    </contour>
  </outline>
</glyph>
<glyph name="J" format="1">
  <advance width="458"/>
  <unicode hex="004A"/>
  <outline>
    <contour>
      <point x="351" y="59" type="qcurve" smooth="yes"/>
      <point x="331" y="-13"/>
      <point x="255" y="-88"/>
      <point x="201" y="-88" type="qcurve" smooth="yes"/>
      <point x="133" y="-88"/>
      <point x="46" y="40"/>
      <point x="33" y="158" type="qcurve"/>
      <point x="46" y="167"/>
      <point x="78" y="179"/>
      <point x="102" y="184" type="qcurve"/>
      <point x="116" y="67"/>
      <point x="161" y="-28"/>
      <point x="203" y="-28" type="qcurve" smooth="yes"/>
      <point x="251" y="-28"/>
      <point x="298" y="99"/>
      <point x="298" y="229" type="qcurve" smooth="yes"/>
      <point x="298" y="337"/>
      <point x="283" y="567"/>
      <point x="266" y="708" type="qcurve"/>
      <point x="275" y="713"/>
      <point x="301" y="720"/>
      <point x="316" y="722" type="qcurve" smooth="yes"/>
      <point x="325" y="723"/>
      <point x="345" y="724"/>
      <point x="357" y="723" type="qcurve"/>
      <point x="368" y="621"/>
      <point x="380" y="437"/>
      <point x="380" y="358" type="qcurve" smooth="yes"/>
      <point x="380" y="253"/>
      <point x="366" y="112"/>
    </contour>
  </outline>
</glyph>
<glyph name="K" format="1">
  <advance width="562"/>
  <unicode hex="004B"/>
  <outline>
    <contour>
      <point x="553" y="-31" type="qcurve"/>
      <point x="540" y="-50"/>
      <point x="510" y="-75"/>
      <point x="491" y="-84" type="qcurve"/>
      <point x="421" y="37"/>
      <point x="301" y="192"/>
      <point x="213" y="277" type="qcurve"/>
      <point x="181" y="251"/>
      <point x="157" y="232"/>
      <point x="146" y="224" type="qcurve"/>
      <point x="148" y="149"/>
      <point x="159" y="19"/>
      <point x="169" y="-62" type="qcurve"/>
      <point x="154" y="-65"/>
      <point x="114" y="-70"/>
      <point x="100" y="-70" type="qcurve"/>
      <point x="81" y="71"/>
      <point x="66" y="296"/>
      <point x="66" y="440" type="qcurve" smooth="yes"/>
      <point x="66" y="497"/>
      <point x="71" y="624"/>
      <point x="76" y="695" type="qcurve"/>
      <point x="96" y="700"/>
      <point x="119" y="704"/>
      <point x="129" y="704" type="qcurve" smooth="yes"/>
      <point x="139" y="704"/>
      <point x="159" y="701"/>
      <point x="170" y="698" type="qcurve"/>
      <point x="157" y="615"/>
      <point x="145" y="444"/>
      <point x="145" y="331" type="qcurve" smooth="yes"/>
      <point x="145" y="320"/>
      <point x="145" y="297"/>
      <point x="145" y="286" type="qcurve"/>
      <point x="245" y="375"/>
      <point x="362" y="534"/>
      <point x="433" y="685" type="qcurve"/>
      <point x="449" y="678"/>
      <point x="480" y="654"/>
      <point x="495" y="636" type="qcurve"/>
      <point x="437" y="529"/>
      <point x="331" y="386"/>
      <point x="263" y="321" type="qcurve"/>
      <point x="350" y="243"/>
      <point x="466" y="101"/>
    </contour>
  </outline>
</glyph>
<glyph name="L" format="1">
  <advance width="480"/>
  <unicode hex="004C"/>
  <outline>
    <contour>
      <point x="463" y="-6" type="qcurve"/>
      <point x="466" y="-23"/>
      <point x="470" y="-60"/>
      <point x="470" y="-72" type="qcurve"/>
      <point x="377" y="-73"/>
      <point x="219" y="-84"/>
      <point x="117" y="-98" type="qcurve"/>
      <point x="90" y="96"/>
      <point x="67" y="489"/>
      <point x="71" y="663" type="qcurve"/>
      <point x="87" y="669"/>
      <point x="115" y="674"/>
      <point x="133" y="674" type="qcurve" smooth="yes"/>
      <point x="139" y="674"/>
      <point x="153" y="673"/>
      <point x="160" y="672" type="qcurve"/>
      <point x="154" y="615"/>
      <point x="150" y="483"/>
      <point x="151" y="387" type="qcurve" smooth="yes"/>
      <point x="153" y="264"/>
      <point x="168" y="70"/>
      <point x="182" y="-29" type="qcurve"/>
      <point x="253" y="-18"/>
      <point x="399" y="-6"/>
    </contour>
  </outline>
</glyph>
<glyph name="M" format="1">
  <advance width="740"/>
  <unicode hex="004D"/>
  <outline>
    <contour>
      <point x="658" y="-43" type="qcurve"/>
      <point x="640" y="-50"/>
      <point x="602" y="-56"/>
      <point x="579" y="-56" type="qcurve"/>
      <point x="589" y="106"/>
      <point x="596" y="428"/>
      <point x="594" y="633" type="qcurve"/>
      <point x="532" y="531"/>
      <point x="436" y="311"/>
      <point x="395" y="179" type="qcurve"/>
      <point x="384" y="175"/>
      <point x="356" y="172"/>
      <point x="342" y="174" type="qcurve"/>
      <point x="302" y="303"/>
      <point x="205" y="519"/>
      <point x="141" y="621" type="qcurve"/>
      <point x="140" y="601"/>
      <point x="139" y="559"/>
      <point x="139" y="507" type="qcurve" smooth="yes"/>
      <point x="139" y="395"/>
      <point x="163" y="140"/>
      <point x="187" y="5" type="qcurve"/>
      <point x="172" y="1"/>
      <point x="131" y="-4"/>
      <point x="114" y="-4" type="qcurve"/>
      <point x="88" y="154"/>
      <point x="65" y="552"/>
      <point x="71" y="725" type="qcurve"/>
      <point x="93" y="737"/>
      <point x="132" y="752"/>
      <point x="149" y="755" type="qcurve"/>
      <point x="220" y="653"/>
      <point x="335" y="414"/>
      <point x="372" y="292" type="qcurve"/>
      <point x="408" y="405"/>
      <point x="513" y="631"/>
      <point x="587" y="755" type="qcurve"/>
      <point x="608" y="752"/>
      <point x="644" y="740"/>
      <point x="659" y="733" type="qcurve"/>
      <point x="666" y="595"/>
      <point x="665" y="198"/>
    </contour>
  </outline>
</glyph>
<glyph name="Q" format="1">
  <advance width="592"/>
  <unicode hex="0051"/>
  <outline>
    <contour>
      <point x="579" y="-52" type="qcurve"/>
      <point x="572" y="-66"/>
      <point x="546" y="-93"/>
      <point x="529" y="-105" type="qcurve"/>
      <point x="501" y="-64"/>
      <point x="452" y="0"/>
      <point x="428" y="27" type="qcurve"/>
      <point x="394" y="-6"/>
      <point x="311" y="-40"/>
      <point x="264" y="-40" type="qcurve" smooth="yes"/>
      <point x="163" y="-40"/>
      <point x="41" y="133"/>
      <point x="41" y="277" type="qcurve" smooth="yes"/>
      <point x="41" y="451"/>
      <point x="200" y="673"/>
      <point x="325" y="673" type="qcurve" smooth="yes"/>
      <point x="431" y="673"/>
      <point x="545" y="509"/>
      <point x="545" y="360" type="qcurve" smooth="yes"/>
      <point x="545" y="278"/>
      <point x="505" y="131"/>
      <point x="468" y="75" type="qcurve"/>
      <point x="490" y="53"/>
      <point x="540" y="-4"/>
    </contour>
    <contour>
      <point x="123" y="289" type="qcurve" smooth="yes"/>
      <point x="123" y="165"/>
      <point x="202" y="19"/>
      <point x="271" y="19" type="qcurve" smooth="yes"/>
      <point x="304" y="19"/>
      <point x="362" y="47"/>
      <point x="385" y="74" type="qcurve"/>
      <point x="365" y="94"/>
      <point x="322" y="134"/>
      <point x="295" y="156" type="qcurve"/>
      <point x="297" y="159"/>
      <point x="306" y="172"/>
      <point x="308" y="176" type="qcurve" smooth="yes"/>
      <point x="313" y="182"/>
      <point x="322" y="191"/>
      <point x="326" y="194" type="qcurve"/>
      <point x="355" y="173"/>
      <point x="399" y="139"/>
      <point x="418" y="123" type="qcurve"/>
      <point x="440" y="166"/>
      <point x="463" y="279"/>
      <point x="463" y="343" type="qcurve" smooth="yes"/>
      <point x="463" y="477"/>
      <point x="389" y="612"/>
      <point x="315" y="612" type="qcurve" smooth="yes"/>
      <point x="229" y="612"/>
      <point x="123" y="433"/>
    </contour>
  </outline>
</glyph>
<glyph name="T" format="1">
  <advance width="590"/>
  <unicode hex="0054"/>
  <outline>
    <contour>
      <point x="361" y="34" type="qcurve"/>
      <point x="348" y="30"/>
      <point x="308" y="25"/>
      <point x="287" y="24" type="qcurve"/>
      <point x="292" y="185"/>
      <point x="274" y="551"/>
      <point x="252" y="706" type="qcurve"/>
      <point x="201" y="701"/>
      <point x="92" y="686"/>
      <point x="29" y="677" type="qcurve"/>
      <point x="25" y="694"/>
      <point x="21" y="728"/>
      <point x="22" y="742" type="qcurve"/>
      <point x="172" y="767"/>
      <point x="405" y="789"/>
      <point x="554" y="791" type="qcurve"/>
      <point x="557" y="784"/>
      <point x="560" y="766"/>
      <point x="561" y="755" type="qcurve" smooth="yes"/>
      <point x="561" y="751"/>
      <point x="561" y="741"/>
      <point x="559" y="722" type="qcurve"/>
      <point x="499" y="721"/>
      <point x="393" y="717"/>
      <point x="341" y="713" type="qcurve"/>
      <point x="354" y="583"/>
      <point x="366" y="354"/>
      <point x="366" y="230" type="qcurve" smooth="yes"/>
      <point x="366" y="187"/>
      <point x="364" y="91"/>
    </contour>
  </outline>
</glyph>
<glyph name="U" format="1">
  <advance width="547"/>
  <unicode hex="0055"/>
  <outline>
    <contour>
      <point x="443" y="706" type="qcurve"/>
      <point x="467" y="609"/>
      <point x="489" y="446"/>
      <point x="489" y="370" type="qcurve" smooth="yes"/>
      <point x="489" y="143"/>
      <point x="365" y="-80"/>
      <point x="240" y="-80" type="qcurve" smooth="yes"/>
      <point x="146" y="-80"/>
      <point x="54" y="94"/>
      <point x="54" y="272" type="qcurve" smooth="yes"/>
      <point x="54" y="364"/>
      <point x="84" y="566"/>
      <point x="105" y="628" type="qcurve"/>
      <point x="113" y="631"/>
      <point x="139" y="634"/>
      <point x="150" y="634" type="qcurve" smooth="yes"/>
      <point x="159" y="634"/>
      <point x="175" y="632"/>
      <point x="182" y="630" type="qcurve"/>
      <point x="160" y="538"/>
      <point x="138" y="368"/>
      <point x="138" y="294" type="qcurve" smooth="yes"/>
      <point x="138" y="129"/>
      <point x="192" y="-18"/>
      <point x="254" y="-18" type="qcurve" smooth="yes"/>
      <point x="327" y="-18"/>
      <point x="406" y="160"/>
      <point x="406" y="321" type="qcurve" smooth="yes"/>
      <point x="406" y="418"/>
      <point x="384" y="591"/>
      <point x="358" y="691" type="qcurve"/>
      <point x="376" y="697"/>
      <point x="419" y="704"/>
    </contour>
  </outline>
</glyph>
<glyph name="bracketleft" format="1">
  <advance width="355"/>
  <unicode hex="005B"/>
  <outline>
    <contour>
      <point x="338" y="-72" type="qcurve"/>
      <point x="341" y="-83"/>
      <point x="344" y="-115"/>
      <point x="344" y="-130" type="qcurve"/>
      <point x="296" y="-137"/>
      <point x="186" y="-143"/>
      <point x="126" y="-142" type="qcurve"/>
      <point x="93" y="75"/>
      <point x="60" y="521"/>
      <point x="60" y="753" type="qcurve"/>
      <point x="115" y="766"/>
      <point x="224" y="783"/>
      <point x="280" y="786" type="qcurve"/>
      <point x="281" y="770"/>
      <point x="280" y="741"/>
      <point x="279" y="728" type="qcurve"/>
      <point x="231" y="726"/>
      <point x="164" y="720"/>
      <point x="137" y="716" type="qcurve"/>
      <point x="129" y="511"/>
      <point x="150" y="149"/>
      <point x="182" y="-86" type="qcurve"/>
      <point x="218" y="-86"/>
      <point x="302" y="-78"/>
    </contour>
  </outline>
</glyph>
<glyph name="bracketright" format="1">
  <advance width="331"/>
  <unicode hex="005D"/>
  <outline>
    <contour>
      <point x="234" y="804" type="qcurve"/>
      <point x="257" y="669"/>
      <point x="264" y="181"/>
      <point x="247" y="-86" type="qcurve"/>
      <point x="194" y="-97"/>
      <point x="88" y="-112"/>
      <point x="29" y="-115" type="qcurve"/>
      <point x="28" y="-105"/>
      <point x="29" y="-79"/>
      <point x="30" y="-58" type="qcurve"/>
      <point x="83" y="-55"/>
      <point x="155" y="-48"/>
      <point x="181" y="-44" type="qcurve"/>
      <point x="197" y="163"/>
      <point x="191" y="561"/>
      <point x="168" y="748" type="qcurve"/>
      <point x="137" y="748"/>
      <point x="59" y="741"/>
      <point x="16" y="734" type="qcurve"/>
      <point x="14" y="745"/>
      <point x="11" y="778"/>
      <point x="11" y="791" type="qcurve"/>
      <point x="58" y="798"/>
      <point x="170" y="805"/>
    </contour>
  </outline>
</glyph>
<glyph name="asciicircum" format="1">
  <advance width="395"/>
  <unicode hex="005E"/>
  <outline>
    <contour>
      <point x="370" y="217" type="qcurve"/>
      <point x="342" y="206"/>
      <point x="329" y="202"/>
      <point x="322" y="201" type="qcurve"/>
      <point x="293" y="269"/>
      <point x="232" y="384"/>
      <point x="195" y="439" type="qcurve"/>
      <point x="165" y="396"/>
      <point x="106" y="283"/>
      <point x="72" y="203" type="qcurve"/>
      <point x="60" y="204"/>
      <point x="37" y="212"/>
      <point x="24" y="220" type="qcurve"/>
      <point x="57" y="306"/>
      <point x="135" y="450"/>
      <point x="178" y="505" type="qcurve"/>
      <point x="217" y="502" type="line"/>
      <point x="261" y="442"/>
      <point x="336" y="301"/>
    </contour>
  </outline>
</glyph>
<glyph name="grave" format="1">
  <advance width="260"/>
  <unicode hex="0060"/>
  <outline>
    <contour>
      <point x="144" y="750" type="qcurve"/>
      <point x="148" y="710"/>
      <point x="167" y="627"/>
      <point x="184" y="580" type="qcurve"/>
      <point x="166" y="576"/>
      <point x="143" y="573"/>
      <point x="132" y="572" type="qcurve"/>
      <point x="104" y="620"/>
      <point x="73" y="704"/>
      <point x="68" y="745" type="qcurve"/>
      <point x="82" y="750"/>
      <point x="126" y="753"/>
    </contour>
    <contour>
      <point x="158" y="560" type="move" name="_top"/>
    </contour>
  </outline>
</glyph>
<glyph name="a" format="1">
  <advance width="452"/>
  <unicode hex="0061"/>
  <outline>
    <contour>
      <point x="395" y="341" type="qcurve" smooth="yes"/>
      <point x="395" y="275"/>
      <point x="359" y="57"/>
      <point x="334" y="-34" type="qcurve"/>
      <point x="319" y="-34"/>
      <point x="285" y="-28"/>
      <point x="269" y="-23" type="qcurve"/>
      <point x="270" y="-19"/>
      <point x="272" y="-8"/>
      <point x="275" y="1" type="qcurve" smooth="yes"/>
      <point x="278" y="17"/>
      <point x="282" y="32"/>
      <point x="283" y="38" type="qcurve"/>
      <point x="262" y="23"/>
      <point x="209" y="7"/>
      <point x="179" y="7" type="qcurve" smooth="yes"/>
      <point x="111" y="7"/>
      <point x="27" y="80"/>
      <point x="27" y="140" type="qcurve" smooth="yes"/>
      <point x="27" y="205"/>
      <point x="137" y="273"/>
      <point x="244" y="273" type="qcurve" smooth="yes"/>
      <point x="260" y="273"/>
      <point x="290" y="272"/>
      <point x="315" y="271" type="qcurve"/>
      <point x="316" y="281"/>
      <point x="316" y="305"/>
      <point x="316" y="331" type="qcurve" smooth="yes"/>
      <point x="316" y="411"/>
      <point x="277" y="483"/>
      <point x="232" y="483" type="qcurve" smooth="yes"/>
      <point x="186" y="483"/>
      <point x="124" y="402"/>
      <point x="122" y="340" type="qcurve"/>
      <point x="94" y="344"/>
      <point x="60" y="363"/>
      <point x="51" y="379" type="qcurve"/>
      <point x="63" y="445"/>
      <point x="172" y="537"/>
      <point x="242" y="537" type="qcurve" smooth="yes"/>
      <point x="318" y="537"/>
      <point x="395" y="438"/>
    </contour>
    <contour>
      <point x="106" y="138" type="qcurve" smooth="yes"/>
      <point x="106" y="101"/>
      <point x="154" y="58"/>
      <point x="193" y="58" type="qcurve" smooth="yes"/>
      <point x="221" y="58"/>
      <point x="272" y="75"/>
      <point x="294" y="92" type="qcurve"/>
      <point x="302" y="133"/>
      <point x="311" y="197"/>
      <point x="313" y="229" type="qcurve"/>
      <point x="210" y="235"/>
      <point x="106" y="190"/>
    </contour>
  </outline>
</glyph>
<glyph name="c" format="1">
  <advance width="424"/>
  <unicode hex="0063"/>
  <outline>
    <contour>
      <point x="387" y="368" type="qcurve"/>
      <point x="371" y="360"/>
      <point x="333" y="353"/>
      <point x="311" y="353" type="qcurve"/>
      <point x="311" y="420"/>
      <point x="274" y="488"/>
      <point x="238" y="488" type="qcurve" smooth="yes"/>
      <point x="183" y="488"/>
      <point x="103" y="315"/>
      <point x="103" y="204" type="qcurve" smooth="yes"/>
      <point x="103" y="123"/>
      <point x="158" y="29"/>
      <point x="208" y="29" type="qcurve" smooth="yes"/>
      <point x="246" y="29"/>
      <point x="311" y="92"/>
      <point x="336" y="151" type="qcurve"/>
      <point x="351" y="146"/>
      <point x="375" y="130"/>
      <point x="384" y="119" type="qcurve"/>
      <point x="368" y="59"/>
      <point x="261" y="-25"/>
      <point x="195" y="-25" type="qcurve" smooth="yes"/>
      <point x="114" y="-25"/>
      <point x="27" y="92"/>
      <point x="27" y="198" type="qcurve" smooth="yes"/>
      <point x="27" y="345"/>
      <point x="147" y="541"/>
      <point x="239" y="541" type="qcurve" smooth="yes"/>
      <point x="309" y="541"/>
      <point x="387" y="449"/>
    </contour>
  </outline>
</glyph>
<glyph name="e" format="1">
  <advance width="435"/>
  <unicode hex="0065"/>
  <outline>
    <contour>
      <point x="119" y="313" type="qcurve"/>
      <point x="148" y="303"/>
      <point x="215" y="292"/>
      <point x="252" y="292" type="qcurve" smooth="yes"/>
      <point x="262" y="292"/>
      <point x="289" y="294"/>
      <point x="295" y="296" type="qcurve"/>
      <point x="303" y="325"/>
      <point x="310" y="374"/>
      <point x="310" y="394" type="qcurve" smooth="yes"/>
      <point x="310" y="438"/>
      <point x="281" y="476"/>
      <point x="249" y="476" type="qcurve" smooth="yes"/>
      <point x="207" y="476"/>
      <point x="137" y="386"/>
    </contour>
    <contour>
      <point x="342" y="170" type="qcurve"/>
      <point x="358" y="167"/>
      <point x="391" y="149"/>
      <point x="403" y="137" type="qcurve"/>
      <point x="384" y="80"/>
      <point x="267" y="-11"/>
      <point x="204" y="-11" type="qcurve" smooth="yes"/>
      <point x="123" y="-11"/>
      <point x="30" y="115"/>
      <point x="30" y="221" type="qcurve" smooth="yes"/>
      <point x="30" y="340"/>
      <point x="163" y="530"/>
      <point x="255" y="530" type="qcurve" smooth="yes"/>
      <point x="314" y="530"/>
      <point x="383" y="455"/>
      <point x="383" y="391" type="qcurve" smooth="yes"/>
      <point x="383" y="357"/>
      <point x="370" y="288"/>
      <point x="359" y="257" type="qcurve"/>
      <point x="339" y="250"/>
      <point x="282" y="243"/>
      <point x="240" y="243" type="qcurve" smooth="yes"/>
      <point x="208" y="243"/>
      <point x="141" y="254"/>
      <point x="110" y="265" type="qcurve"/>
      <point x="108" y="253"/>
      <point x="107" y="230"/>
      <point x="107" y="219" type="qcurve" smooth="yes"/>
      <point x="107" y="140"/>
      <point x="162" y="43"/>
      <point x="208" y="43" type="qcurve" smooth="yes"/>
      <point x="248" y="43"/>
      <point x="328" y="118"/>
    </contour>
  </outline>
</glyph>
<glyph name="f" format="1">
  <advance width="381"/>
  <unicode hex="0066"/>
  <outline>
    <contour>
      <point x="165" y="381" type="qcurve"/>
      <point x="168" y="274"/>
      <point x="192" y="71"/>
      <point x="211" y="-6" type="qcurve"/>
      <point x="187" y="-14"/>
      <point x="148" y="-21"/>
      <point x="132" y="-21" type="qcurve"/>
      <point x="119" y="38"/>
      <point x="94" y="288"/>
      <point x="93" y="390" type="qcurve"/>
      <point x="70" y="394"/>
      <point x="39" y="401"/>
      <point x="30" y="405" type="qcurve"/>
      <point x="30" y="419"/>
      <point x="34" y="445"/>
      <point x="38" y="449" type="qcurve"/>
      <point x="48" y="447"/>
      <point x="72" y="444"/>
      <point x="94" y="442" type="qcurve"/>
      <point x="98" y="587"/>
      <point x="171" y="727"/>
      <point x="243" y="727" type="qcurve" smooth="yes"/>
      <point x="296" y="727"/>
      <point x="357" y="657"/>
      <point x="357" y="601" type="qcurve" smooth="yes"/>
      <point x="357" y="585"/>
      <point x="350" y="550"/>
      <point x="345" y="540" type="qcurve"/>
      <point x="329" y="540"/>
      <point x="298" y="546"/>
      <point x="283" y="551" type="qcurve"/>
      <point x="287" y="564"/>
      <point x="292" y="593"/>
      <point x="292" y="607" type="qcurve" smooth="yes"/>
      <point x="292" y="637"/>
      <point x="265" y="672"/>
      <point x="243" y="672" type="qcurve" smooth="yes"/>
      <point x="205" y="672"/>
      <point x="164" y="555"/>
      <point x="164" y="448" type="qcurve" smooth="yes"/>
      <point x="164" y="445"/>
      <point x="164" y="440"/>
      <point x="164" y="437" type="qcurve"/>
      <point x="195" y="436"/>
      <point x="229" y="435"/>
      <point x="244" y="435" type="qcurve" smooth="yes"/>
      <point x="268" y="435"/>
      <point x="306" y="438"/>
      <point x="319" y="441" type="qcurve"/>
      <point x="319" y="428"/>
      <point x="315" y="394"/>
      <point x="313" y="383" type="qcurve"/>
      <point x="303" y="380"/>
      <point x="268" y="378"/>
      <point x="242" y="378" type="qcurve" smooth="yes"/>
      <point x="222" y="378"/>
      <point x="183" y="380"/>
    </contour>
  </outline>
</glyph>
<glyph name="g" format="1">
  <advance width="452"/>
  <unicode hex="0067"/>
  <outline>
    <contour>
      <point x="123" y="257" type="qcurve" smooth="yes"/>
      <point x="123" y="166"/>
      <point x="175" y="62"/>
      <point x="218" y="62" type="qcurve" smooth="yes"/>
      <point x="251" y="62"/>
      <point x="298" y="129"/>
      <point x="315" y="200" type="qcurve"/>
      <point x="313" y="275"/>
      <point x="296" y="400"/>
      <point x="280" y="454" type="qcurve"/>
      <point x="271" y="457"/>
      <point x="250" y="460"/>
      <point x="239" y="460" type="qcurve" smooth="yes"/>
      <point x="181" y="460"/>
      <point x="123" y="359"/>
    </contour>
    <contour>
      <point x="393" y="169" type="qcurve" smooth="yes"/>
      <point x="393" y="-33"/>
      <point x="287" y="-247"/>
      <point x="194" y="-247" type="qcurve" smooth="yes"/>
      <point x="130" y="-247"/>
      <point x="46" y="-161"/>
      <point x="35" y="-87" type="qcurve"/>
      <point x="50" y="-76"/>
      <point x="87" y="-60"/>
      <point x="106" y="-56" type="qcurve"/>
      <point x="116" y="-127"/>
      <point x="160" y="-191"/>
      <point x="199" y="-191" type="qcurve" smooth="yes"/>
      <point x="249" y="-191"/>
      <point x="309" y="-50"/>
      <point x="315" y="85" type="qcurve"/>
      <point x="295" y="44"/>
      <point x="242" y="4"/>
      <point x="207" y="4" type="qcurve" smooth="yes"/>
      <point x="131" y="4"/>
      <point x="42" y="139"/>
      <point x="42" y="254" type="qcurve" smooth="yes"/>
      <point x="42" y="376"/>
      <point x="151" y="517"/>
      <point x="243" y="517" type="qcurve" smooth="yes"/>
      <point x="272" y="517"/>
      <point x="333" y="503"/>
      <point x="359" y="490" type="qcurve"/>
      <point x="374" y="425"/>
      <point x="393" y="246"/>
    </contour>
  </outline>
</glyph>
<glyph name="h" format="1">
  <advance width="467"/>
  <unicode hex="0068"/>
  <outline>
    <contour>
      <point x="416" y="326" type="qcurve" smooth="yes"/>
      <point x="416" y="245"/>
      <point x="367" y="28"/>
      <point x="341" y="-32" type="qcurve"/>
      <point x="324" y="-30"/>
      <point x="291" y="-20"/>
      <point x="276" y="-12" type="qcurve"/>
      <point x="306" y="69"/>
      <point x="339" y="247"/>
      <point x="339" y="325" type="qcurve" smooth="yes"/>
      <point x="339" y="403"/>
      <point x="308" y="466"/>
      <point x="269" y="466" type="qcurve" smooth="yes"/>
      <point x="228" y="466"/>
      <point x="148" y="375"/>
      <point x="126" y="298" type="qcurve"/>
      <point x="126" y="295" type="line" smooth="yes"/>
      <point x="126" y="239"/>
      <point x="136" y="73"/>
      <point x="141" y="35" type="qcurve"/>
      <point x="130" y="32"/>
      <point x="90" y="27"/>
      <point x="72" y="27" type="qcurve"/>
      <point x="64" y="132"/>
      <point x="56" y="317"/>
      <point x="56" y="395" type="qcurve" smooth="yes"/>
      <point x="56" y="476"/>
      <point x="68" y="689"/>
      <point x="76" y="741" type="qcurve"/>
      <point x="89" y="748"/>
      <point x="117" y="755"/>
      <point x="131" y="755" type="qcurve" smooth="yes"/>
      <point x="141" y="755"/>
      <point x="167" y="748"/>
      <point x="171" y="747" type="qcurve"/>
      <point x="155" y="671"/>
      <point x="133" y="494"/>
      <point x="129" y="406" type="qcurve"/>
      <point x="160" y="464"/>
      <point x="240" y="526"/>
      <point x="283" y="526" type="qcurve" smooth="yes"/>
      <point x="353" y="526"/>
      <point x="416" y="431"/>
    </contour>
  </outline>
</glyph>
<glyph name="k" format="1">
  <advance width="447"/>
  <unicode hex="006B"/>
  <outline>
    <contour>
      <point x="123" y="236" type="qcurve" smooth="yes"/>
      <point x="123" y="162"/>
      <point x="131" y="26"/>
      <point x="140" y="-42" type="qcurve"/>
      <point x="123" y="-46"/>
      <point x="85" y="-50"/>
      <point x="71" y="-50" type="qcurve"/>
      <point x="59" y="69"/>
      <point x="51" y="221"/>
      <point x="51" y="304" type="qcurve" smooth="yes"/>
      <point x="51" y="414"/>
      <point x="66" y="638"/>
      <point x="80" y="734" type="qcurve"/>
      <point x="102" y="736"/>
      <point x="148" y="732"/>
      <point x="163" y="727" type="qcurve"/>
      <point x="146" y="621"/>
      <point x="126" y="414"/>
      <point x="124" y="312" type="qcurve"/>
      <point x="195" y="374"/>
      <point x="294" y="489"/>
      <point x="351" y="578" type="qcurve"/>
      <point x="366" y="571"/>
      <point x="393" y="548"/>
      <point x="403" y="535" type="qcurve"/>
      <point x="352" y="458"/>
      <point x="261" y="356"/>
      <point x="196" y="302" type="qcurve"/>
      <point x="241" y="236"/>
      <point x="343" y="139"/>
      <point x="427" y="82" type="qcurve"/>
      <point x="410" y="57"/>
      <point x="387" y="33"/>
      <point x="374" y="26" type="qcurve"/>
      <point x="310" y="76"/>
      <point x="214" y="179"/>
      <point x="150" y="265" type="qcurve"/>
      <point x="143" y="260"/>
      <point x="130" y="249"/>
      <point x="123" y="244" type="qcurve"/>
      <point x="123" y="242"/>
      <point x="123" y="238"/>
    </contour>
  </outline>
</glyph>
<glyph name="l" format="1">
  <advance width="202"/>
  <unicode hex="006C"/>
  <outline>
    <contour>
      <point x="138" y="-53" type="qcurve"/>
      <point x="128" y="-56"/>
      <point x="85" y="-61"/>
      <point x="70" y="-61" type="qcurve"/>
      <point x="54" y="162"/>
      <point x="49" y="535"/>
      <point x="60" y="730" type="qcurve"/>
      <point x="70" y="735"/>
      <point x="95" y="742"/>
      <point x="107" y="742" type="qcurve" smooth="yes"/>
      <point x="117" y="742"/>
      <point x="136" y="739"/>
      <point x="147" y="736" type="qcurve"/>
      <point x="131" y="581"/>
      <point x="126" y="158"/>
    </contour>
  </outline>
</glyph>
<glyph name="o" format="1">
  <advance width="449"/>
  <unicode hex="006F"/>
  <outline>
    <contour>
      <point x="30" y="242" type="qcurve" smooth="yes"/>
      <point x="30" y="372"/>
      <point x="149" y="536"/>
      <point x="243" y="536" type="qcurve" smooth="yes"/>
      <point x="320" y="536"/>
      <point x="410" y="419"/>
      <point x="410" y="320" type="qcurve" smooth="yes"/>
      <point x="410" y="175"/>
      <point x="297" y="-10"/>
      <point x="204" y="-10" type="qcurve" smooth="yes"/>
      <point x="124" y="-10"/>
      <point x="30" y="129"/>
    </contour>
    <contour>
      <point x="330" y="278" type="qcurve" smooth="yes"/>
      <point x="330" y="380"/>
      <point x="278" y="480"/>
      <point x="225" y="480" type="qcurve" smooth="yes"/>
      <point x="177" y="480"/>
      <point x="106" y="348"/>
      <point x="106" y="252" type="qcurve" smooth="yes"/>
      <point x="106" y="164"/>
      <point x="166" y="45"/>
      <point x="217" y="45" type="qcurve" smooth="yes"/>
      <point x="262" y="45"/>
      <point x="330" y="182"/>
    </contour>
  </outline>
</glyph>
<glyph name="q" format="1">
  <advance width="490"/>
  <unicode hex="0071"/>
  <outline>
    <contour>
      <point x="382" y="-234" type="qcurve"/>
      <point x="375" y="-237"/>
      <point x="351" y="-241"/>
      <point x="340" y="-241" type="qcurve" smooth="yes"/>
      <point x="333" y="-241"/>
      <point x="323" y="-239"/>
      <point x="317" y="-237" type="qcurve"/>
      <point x="314" y="-217"/>
      <point x="309" y="-42"/>
      <point x="308" y="42" type="qcurve"/>
      <point x="287" y="-4"/>
      <point x="230" y="-50"/>
      <point x="194" y="-50" type="qcurve" smooth="yes"/>
      <point x="124" y="-50"/>
      <point x="39" y="87"/>
      <point x="39" y="196" type="qcurve" smooth="yes"/>
      <point x="39" y="340"/>
      <point x="167" y="512"/>
      <point x="276" y="512" type="qcurve" smooth="yes"/>
      <point x="290" y="512"/>
      <point x="327" y="506"/>
      <point x="342" y="501" type="qcurve"/>
      <point x="343" y="506"/>
      <point x="350" y="543"/>
      <point x="353" y="553" type="qcurve"/>
      <point x="367" y="559"/>
      <point x="390" y="564"/>
      <point x="404" y="564" type="qcurve" smooth="yes"/>
      <point x="413" y="564"/>
      <point x="435" y="561"/>
      <point x="443" y="558" type="qcurve"/>
      <point x="405" y="428"/>
      <point x="373" y="4"/>
    </contour>
    <contour>
      <point x="115" y="201" type="qcurve" smooth="yes"/>
      <point x="115" y="114"/>
      <point x="165" y="9"/>
      <point x="205" y="9" type="qcurve" smooth="yes"/>
      <point x="244" y="9"/>
      <point x="292" y="72"/>
      <point x="309" y="142" type="qcurve"/>
      <point x="310" y="211"/>
      <point x="324" y="373"/>
      <point x="334" y="446" type="qcurve"/>
      <point x="320" y="452"/>
      <point x="290" y="457"/>
      <point x="270" y="457" type="qcurve" smooth="yes"/>
      <point x="201" y="457"/>
      <point x="115" y="321"/>
    </contour>
  </outline>
</glyph>
<glyph name="r" format="1">
  <advance width="359"/>
  <unicode hex="0072"/>
  <outline>
    <contour>
      <point x="148" y="-2" type="qcurve"/>
      <point x="140" y="-5"/>
      <point x="118" y="-9"/>
      <point x="107" y="-9" type="qcurve" smooth="yes"/>
      <point x="99" y="-10"/>
      <point x="86" y="-8"/>
      <point x="80" y="-6" type="qcurve"/>
      <point x="55" y="121"/>
      <point x="38" y="399"/>
      <point x="45" y="540" type="qcurve"/>
      <point x="52" y="543"/>
      <point x="72" y="546"/>
      <point x="92" y="546" type="qcurve" smooth="yes"/>
      <point x="102" y="546"/>
      <point x="121" y="543"/>
      <point x="131" y="540" type="qcurve"/>
      <point x="125" y="497"/>
      <point x="119" y="437"/>
      <point x="118" y="410" type="qcurve"/>
      <point x="141" y="488"/>
      <point x="217" y="578"/>
      <point x="258" y="578" type="qcurve" smooth="yes"/>
      <point x="298" y="578"/>
      <point x="336" y="519"/>
      <point x="336" y="458" type="qcurve" smooth="yes"/>
      <point x="336" y="446"/>
      <point x="334" y="418"/>
      <point x="333" y="402" type="qcurve"/>
      <point x="321" y="399"/>
      <point x="288" y="396"/>
      <point x="269" y="397" type="qcurve"/>
      <point x="271" y="412"/>
      <point x="273" y="439"/>
      <point x="273" y="452" type="qcurve" smooth="yes"/>
      <point x="273" y="484"/>
      <point x="257" y="515"/>
      <point x="241" y="515" type="qcurve" smooth="yes"/>
      <point x="207" y="515"/>
      <point x="139" y="372"/>
      <point x="119" y="258" type="qcurve"/>
      <point x="122" y="201"/>
      <point x="136" y="72"/>
    </contour>
  </outline>
</glyph>
<glyph name="t" format="1">
  <advance width="371"/>
  <unicode hex="0074"/>
  <outline>
    <contour>
      <point x="272" y="207" type="qcurve"/>
      <point x="288" y="205"/>
      <point x="319" y="196"/>
      <point x="330" y="189" type="qcurve"/>
      <point x="328" y="105"/>
      <point x="265" y="10"/>
      <point x="211" y="10" type="qcurve" smooth="yes"/>
      <point x="148" y="10"/>
      <point x="84" y="153"/>
      <point x="84" y="293" type="qcurve" smooth="yes"/>
      <point x="84" y="339"/>
      <point x="90" y="431"/>
      <point x="96" y="479" type="qcurve"/>
      <point x="77" y="480"/>
      <point x="40" y="486"/>
      <point x="21" y="490" type="qcurve"/>
      <point x="22" y="504"/>
      <point x="28" y="530"/>
      <point x="33" y="541" type="qcurve"/>
      <point x="52" y="537"/>
      <point x="86" y="531"/>
      <point x="103" y="530" type="qcurve"/>
      <point x="107" y="556"/>
      <point x="120" y="617"/>
      <point x="131" y="662" type="qcurve"/>
      <point x="152" y="661"/>
      <point x="193" y="654"/>
      <point x="212" y="648" type="qcurve"/>
      <point x="202" y="615"/>
      <point x="186" y="553"/>
      <point x="181" y="524" type="qcurve"/>
      <point x="221" y="523"/>
      <point x="297" y="526"/>
      <point x="333" y="529" type="qcurve"/>
      <point x="333" y="519"/>
      <point x="328" y="494"/>
      <point x="324" y="480" type="qcurve"/>
      <point x="287" y="476"/>
      <point x="210" y="473"/>
      <point x="172" y="474" type="qcurve"/>
      <point x="165" y="427"/>
      <point x="157" y="329"/>
      <point x="157" y="282" type="qcurve" smooth="yes"/>
      <point x="157" y="176"/>
      <point x="188" y="65"/>
      <point x="217" y="65" type="qcurve" smooth="yes"/>
      <point x="244" y="65"/>
      <point x="271" y="134"/>
    </contour>
  </outline>
</glyph>
<glyph name="v" format="1">
  <advance width="437"/>
  <unicode hex="0076"/>
  <outline>
    <contour>
      <point x="406" y="511" type="qcurve"/>
      <point x="370" y="361"/>
      <point x="292" y="151"/>
      <point x="222" y="14" type="qcurve"/>
      <point x="215" y="11"/>
      <point x="190" y="9"/>
      <point x="162" y="9" type="qcurve"/>
      <point x="134" y="158"/>
      <point x="56" y="424"/>
      <point x="5" y="545" type="qcurve"/>
      <point x="22" y="555"/>
      <point x="64" y="566"/>
      <point x="87" y="568" type="qcurve"/>
      <point x="123" y="468"/>
      <point x="179" y="254"/>
      <point x="208" y="106" type="qcurve"/>
      <point x="257" y="219"/>
      <point x="323" y="439"/>
      <point x="336" y="534" type="qcurve"/>
      <point x="353" y="532"/>
      <point x="390" y="520"/>
    </contour>
  </outline>
</glyph>
<glyph name="w" format="1">
  <advance width="660"/>
  <unicode hex="0077"/>
  <outline>
    <contour>
      <point x="453" y="-25" type="qcurve"/>
      <point x="441" y="-28"/>
      <point x="406" y="-34"/>
      <point x="393" y="-35" type="qcurve"/>
      <point x="377" y="76"/>
      <point x="339" y="252"/>
      <point x="313" y="336" type="qcurve"/>
      <point x="290" y="248"/>
      <point x="239" y="106"/>
      <point x="201" y="19" type="qcurve"/>
      <point x="189" y="15"/>
      <point x="152" y="9"/>
      <point x="136" y="8" type="qcurve"/>
      <point x="86" y="141"/>
      <point x="28" y="388"/>
      <point x="13" y="532" type="qcurve"/>
      <point x="30" y="539"/>
      <point x="68" y="546"/>
      <point x="89" y="547" type="qcurve"/>
      <point x="101" y="410"/>
      <point x="142" y="198"/>
      <point x="176" y="92" type="qcurve"/>
      <point x="213" y="180"/>
      <point x="263" y="355"/>
      <point x="280" y="461" type="qcurve"/>
      <point x="301" y="466"/>
      <point x="332" y="471"/>
      <point x="346" y="470" type="qcurve"/>
      <point x="376" y="389"/>
      <point x="424" y="183"/>
      <point x="440" y="70" type="qcurve"/>
      <point x="489" y="188"/>
      <point x="552" y="403"/>
      <point x="564" y="496" type="qcurve"/>
      <point x="580" y="494"/>
      <point x="613" y="483"/>
      <point x="634" y="471" type="qcurve"/>
      <point x="596" y="314"/>
      <point x="519" y="105"/>
    </contour>
  </outline>
</glyph>
<glyph name="y" format="1">
  <advance width="445"/>
  <unicode hex="0079"/>
  <outline>
    <contour>
      <point x="386" y="194" type="qcurve" smooth="yes"/>
      <point x="386" y="-7"/>
      <point x="285" y="-221"/>
      <point x="196" y="-221" type="qcurve" smooth="yes"/>
      <point x="136" y="-221"/>
      <point x="58" y="-137"/>
      <point x="45" y="-61" type="qcurve"/>
      <point x="62" y="-50"/>
      <point x="97" y="-34"/>
      <point x="116" y="-30" type="qcurve"/>
      <point x="127" y="-103"/>
      <point x="166" y="-166"/>
      <point x="201" y="-166" type="qcurve" smooth="yes"/>
      <point x="246" y="-166"/>
      <point x="301" y="-32"/>
      <point x="307" y="96" type="qcurve"/>
      <point x="283" y="57"/>
      <point x="223" y="18"/>
      <point x="188" y="18" type="qcurve" smooth="yes"/>
      <point x="122" y="18"/>
      <point x="39" y="144"/>
      <point x="39" y="247" type="qcurve" smooth="yes"/>
      <point x="39" y="315"/>
      <point x="58" y="434"/>
      <point x="89" y="531" type="qcurve"/>
      <point x="106" y="530"/>
      <point x="145" y="523"/>
      <point x="160" y="518" type="qcurve"/>
      <point x="135" y="425"/>
      <point x="117" y="313"/>
      <point x="117" y="249" type="qcurve" smooth="yes"/>
      <point x="117" y="175"/>
      <point x="167" y="83"/>
      <point x="209" y="83" type="qcurve" smooth="yes"/>
      <point x="239" y="83"/>
      <point x="289" y="137"/>
      <point x="309" y="193" type="qcurve"/>
      <point x="308" y="283"/>
      <point x="289" y="431"/>
      <point x="268" y="497" type="qcurve"/>
      <point x="283" y="509"/>
      <point x="330" y="519"/>
      <point x="352" y="515" type="qcurve"/>
      <point x="367" y="453"/>
      <point x="386" y="274"/>
    </contour>
  </outline>
</glyph>
<glyph name="sterling" format="1">
  <advance width="429"/>
  <unicode hex="00A3"/>
  <outline>
    <contour>
      <point x="192" y="3" type="qcurve" smooth="yes"/>
      <point x="161" y="7"/>
      <point x="133" y="9"/>
      <point x="121" y="9" type="qcurve" smooth="yes"/>
      <point x="103" y="9"/>
      <point x="65" y="0"/>
      <point x="39" y="-11" type="qcurve"/>
      <point x="32" y="-1"/>
      <point x="24" y="21"/>
      <point x="23" y="35" type="qcurve"/>
      <point x="43" y="45"/>
      <point x="88" y="58"/>
      <point x="111" y="60" type="qcurve"/>
      <point x="139" y="80"/>
      <point x="165" y="130"/>
      <point x="165" y="161" type="qcurve" smooth="yes"/>
      <point x="165" y="182"/>
      <point x="155" y="217"/>
      <point x="144" y="237" type="qcurve"/>
      <point x="106" y="236"/>
      <point x="47" y="237"/>
      <point x="25" y="238" type="qcurve"/>
      <point x="22" y="265"/>
      <point x="23" y="283"/>
      <point x="25" y="290" type="qcurve"/>
      <point x="41" y="288"/>
      <point x="83" y="286"/>
      <point x="109" y="286" type="qcurve"/>
      <point x="70" y="339"/>
      <point x="38" y="428"/>
      <point x="38" y="474" type="qcurve" smooth="yes"/>
      <point x="38" y="560"/>
      <point x="143" y="673"/>
      <point x="225" y="673" type="qcurve" smooth="yes"/>
      <point x="309" y="673"/>
      <point x="397" y="551"/>
      <point x="395" y="434" type="qcurve"/>
      <point x="378" y="431"/>
      <point x="342" y="432"/>
      <point x="322" y="437" type="qcurve"/>
      <point x="326" y="528"/>
      <point x="277" y="618"/>
      <point x="224" y="618" type="qcurve" smooth="yes"/>
      <point x="174" y="618"/>
      <point x="116" y="540"/>
      <point x="116" y="473" type="qcurve" smooth="yes"/>
      <point x="116" y="447"/>
      <point x="125" y="398"/>
      <point x="134" y="375" type="qcurve" smooth="yes"/>
      <point x="139" y="364"/>
      <point x="151" y="340"/>
      <point x="183" y="288" type="qcurve"/>
      <point x="239" y="292"/>
      <point x="331" y="302"/>
      <point x="368" y="308" type="qcurve"/>
      <point x="369" y="304"/>
      <point x="369" y="294"/>
      <point x="369" y="285" type="qcurve" smooth="yes"/>
      <point x="368" y="271"/>
      <point x="365" y="259"/>
      <point x="364" y="255" type="qcurve"/>
      <point x="329" y="250"/>
      <point x="250" y="242"/>
      <point x="209" y="240" type="qcurve"/>
      <point x="216" y="224"/>
      <point x="222" y="190"/>
      <point x="222" y="173" type="qcurve" smooth="yes"/>
      <point x="222" y="140"/>
      <point x="195" y="82"/>
      <point x="166" y="56" type="qcurve"/>
      <point x="193" y="52"/>
      <point x="231" y="50"/>
      <point x="251" y="50" type="qcurve" smooth="yes"/>
      <point x="288" y="50"/>
      <point x="368" y="61"/>
      <point x="408" y="71" type="qcurve"/>
      <point x="416" y="52"/>
      <point x="421" y="18"/>
      <point x="418" y="-1" type="qcurve"/>
      <point x="364" y="-7"/>
      <point x="265" y="-7"/>
    </contour>
  </outline>
</glyph>
<glyph name="currency" format="1">
  <advance width="565"/>
  <unicode hex="00A4"/>
  <outline>
    <contour>
      <point x="392" y="372" type="qcurve" smooth="yes"/>
      <point x="392" y="455"/>
      <point x="341" y="542"/>
      <point x="292" y="542" type="qcurve" smooth="yes"/>
      <point x="238" y="542"/>
      <point x="172" y="436"/>
      <point x="172" y="350" type="qcurve" smooth="yes"/>
      <point x="172" y="272"/>
      <point x="233" y="170"/>
      <point x="279" y="170" type="qcurve" smooth="yes"/>
      <point x="327" y="170"/>
      <point x="392" y="289"/>
    </contour>
    <contour>
      <point x="406" y="194" type="qcurve"/>
      <point x="381" y="158"/>
      <point x="311" y="121"/>
      <point x="269" y="121" type="qcurve" smooth="yes"/>
      <point x="236" y="121"/>
      <point x="179" y="146"/>
      <point x="157" y="171" type="qcurve"/>
      <point x="136" y="142"/>
      <point x="88" y="87"/>
      <point x="63" y="64" type="qcurve"/>
      <point x="50" y="69"/>
      <point x="23" y="89"/>
      <point x="13" y="101" type="qcurve"/>
      <point x="48" y="132"/>
      <point x="102" y="190"/>
      <point x="125" y="223" type="qcurve"/>
      <point x="114" y="248"/>
      <point x="103" y="308"/>
      <point x="103" y="339" type="qcurve" smooth="yes"/>
      <point x="103" y="390"/>
      <point x="125" y="475"/>
      <point x="147" y="508" type="qcurve"/>
      <point x="121" y="531"/>
      <point x="72" y="586"/>
      <point x="52" y="614" type="qcurve"/>
      <point x="58" y="627"/>
      <point x="79" y="652"/>
      <point x="93" y="661" type="qcurve"/>
      <point x="122" y="619"/>
      <point x="161" y="572"/>
      <point x="184" y="550" type="qcurve"/>
      <point x="209" y="570"/>
      <point x="268" y="591"/>
      <point x="302" y="591" type="qcurve" smooth="yes"/>
      <point x="334" y="591"/>
      <point x="389" y="569"/>
      <point x="410" y="547" type="qcurve"/>
      <point x="434" y="580"/>
      <point x="478" y="632"/>
      <point x="500" y="652" type="qcurve"/>
      <point x="511" y="648"/>
      <point x="535" y="630"/>
      <point x="547" y="615" type="qcurve"/>
      <point x="518" y="589"/>
      <point x="467" y="534"/>
      <point x="442" y="500" type="qcurve"/>
      <point x="451" y="479"/>
      <point x="461" y="429"/>
      <point x="461" y="401" type="qcurve" smooth="yes"/>
      <point x="461" y="357"/>
      <point x="447" y="276"/>
      <point x="433" y="242" type="qcurve"/>
      <point x="464" y="214"/>
      <point x="517" y="158"/>
      <point x="538" y="130" type="qcurve"/>
      <point x="532" y="119"/>
      <point x="511" y="98"/>
      <point x="495" y="88" type="qcurve"/>
      <point x="463" y="133"/>
      <point x="428" y="173"/>
    </contour>
  </outline>
</glyph>
<glyph name="yen" format="1">
  <advance width="477"/>
  <unicode hex="00A5"/>
  <outline>
    <contour>
      <point x="252" y="-41" type="qcurve"/>
      <point x="238" y="-44"/>
      <point x="204" y="-47"/>
      <point x="188" y="-47" type="qcurve"/>
      <point x="192" y="12"/>
      <point x="196" y="108"/>
      <point x="197" y="151" type="qcurve"/>
      <point x="154" y="152"/>
      <point x="84" y="156"/>
      <point x="51" y="159" type="qcurve"/>
      <point x="51" y="177"/>
      <point x="53" y="204"/>
      <point x="56" y="213" type="qcurve"/>
      <point x="93" y="209"/>
      <point x="162" y="205"/>
      <point x="197" y="204" type="qcurve"/>
      <point x="197" y="211"/>
      <point x="196" y="226"/>
      <point x="196" y="242" type="qcurve" smooth="yes"/>
      <point x="196" y="257"/>
      <point x="195" y="272"/>
      <point x="195" y="279" type="qcurve"/>
      <point x="195" y="280"/>
      <point x="194" y="283"/>
      <point x="193" y="284" type="qcurve"/>
      <point x="158" y="284"/>
      <point x="89" y="287"/>
      <point x="54" y="291" type="qcurve"/>
      <point x="54" y="309"/>
      <point x="56" y="336"/>
      <point x="59" y="345" type="qcurve"/>
      <point x="95" y="341"/>
      <point x="149" y="338"/>
      <point x="173" y="337" type="qcurve"/>
      <point x="143" y="413"/>
      <point x="72" y="552"/>
      <point x="21" y="635" type="qcurve"/>
      <point x="27" y="642"/>
      <point x="42" y="653"/>
      <point x="51" y="657" type="qcurve" smooth="yes"/>
      <point x="57" y="660"/>
      <point x="73" y="666"/>
      <point x="84" y="670" type="qcurve"/>
      <point x="135" y="578"/>
      <point x="200" y="432"/>
      <point x="233" y="335" type="qcurve"/>
      <point x="287" y="425"/>
      <point x="358" y="581"/>
      <point x="390" y="680" type="qcurve"/>
      <point x="404" y="679"/>
      <point x="429" y="667"/>
      <point x="449" y="652" type="qcurve"/>
      <point x="423" y="572"/>
      <point x="353" y="429"/>
      <point x="296" y="337" type="qcurve"/>
      <point x="322" y="338"/>
      <point x="383" y="343"/>
      <point x="428" y="348" type="qcurve"/>
      <point x="429" y="343"/>
      <point x="428" y="325"/>
      <point x="428" y="323" type="qcurve" smooth="yes"/>
      <point x="427" y="316"/>
      <point x="423" y="303"/>
      <point x="420" y="296" type="qcurve"/>
      <point x="377" y="291"/>
      <point x="302" y="285"/>
      <point x="266" y="284" type="qcurve"/>
      <point x="267" y="265"/>
      <point x="267" y="225"/>
      <point x="266" y="205" type="qcurve"/>
      <point x="300" y="206"/>
      <point x="376" y="211"/>
      <point x="422" y="216" type="qcurve"/>
      <point x="422" y="206"/>
      <point x="422" y="196"/>
      <point x="421" y="191" type="qcurve" smooth="yes"/>
      <point x="420" y="186"/>
      <point x="417" y="172"/>
      <point x="414" y="163" type="qcurve"/>
      <point x="363" y="158"/>
      <point x="294" y="154"/>
      <point x="265" y="153" type="qcurve"/>
      <point x="263" y="93"/>
      <point x="257" y="2"/>
    </contour>
  </outline>
</glyph>
<glyph name="brokenbar" format="1">
  <advance width="269"/>
  <unicode hex="00A6"/>
  <outline>
    <contour>
      <point x="170" y="725" type="qcurve"/>
      <point x="166" y="650"/>
      <point x="162" y="470"/>
      <point x="162" y="376" type="qcurve"/>
      <point x="148" y="373"/>
      <point x="115" y="370"/>
      <point x="96" y="371" type="qcurve"/>
      <point x="94" y="447"/>
      <point x="93" y="614"/>
      <point x="94" y="713" type="qcurve"/>
      <point x="109" y="721"/>
      <point x="150" y="727"/>
    </contour>
    <contour>
      <point x="171" y="-163" type="qcurve"/>
      <point x="160" y="-166"/>
      <point x="125" y="-171"/>
      <point x="114" y="-170" type="qcurve"/>
      <point x="109" y="-94"/>
      <point x="102" y="90"/>
      <point x="99" y="221" type="qcurve"/>
      <point x="114" y="223"/>
      <point x="146" y="223"/>
      <point x="162" y="220" type="qcurve"/>
      <point x="163" y="122"/>
      <point x="167" y="-80"/>
    </contour>
  </outline>
</glyph>
<glyph name="dieresis" format="1">
  <advance width="260"/>
  <unicode hex="00A8"/>
  <outline>
    <component base="dotaccent" xOffset="-74"/>
    <component base="dotaccent" xOffset="52"/>
    <contour>
      <point x="123" y="560" type="move" name="_top"/>
    </contour>
  </outline>
</glyph>
<glyph name="copyright" format="1">
  <advance width="747"/>
  <unicode hex="00A9"/>
  <outline>
    <contour>
      <point x="400" y="699" type="qcurve" smooth="yes"/>
      <point x="544" y="699"/>
      <point x="705" y="507"/>
      <point x="705" y="341" type="qcurve" smooth="yes"/>
      <point x="705" y="172"/>
      <point x="524" y="-21"/>
      <point x="366" y="-21" type="qcurve" smooth="yes"/>
      <point x="220" y="-21"/>
      <point x="42" y="165"/>
      <point x="42" y="318" type="qcurve" smooth="yes"/>
      <point x="42" y="490"/>
      <point x="239" y="699"/>
    </contour>
    <contour>
      <point x="374" y="31" type="qcurve" smooth="yes"/>
      <point x="501" y="31"/>
      <point x="639" y="194"/>
      <point x="639" y="343" type="qcurve" smooth="yes"/>
      <point x="639" y="485"/>
      <point x="507" y="646"/>
      <point x="388" y="646" type="qcurve" smooth="yes"/>
      <point x="271" y="646"/>
      <point x="108" y="463"/>
      <point x="108" y="329" type="qcurve" smooth="yes"/>
      <point x="108" y="191"/>
      <point x="251" y="31"/>
    </contour>
    <contour>
      <point x="448" y="284" type="qcurve"/>
      <point x="464" y="285"/>
      <point x="491" y="280"/>
      <point x="500" y="275" type="qcurve"/>
      <point x="496" y="211"/>
      <point x="429" y="143"/>
      <point x="369" y="143" type="qcurve" smooth="yes"/>
      <point x="307" y="143"/>
      <point x="238" y="230"/>
      <point x="238" y="310" type="qcurve" smooth="yes"/>
      <point x="238" y="408"/>
      <point x="330" y="536"/>
      <point x="403" y="536" type="qcurve"/>
      <point x="451" y="536"/>
      <point x="501" y="475"/>
      <point x="502" y="415" type="qcurve"/>
      <point x="490" y="408"/>
      <point x="463" y="402"/>
      <point x="440" y="402" type="qcurve"/>
      <point x="442" y="449"/>
      <point x="418" y="493"/>
      <point x="391" y="493" type="qcurve"/>
      <point x="357" y="493"/>
      <point x="309" y="397"/>
      <point x="309" y="325" type="qcurve" smooth="yes"/>
      <point x="309" y="258"/>
      <point x="347" y="187"/>
      <point x="383" y="187" type="qcurve" smooth="yes"/>
      <point x="416" y="187"/>
      <point x="451" y="239"/>
    </contour>
  </outline>
</glyph>
<glyph name="ordfeminine" format="1">
  <advance width="255"/>
  <unicode hex="00AA"/>
  <outline>
    <contour>
      <point x="230" y="628" type="qcurve" smooth="yes"/>
      <point x="230" y="593"/>
      <point x="210" y="474"/>
      <point x="196" y="422" type="qcurve"/>
      <point x="185" y="422"/>
      <point x="158" y="426"/>
      <point x="144" y="429" type="qcurve"/>
      <point x="146" y="437"/>
      <point x="149" y="452"/>
      <point x="150" y="459" type="qcurve"/>
      <point x="139" y="452"/>
      <point x="111" y="445"/>
      <point x="95" y="445" type="qcurve" smooth="yes"/>
      <point x="55" y="445"/>
      <point x="6" y="486"/>
      <point x="6" y="520" type="qcurve" smooth="yes"/>
      <point x="6" y="556"/>
      <point x="67" y="593"/>
      <point x="127" y="593" type="qcurve" smooth="yes"/>
      <point x="147" y="593"/>
      <point x="160" y="593"/>
      <point x="166" y="592" type="qcurve"/>
      <point x="166" y="597"/>
      <point x="166" y="606"/>
      <point x="166" y="611" type="qcurve" smooth="yes"/>
      <point x="166" y="658"/>
      <point x="148" y="698"/>
      <point x="127" y="698" type="qcurve" smooth="yes"/>
      <point x="106" y="698"/>
      <point x="78" y="657"/>
      <point x="77" y="626" type="qcurve"/>
      <point x="56" y="627"/>
      <point x="29" y="641"/>
      <point x="22" y="653" type="qcurve"/>
      <point x="31" y="689"/>
      <point x="92" y="736"/>
      <point x="133" y="736" type="qcurve" smooth="yes"/>
      <point x="181" y="736"/>
      <point x="230" y="681"/>
    </contour>
    <contour>
      <point x="71" y="517" type="qcurve" smooth="yes"/>
      <point x="71" y="499"/>
      <point x="93" y="479"/>
      <point x="112" y="479" type="qcurve" smooth="yes"/>
      <point x="124" y="479"/>
      <point x="146" y="486"/>
      <point x="156" y="493" type="qcurve"/>
      <point x="159" y="506"/>
      <point x="163" y="535"/>
      <point x="165" y="562" type="qcurve"/>
      <point x="118" y="564"/>
      <point x="71" y="541"/>
    </contour>
  </outline>
</glyph>
<glyph name="guillemotleft" format="1">
  <advance width="471"/>
  <unicode hex="00AB"/>
  <outline>
    <contour>
      <point x="444" y="111" type="qcurve"/>
      <point x="430" y="90"/>
      <point x="409" y="70"/>
      <point x="395" y="63" type="qcurve"/>
      <point x="336" y="108"/>
      <point x="249" y="206"/>
      <point x="217" y="264" type="qcurve"/>
      <point x="264" y="293"/>
      <point x="352" y="384"/>
      <point x="390" y="442" type="qcurve"/>
      <point x="410" y="429"/>
      <point x="433" y="409"/>
      <point x="441" y="397" type="qcurve"/>
      <point x="404" y="349"/>
      <point x="331" y="279"/>
      <point x="291" y="252" type="qcurve"/>
      <point x="320" y="214"/>
      <point x="397" y="143"/>
    </contour>
    <contour>
      <point x="235" y="111" type="qcurve"/>
      <point x="223" y="93"/>
      <point x="201" y="71"/>
      <point x="187" y="63" type="qcurve"/>
      <point x="128" y="108"/>
      <point x="41" y="206"/>
      <point x="9" y="264" type="qcurve"/>
      <point x="55" y="293"/>
      <point x="142" y="383"/>
      <point x="182" y="442" type="qcurve"/>
      <point x="202" y="429"/>
      <point x="225" y="408"/>
      <point x="232" y="397" type="qcurve"/>
      <point x="197" y="352"/>
      <point x="125" y="281"/>
      <point x="83" y="252" type="qcurve"/>
      <point x="111" y="214"/>
      <point x="187" y="143"/>
    </contour>
  </outline>
</glyph>
<glyph name="macron" format="1">
  <advance width="260"/>
  <unicode hex="00AF"/>
  <outline>
    <contour>
      <point x="226" y="637" type="qcurve"/>
      <point x="164" y="630"/>
      <point x="64" y="634"/>
      <point x="31" y="645" type="qcurve"/>
      <point x="30" y="657"/>
      <point x="32" y="690"/>
      <point x="34" y="701" type="qcurve"/>
      <point x="83" y="692"/>
      <point x="180" y="689"/>
      <point x="227" y="695" type="qcurve"/>
      <point x="228" y="682"/>
      <point x="228" y="655"/>
    </contour>
    <contour>
      <point x="127" y="560" type="move" name="_top"/>
    </contour>
  </outline>
</glyph>
<glyph name="degree" format="1">
  <advance width="245"/>
  <unicode hex="00B0"/>
  <outline>
    <contour>
      <point x="10" y="629" type="qcurve" smooth="yes"/>
      <point x="10" y="680"/>
      <point x="75" y="741"/>
      <point x="131" y="741" type="qcurve" smooth="yes"/>
      <point x="179" y="741"/>
      <point x="235" y="690"/>
      <point x="235" y="648" type="qcurve" smooth="yes"/>
      <point x="235" y="589"/>
      <point x="172" y="521"/>
      <point x="117" y="521" type="qcurve" smooth="yes"/>
      <point x="69" y="521"/>
      <point x="10" y="581"/>
    </contour>
    <contour>
      <point x="179" y="639" type="qcurve" smooth="yes"/>
      <point x="179" y="668"/>
      <point x="151" y="700"/>
      <point x="126" y="700" type="qcurve" smooth="yes"/>
      <point x="98" y="700"/>
      <point x="63" y="660"/>
      <point x="63" y="628" type="qcurve" smooth="yes"/>
      <point x="63" y="599"/>
      <point x="94" y="565"/>
      <point x="120" y="565" type="qcurve" smooth="yes"/>
      <point x="145" y="565"/>
      <point x="179" y="606"/>
    </contour>
  </outline>
</glyph>
<glyph name="plusminus" format="1">
  <advance width="364"/>
  <unicode hex="00B1"/>
  <outline>
    <contour>
      <point x="208" y="317" type="qcurve"/>
      <point x="207" y="285"/>
      <point x="203" y="222"/>
      <point x="199" y="191" type="qcurve"/>
      <point x="186" y="189"/>
      <point x="159" y="189"/>
      <point x="146" y="191" type="qcurve"/>
      <point x="149" y="219"/>
      <point x="153" y="278"/>
      <point x="154" y="316" type="qcurve"/>
      <point x="119" y="317"/>
      <point x="55" y="322"/>
      <point x="25" y="326" type="qcurve"/>
      <point x="25" y="340"/>
      <point x="28" y="366"/>
      <point x="31" y="379" type="qcurve"/>
      <point x="63" y="375"/>
      <point x="123" y="371"/>
      <point x="154" y="370" type="qcurve"/>
      <point x="153" y="402"/>
      <point x="150" y="462"/>
      <point x="147" y="493" type="qcurve"/>
      <point x="159" y="496"/>
      <point x="185" y="497"/>
      <point x="199" y="495" type="qcurve"/>
      <point x="203" y="465"/>
      <point x="207" y="403"/>
      <point x="208" y="371" type="qcurve"/>
      <point x="231" y="371"/>
      <point x="290" y="374"/>
      <point x="335" y="378" type="qcurve"/>
      <point x="335" y="364"/>
      <point x="332" y="338"/>
      <point x="329" y="326" type="qcurve"/>
      <point x="300" y="322"/>
      <point x="239" y="318"/>
    </contour>
    <contour>
      <point x="21" y="107" type="qcurve"/>
      <point x="21" y="120"/>
      <point x="23" y="144"/>
      <point x="26" y="161" type="qcurve"/>
      <point x="100" y="152"/>
      <point x="241" y="151"/>
      <point x="330" y="159" type="qcurve"/>
      <point x="330" y="143"/>
      <point x="328" y="118"/>
      <point x="325" y="107" type="qcurve"/>
      <point x="252" y="98"/>
      <point x="95" y="98"/>
    </contour>
  </outline>
</glyph>
<glyph name="acute" format="1">
  <advance width="260"/>
  <unicode hex="00B4"/>
  <outline>
    <contour>
      <point x="182" y="744" type="qcurve"/>
      <point x="177" y="701"/>
      <point x="145" y="616"/>
      <point x="118" y="571" type="qcurve"/>
      <point x="106" y="571"/>
      <point x="82" y="575"/>
      <point x="66" y="579" type="qcurve"/>
      <point x="83" y="625"/>
      <point x="102" y="708"/>
      <point x="106" y="748" type="qcurve"/>
      <point x="124" y="750"/>
      <point x="166" y="748"/>
    </contour>
    <contour>
      <point x="88" y="560" type="move" name="_top"/>
    </contour>
  </outline>
</glyph>
<glyph name="uni00B5" format="1">
  <advance width="443"/>
  <unicode hex="00B5"/>
  <outline>
    <contour>
      <point x="92" y="45" type="qcurve"/>
      <point x="96" y="-21"/>
      <point x="112" y="-147"/>
      <point x="122" y="-195" type="qcurve"/>
      <point x="115" y="-197"/>
      <point x="100" y="-198"/>
      <point x="86" y="-198" type="qcurve" smooth="yes"/>
      <point x="73" y="-198"/>
      <point x="48" y="-193"/>
      <point x="39" y="-188" type="qcurve"/>
      <point x="37" y="-25"/>
      <point x="38" y="126"/>
      <point x="41" y="198" type="qcurve" smooth="yes"/>
      <point x="44" y="275"/>
      <point x="68" y="451"/>
      <point x="82" y="512" type="qcurve"/>
      <point x="97" y="511"/>
      <point x="138" y="504"/>
      <point x="153" y="499" type="qcurve"/>
      <point x="135" y="401"/>
      <point x="119" y="249"/>
      <point x="119" y="182" type="qcurve" smooth="yes"/>
      <point x="119" y="118"/>
      <point x="150" y="63"/>
      <point x="185" y="63" type="qcurve" smooth="yes"/>
      <point x="221" y="63"/>
      <point x="291" y="137"/>
      <point x="316" y="202" type="qcurve"/>
      <point x="319" y="309"/>
      <point x="314" y="487"/>
      <point x="307" y="550" type="qcurve"/>
      <point x="319" y="554"/>
      <point x="359" y="559"/>
      <point x="376" y="559" type="qcurve"/>
      <point x="383" y="459"/>
      <point x="394" y="124"/>
      <point x="394" y="3" type="qcurve"/>
      <point x="384" y="-1"/>
      <point x="354" y="-6"/>
      <point x="341" y="-6" type="qcurve" smooth="yes"/>
      <point x="334" y="-6"/>
      <point x="321" y="-5"/>
      <point x="306" y="-3" type="qcurve"/>
      <point x="308" y="16"/>
      <point x="311" y="69"/>
      <point x="313" y="114" type="qcurve"/>
      <point x="281" y="57"/>
      <point x="208" y="-1"/>
      <point x="168" y="-1" type="qcurve" smooth="yes"/>
      <point x="142" y="-1"/>
      <point x="104" y="22"/>
    </contour>
  </outline>
</glyph>
<glyph name="paragraph" format="1">
  <advance width="644"/>
  <unicode hex="00B6"/>
  <outline>
    <contour>
      <point x="570" y="717" type="qcurve"/>
      <point x="578" y="435"/>
      <point x="566" y="-15"/>
      <point x="544" y="-275" type="qcurve"/>
      <point x="530" y="-278"/>
      <point x="501" y="-280"/>
      <point x="487" y="-279" type="qcurve"/>
      <point x="512" y="112"/>
      <point x="516" y="437"/>
      <point x="505" y="677" type="qcurve"/>
      <point x="496" y="680"/>
      <point x="474" y="686"/>
      <point x="459" y="690" type="qcurve"/>
      <point x="468" y="394"/>
      <point x="456" y="4"/>
      <point x="433" y="-275" type="qcurve"/>
      <point x="420" y="-278"/>
      <point x="389" y="-279"/>
      <point x="376" y="-278" type="qcurve"/>
      <point x="391" y="-35"/>
      <point x="399" y="165"/>
      <point x="399" y="250" type="qcurve"/>
      <point x="229" y="302"/>
      <point x="68" y="455"/>
      <point x="68" y="564" type="qcurve" smooth="yes"/>
      <point x="68" y="656"/>
      <point x="207" y="763"/>
      <point x="329" y="763" type="qcurve" smooth="yes"/>
      <point x="390" y="763"/>
      <point x="494" y="744"/>
    </contour>
  </outline>
</glyph>
<glyph name="cedilla" format="1">
  <advance width="261"/>
  <unicode hex="00B8"/>
  <outline>
    <contour>
      <point x="229" y="-130" type="qcurve" smooth="yes"/>
      <point x="229" y="-173"/>
      <point x="170" y="-225"/>
      <point x="121" y="-225" type="qcurve" smooth="yes"/>
      <point x="83" y="-225"/>
      <point x="30" y="-188"/>
      <point x="17" y="-152" type="qcurve"/>
      <point x="32" y="-142"/>
      <point x="50" y="-133"/>
      <point x="59" y="-129" type="qcurve"/>
      <point x="67" y="-152"/>
      <point x="99" y="-179"/>
      <point x="119" y="-179" type="qcurve" smooth="yes"/>
      <point x="142" y="-179"/>
      <point x="167" y="-156"/>
      <point x="167" y="-135" type="qcurve" smooth="yes"/>
      <point x="167" y="-117"/>
      <point x="142" y="-93"/>
      <point x="123" y="-93" type="qcurve" smooth="yes"/>
      <point x="113" y="-93"/>
      <point x="96" y="-98"/>
      <point x="87" y="-103" type="qcurve"/>
      <point x="79" y="-97"/>
      <point x="64" y="-82"/>
      <point x="61" y="-77" type="qcurve"/>
      <point x="74" y="-56"/>
      <point x="90" y="-13"/>
      <point x="93" y="9" type="qcurve"/>
      <point x="141" y="0" type="line"/>
      <point x="139" y="-14"/>
      <point x="132" y="-41"/>
      <point x="125" y="-55" type="qcurve"/>
      <point x="134" y="-54"/>
      <point x="142" y="-53"/>
      <point x="146" y="-53" type="qcurve" smooth="yes"/>
      <point x="184" y="-53"/>
      <point x="229" y="-95"/>
    </contour>
    <contour>
      <point x="114" y="0" type="move" name="_bottom"/>
    </contour>
  </outline>
</glyph>
<glyph name="onesuperior" format="1">
  <advance width="240"/>
  <unicode hex="00B9"/>
  <outline>
    <contour>
      <point x="156" y="277" type="qcurve"/>
      <point x="142" y="274"/>
      <point x="130" y="272"/>
      <point x="124" y="272" type="qcurve" smooth="yes"/>
      <point x="116" y="271"/>
      <point x="104" y="272"/>
      <point x="99" y="273" type="qcurve"/>
      <point x="100" y="302"/>
      <point x="105" y="353"/>
      <point x="110" y="393" type="qcurve" smooth="yes"/>
      <point x="115" y="450"/>
      <point x="134" y="576"/>
      <point x="146" y="632" type="qcurve"/>
      <point x="124" y="616"/>
      <point x="71" y="581"/>
      <point x="41" y="563" type="qcurve"/>
      <point x="26" y="576"/>
      <point x="11" y="597"/>
      <point x="5" y="610" type="qcurve"/>
      <point x="58" y="636"/>
      <point x="155" y="699"/>
      <point x="197" y="735" type="qcurve"/>
      <point x="211" y="729"/>
      <point x="229" y="718"/>
      <point x="237" y="710" type="qcurve"/>
      <point x="212" y="649"/>
      <point x="166" y="402"/>
    </contour>
  </outline>
</glyph>
<glyph name="guillemotright" format="1">
  <advance width="471"/>
  <unicode hex="00BB"/>
  <outline>
    <contour>
      <point x="461" y="264" type="qcurve"/>
      <point x="430" y="207"/>
      <point x="344" y="109"/>
      <point x="284" y="63" type="qcurve"/>
      <point x="269" y="71"/>
      <point x="247" y="92"/>
      <point x="235" y="111" type="qcurve"/>
      <point x="282" y="143"/>
      <point x="359" y="214"/>
      <point x="388" y="252" type="qcurve"/>
      <point x="348" y="279"/>
      <point x="275" y="349"/>
      <point x="238" y="397" type="qcurve"/>
      <point x="246" y="409"/>
      <point x="270" y="430"/>
      <point x="290" y="443" type="qcurve"/>
      <point x="328" y="385"/>
      <point x="415" y="294"/>
    </contour>
    <contour>
      <point x="253" y="264" type="qcurve"/>
      <point x="221" y="206"/>
      <point x="134" y="108"/>
      <point x="75" y="63" type="qcurve"/>
      <point x="61" y="71"/>
      <point x="39" y="92"/>
      <point x="26" y="111" type="qcurve"/>
      <point x="74" y="143"/>
      <point x="151" y="214"/>
      <point x="179" y="252" type="qcurve"/>
      <point x="136" y="282"/>
      <point x="63" y="353"/>
      <point x="29" y="397" type="qcurve"/>
      <point x="37" y="409"/>
      <point x="61" y="430"/>
      <point x="81" y="443" type="qcurve"/>
      <point x="120" y="384"/>
      <point x="206" y="294"/>
    </contour>
  </outline>
</glyph>
<glyph name="multiply" format="1">
  <advance width="365"/>
  <unicode hex="00D7"/>
  <outline>
    <contour>
      <point x="315" y="214" type="qcurve"/>
      <point x="306" y="204"/>
      <point x="287" y="187"/>
      <point x="274" y="178" type="qcurve"/>
      <point x="251" y="207"/>
      <point x="208" y="257"/>
      <point x="186" y="280" type="qcurve"/>
      <point x="166" y="259"/>
      <point x="96" y="182"/>
      <point x="95" y="181" type="qcurve"/>
      <point x="85" y="188"/>
      <point x="67" y="207"/>
      <point x="59" y="218" type="qcurve"/>
      <point x="90" y="253"/>
      <point x="130" y="299"/>
      <point x="148" y="318" type="qcurve"/>
      <point x="127" y="339"/>
      <point x="79" y="383"/>
      <point x="50" y="407" type="qcurve"/>
      <point x="56" y="414"/>
      <point x="72" y="428"/>
      <point x="88" y="442" type="qcurve"/>
      <point x="114" y="422"/>
      <point x="163" y="380"/>
      <point x="186" y="358" type="qcurve"/>
      <point x="209" y="382"/>
      <point x="256" y="426"/>
      <point x="278" y="446" type="qcurve"/>
      <point x="289" y="438"/>
      <point x="306" y="418"/>
      <point x="314" y="405" type="qcurve"/>
      <point x="293" y="387"/>
      <point x="248" y="344"/>
      <point x="224" y="319" type="qcurve"/>
      <point x="251" y="290"/>
      <point x="296" y="238"/>
    </contour>
  </outline>
</glyph>
<glyph name="germandbls" format="1">
  <advance width="570"/>
  <unicode hex="00DF"/>
  <outline>
    <contour>
      <point x="547" y="119" type="qcurve" smooth="yes"/>
      <point x="547" y="48"/>
      <point x="467" y="-40"/>
      <point x="400" y="-40" type="qcurve" smooth="yes"/>
      <point x="330" y="-40"/>
      <point x="243" y="62"/>
      <point x="242" y="146" type="qcurve"/>
      <point x="257" y="151"/>
      <point x="290" y="156"/>
      <point x="305" y="155" type="qcurve"/>
      <point x="303" y="87"/>
      <point x="354" y="12"/>
      <point x="401" y="12" type="qcurve" smooth="yes"/>
      <point x="436" y="12"/>
      <point x="474" y="60"/>
      <point x="474" y="103" type="qcurve" smooth="yes"/>
      <point x="474" y="137"/>
      <point x="435" y="191"/>
      <point x="370" y="230" type="qcurve" smooth="yes"/>
      <point x="301" y="273"/>
      <point x="258" y="335"/>
      <point x="258" y="374" type="qcurve" smooth="yes"/>
      <point x="258" y="407"/>
      <point x="282" y="463"/>
      <point x="311" y="494" type="qcurve" smooth="yes"/>
      <point x="335" y="520"/>
      <point x="351" y="561"/>
      <point x="351" y="593" type="qcurve" smooth="yes"/>
      <point x="351" y="628"/>
      <point x="311" y="672"/>
      <point x="278" y="672" type="qcurve" smooth="yes"/>
      <point x="220" y="672"/>
      <point x="157" y="558"/>
      <point x="157" y="448" type="qcurve" smooth="yes"/>
      <point x="157" y="327"/>
      <point x="182" y="85"/>
      <point x="204" y="-6" type="qcurve"/>
      <point x="180" y="-14"/>
      <point x="141" y="-21"/>
      <point x="125" y="-21" type="qcurve"/>
      <point x="112" y="39"/>
      <point x="87" y="287"/>
      <point x="86" y="389" type="qcurve"/>
      <point x="67" y="392"/>
      <point x="34" y="401"/>
      <point x="23" y="405" type="qcurve"/>
      <point x="23" y="417"/>
      <point x="28" y="445"/>
      <point x="31" y="449" type="qcurve"/>
      <point x="41" y="447"/>
      <point x="65" y="444"/>
      <point x="87" y="442" type="qcurve"/>
      <point x="93" y="583"/>
      <point x="189" y="727"/>
      <point x="277" y="727" type="qcurve" smooth="yes"/>
      <point x="337" y="727"/>
      <point x="411" y="651"/>
      <point x="411" y="592" type="qcurve" smooth="yes"/>
      <point x="411" y="566"/>
      <point x="390" y="520"/>
      <point x="364" y="494" type="qcurve" smooth="yes"/>
      <point x="341" y="470"/>
      <point x="323" y="428"/>
      <point x="323" y="402" type="qcurve" smooth="yes"/>
      <point x="323" y="370"/>
      <point x="362" y="317"/>
      <point x="426" y="278" type="qcurve" smooth="yes"/>
      <point x="500" y="233"/>
      <point x="547" y="164"/>
    </contour>
  </outline>
</glyph>
<glyph name="ae" format="1">
  <advance width="717"/>
  <unicode hex="00E6"/>
  <outline>
    <contour>
      <point x="401" y="308" type="qcurve"/>
      <point x="430" y="298"/>
      <point x="498" y="287"/>
      <point x="534" y="287" type="qcurve" smooth="yes"/>
      <point x="544" y="287"/>
      <point x="571" y="289"/>
      <point x="578" y="291" type="qcurve"/>
      <point x="585" y="317"/>
      <point x="592" y="368"/>
      <point x="592" y="389" type="qcurve" smooth="yes"/>
      <point x="592" y="433"/>
      <point x="563" y="470"/>
      <point x="531" y="470" type="qcurve" smooth="yes"/>
      <point x="490" y="470"/>
      <point x="419" y="380"/>
    </contour>
    <contour>
      <point x="624" y="165" type="qcurve"/>
      <point x="640" y="162"/>
      <point x="673" y="144"/>
      <point x="685" y="132" type="qcurve"/>
      <point x="666" y="74"/>
      <point x="549" y="-16"/>
      <point x="486" y="-16" type="qcurve" smooth="yes"/>
      <point x="437" y="-16"/>
      <point x="364" y="34"/>
      <point x="341" y="81" type="qcurve"/>
      <point x="307" y="41"/>
      <point x="224" y="2"/>
      <point x="171" y="2" type="qcurve" smooth="yes"/>
      <point x="105" y="2"/>
      <point x="27" y="72"/>
      <point x="27" y="131" type="qcurve" smooth="yes"/>
      <point x="27" y="197"/>
      <point x="139" y="268"/>
      <point x="244" y="268" type="qcurve" smooth="yes"/>
      <point x="261" y="268"/>
      <point x="292" y="267"/>
      <point x="316" y="266" type="qcurve"/>
      <point x="317" y="286"/>
      <point x="316" y="333"/>
      <point x="316" y="335" type="qcurve" smooth="yes"/>
      <point x="316" y="410"/>
      <point x="277" y="478"/>
      <point x="232" y="478" type="qcurve" smooth="yes"/>
      <point x="186" y="478"/>
      <point x="124" y="397"/>
      <point x="122" y="335" type="qcurve"/>
      <point x="95" y="339"/>
      <point x="60" y="357"/>
      <point x="51" y="373" type="qcurve"/>
      <point x="63" y="439"/>
      <point x="173" y="532"/>
      <point x="242" y="532" type="qcurve" smooth="yes"/>
      <point x="292" y="532"/>
      <point x="362" y="474"/>
      <point x="377" y="419" type="qcurve"/>
      <point x="411" y="471"/>
      <point x="494" y="525"/>
      <point x="539" y="525" type="qcurve" smooth="yes"/>
      <point x="597" y="525"/>
      <point x="665" y="449"/>
      <point x="665" y="386" type="qcurve" smooth="yes"/>
      <point x="665" y="351"/>
      <point x="652" y="281"/>
      <point x="641" y="252" type="qcurve"/>
      <point x="620" y="244"/>
      <point x="561" y="237"/>
      <point x="522" y="237" type="qcurve" smooth="yes"/>
      <point x="489" y="237"/>
      <point x="422" y="249"/>
      <point x="392" y="260" type="qcurve"/>
      <point x="390" y="248"/>
      <point x="389" y="225"/>
      <point x="389" y="214" type="qcurve" smooth="yes"/>
      <point x="389" y="135"/>
      <point x="444" y="38"/>
      <point x="491" y="38" type="qcurve" smooth="yes"/>
      <point x="531" y="38"/>
      <point x="610" y="113"/>
    </contour>
    <contour>
      <point x="106" y="129" type="qcurve" smooth="yes"/>
      <point x="106" y="93"/>
      <point x="147" y="53"/>
      <point x="185" y="53" type="qcurve" smooth="yes"/>
      <point x="225" y="53"/>
      <point x="299" y="85"/>
      <point x="328" y="115" type="qcurve"/>
      <point x="321" y="139"/>
      <point x="314" y="190"/>
      <point x="314" y="217" type="qcurve" smooth="yes"/>
      <point x="314" y="219"/>
      <point x="314" y="222"/>
      <point x="314" y="224" type="qcurve"/>
      <point x="212" y="231"/>
      <point x="106" y="182"/>
    </contour>
  </outline>
</glyph>
<glyph name="ccedilla" format="1">
  <advance width="424"/>
  <unicode hex="00E7"/>
  <outline>
    <contour>
      <point x="312" y="-134" type="qcurve" smooth="yes"/>
      <point x="312" y="-178"/>
      <point x="251" y="-229"/>
      <point x="200" y="-229" type="qcurve" smooth="yes"/>
      <point x="162" y="-229"/>
      <point x="110" y="-192"/>
      <point x="97" y="-155" type="qcurve"/>
      <point x="117" y="-143"/>
      <point x="126" y="-138"/>
      <point x="140" y="-132" type="qcurve"/>
      <point x="148" y="-155"/>
      <point x="178" y="-182"/>
      <point x="198" y="-182" type="qcurve" smooth="yes"/>
      <point x="220" y="-182"/>
      <point x="245" y="-158"/>
      <point x="245" y="-138" type="qcurve" smooth="yes"/>
      <point x="245" y="-121"/>
      <point x="220" y="-98"/>
      <point x="200" y="-98" type="qcurve" smooth="yes"/>
      <point x="192" y="-98"/>
      <point x="175" y="-102"/>
      <point x="166" y="-107" type="qcurve"/>
      <point x="158" y="-101"/>
      <point x="143" y="-86"/>
      <point x="140" y="-81" type="qcurve"/>
      <point x="149" y="-66"/>
      <point x="162" y="-37"/>
      <point x="166" y="-22" type="qcurve"/>
      <point x="99" y="-12"/>
      <point x="27" y="104"/>
      <point x="27" y="200" type="qcurve" smooth="yes"/>
      <point x="27" y="347"/>
      <point x="147" y="543"/>
      <point x="239" y="543" type="qcurve" smooth="yes"/>
      <point x="309" y="543"/>
      <point x="387" y="451"/>
      <point x="387" y="370" type="qcurve"/>
      <point x="370" y="362"/>
      <point x="332" y="354"/>
      <point x="311" y="354" type="qcurve"/>
      <point x="311" y="422"/>
      <point x="274" y="490"/>
      <point x="238" y="490" type="qcurve" smooth="yes"/>
      <point x="183" y="490"/>
      <point x="103" y="317"/>
      <point x="103" y="205" type="qcurve" smooth="yes"/>
      <point x="103" y="124"/>
      <point x="158" y="30"/>
      <point x="208" y="30" type="qcurve" smooth="yes"/>
      <point x="246" y="30"/>
      <point x="311" y="93"/>
      <point x="336" y="153" type="qcurve"/>
      <point x="351" y="148"/>
      <point x="375" y="131"/>
      <point x="384" y="120" type="qcurve"/>
      <point x="369" y="66"/>
      <point x="275" y="-16"/>
      <point x="217" y="-23" type="qcurve"/>
      <point x="214" y="-33"/>
      <point x="208" y="-50"/>
      <point x="204" y="-58" type="qcurve"/>
      <point x="213" y="-57"/>
      <point x="221" y="-56"/>
      <point x="225" y="-56" type="qcurve" smooth="yes"/>
      <point x="264" y="-56"/>
      <point x="312" y="-99"/>
    </contour>
  </outline>
</glyph>
<glyph name="eth" format="1">
  <advance width="461"/>
  <unicode hex="00F0"/>
  <outline>
    <contour>
      <point x="393" y="-33" type="qcurve"/>
      <point x="381" y="-37"/>
      <point x="348" y="-42"/>
      <point x="336" y="-42" type="qcurve"/>
      <point x="333" y="-10"/>
      <point x="329" y="55"/>
      <point x="328" y="87" type="qcurve"/>
      <point x="309" y="27"/>
      <point x="247" y="-30"/>
      <point x="200" y="-30" type="qcurve" smooth="yes"/>
      <point x="123" y="-30"/>
      <point x="33" y="114"/>
      <point x="33" y="233" type="qcurve" smooth="yes"/>
      <point x="33" y="364"/>
      <point x="152" y="521"/>
      <point x="251" y="521" type="qcurve" smooth="yes"/>
      <point x="267" y="521"/>
      <point x="301" y="517"/>
      <point x="315" y="513" type="qcurve"/>
      <point x="314" y="524"/>
      <point x="314" y="550"/>
      <point x="314" y="576" type="qcurve"/>
      <point x="285" y="575"/>
      <point x="218" y="578"/>
      <point x="174" y="582" type="qcurve"/>
      <point x="174" y="607"/>
      <point x="175" y="628"/>
      <point x="176" y="635" type="qcurve"/>
      <point x="211" y="631"/>
      <point x="278" y="628"/>
      <point x="313" y="628" type="qcurve"/>
      <point x="313" y="650"/>
      <point x="313" y="694"/>
      <point x="313" y="716" type="qcurve"/>
      <point x="322" y="721"/>
      <point x="350" y="727"/>
      <point x="363" y="727" type="qcurve" smooth="yes"/>
      <point x="371" y="727"/>
      <point x="389" y="724"/>
      <point x="400" y="722" type="qcurve"/>
      <point x="398" y="699"/>
      <point x="396" y="653"/>
      <point x="395" y="631" type="qcurve"/>
      <point x="416" y="632"/>
      <point x="464" y="638"/>
      <point x="502" y="644" type="qcurve"/>
      <point x="503" y="634"/>
      <point x="502" y="607"/>
      <point x="500" y="592" type="qcurve"/>
      <point x="476" y="588"/>
      <point x="423" y="582"/>
      <point x="393" y="579" type="qcurve"/>
      <point x="392" y="526"/>
      <point x="390" y="391"/>
      <point x="390" y="122" type="qcurve" smooth="yes"/>
      <point x="390" y="77"/>
      <point x="391" y="10"/>
    </contour>
    <contour>
      <point x="109" y="244" type="qcurve" smooth="yes"/>
      <point x="109" y="141"/>
      <point x="163" y="28"/>
      <point x="211" y="28" type="qcurve" smooth="yes"/>
      <point x="254" y="28"/>
      <point x="312" y="128"/>
      <point x="322" y="223" type="qcurve"/>
      <point x="320" y="279"/>
      <point x="317" y="399"/>
      <point x="316" y="460" type="qcurve"/>
      <point x="304" y="464"/>
      <point x="276" y="467"/>
      <point x="260" y="467" type="qcurve" smooth="yes"/>
      <point x="192" y="467"/>
      <point x="109" y="348"/>
    </contour>
  </outline>
</glyph>
<glyph name="iogonek" format="1">
  <advance width="206"/>
  <unicode hex="012F"/>
  <outline>
    <contour>
      <point x="194" y="730" type="qcurve"/>
      <point x="184" y="708"/>
      <point x="163" y="647"/>
      <point x="157" y="618" type="qcurve"/>
      <point x="146" y="616"/>
      <point x="112" y="615"/>
      <point x="94" y="616" type="qcurve"/>
      <point x="92" y="625"/>
      <point x="91" y="640"/>
      <point x="91" y="648" type="qcurve" smooth="yes"/>
      <point x="91" y="669"/>
      <point x="100" y="717"/>
      <point x="108" y="734" type="qcurve"/>
      <point x="119" y="739"/>
      <point x="137" y="742"/>
      <point x="150" y="741" type="qcurve" smooth="yes"/>
      <point x="164" y="740"/>
      <point x="185" y="735"/>
    </contour>
    <contour>
      <point x="169" y="-151" type="qcurve"/>
      <point x="149" y="-181"/>
      <point x="101" y="-208"/>
      <point x="69" y="-208" type="qcurve" smooth="yes"/>
      <point x="33" y="-208"/>
      <point x="-11" y="-167"/>
      <point x="-11" y="-134" type="qcurve" smooth="yes"/>
      <point x="-11" y="-99"/>
      <point x="28" y="-37"/>
      <point x="68" y="-8" type="qcurve"/>
      <point x="64" y="-7" type="line"/>
      <point x="47" y="120"/>
      <point x="52" y="391"/>
      <point x="73" y="498" type="qcurve"/>
      <point x="85" y="505"/>
      <point x="110" y="512"/>
      <point x="124" y="512" type="qcurve" smooth="yes"/>
      <point x="132" y="512"/>
      <point x="145" y="510"/>
      <point x="152" y="508" type="qcurve"/>
      <point x="132" y="403"/>
      <point x="116" y="121"/>
      <point x="124" y="-1" type="qcurve"/>
      <point x="123" y="-2"/>
      <point x="120" y="-3"/>
      <point x="116" y="-4" type="qcurve"/>
      <point x="82" y="-36"/>
      <point x="51" y="-90"/>
      <point x="51" y="-118" type="qcurve" smooth="yes"/>
      <point x="51" y="-136"/>
      <point x="69" y="-156"/>
      <point x="85" y="-156" type="qcurve" smooth="yes"/>
      <point x="103" y="-156"/>
      <point x="131" y="-135"/>
      <point x="144" y="-112" type="qcurve"/>
      <point x="152" y="-118"/>
      <point x="164" y="-137"/>
    </contour>
  </outline>
</glyph>
<glyph name="Lslash" format="1">
  <advance width="466"/>
  <unicode hex="0141"/>
  <outline>
    <contour>
      <point x="463" y="-72" type="qcurve"/>
      <point x="369" y="-73"/>
      <point x="212" y="-84"/>
      <point x="111" y="-98" type="qcurve"/>
      <point x="100" y="-16"/>
      <point x="85" y="118"/>
      <point x="80" y="178" type="qcurve"/>
      <point x="58" y="164"/>
      <point x="9" y="135"/>
      <point x="-21" y="118" type="qcurve"/>
      <point x="-32" y="129"/>
      <point x="-48" y="155"/>
      <point x="-54" y="172" type="qcurve"/>
      <point x="-22" y="190"/>
      <point x="42" y="227"/>
      <point x="75" y="248" type="qcurve"/>
      <point x="67" y="357"/>
      <point x="62" y="567"/>
      <point x="64" y="663" type="qcurve"/>
      <point x="80" y="669"/>
      <point x="108" y="674"/>
      <point x="127" y="674" type="qcurve" smooth="yes"/>
      <point x="133" y="674"/>
      <point x="146" y="673"/>
      <point x="153" y="672" type="qcurve"/>
      <point x="148" y="617"/>
      <point x="144" y="490"/>
      <point x="144" y="387" type="qcurve" smooth="yes"/>
      <point x="144" y="371"/>
      <point x="145" y="335"/>
      <point x="146" y="295" type="qcurve"/>
      <point x="186" y="322"/>
      <point x="272" y="385"/>
      <point x="323" y="424" type="qcurve"/>
      <point x="333" y="415"/>
      <point x="349" y="391"/>
      <point x="358" y="372" type="qcurve"/>
      <point x="306" y="332"/>
      <point x="204" y="258"/>
      <point x="150" y="222" type="qcurve"/>
      <point x="153" y="163"/>
      <point x="165" y="39"/>
      <point x="175" y="-29" type="qcurve"/>
      <point x="246" y="-18"/>
      <point x="392" y="-6"/>
      <point x="456" y="-6" type="qcurve"/>
      <point x="459" y="-23"/>
      <point x="463" y="-60"/>
    </contour>
  </outline>
</glyph>
<glyph name="lslash" format="1">
  <advance width="202"/>
  <unicode hex="0142"/>
  <outline>
    <contour>
      <point x="138" y="-53" type="qcurve"/>
      <point x="128" y="-56"/>
      <point x="85" y="-61"/>
      <point x="70" y="-61" type="qcurve"/>
      <point x="64" y="14"/>
      <point x="56" y="165"/>
      <point x="54" y="243" type="qcurve"/>
      <point x="48" y="239"/>
      <point x="35" y="230"/>
      <point x="22" y="220" type="qcurve" smooth="yes"/>
      <point x="2" y="207"/>
      <point x="-17" y="193"/>
      <point x="-26" y="187" type="qcurve"/>
      <point x="-36" y="196"/>
      <point x="-53" y="220"/>
      <point x="-63" y="239" type="qcurve"/>
      <point x="-36" y="257"/>
      <point x="21" y="297"/>
      <point x="52" y="320" type="qcurve"/>
      <point x="50" y="427"/>
      <point x="54" y="628"/>
      <point x="60" y="730" type="qcurve"/>
      <point x="70" y="735"/>
      <point x="95" y="742"/>
      <point x="107" y="742" type="qcurve" smooth="yes"/>
      <point x="117" y="742"/>
      <point x="136" y="739"/>
      <point x="147" y="736" type="qcurve"/>
      <point x="139" y="662"/>
      <point x="130" y="481"/>
      <point x="128" y="378" type="qcurve"/>
      <point x="150" y="395"/>
      <point x="193" y="431"/>
      <point x="215" y="450" type="qcurve"/>
      <point x="225" y="442"/>
      <point x="243" y="419"/>
      <point x="254" y="400" type="qcurve"/>
      <point x="226" y="375"/>
      <point x="164" y="325"/>
      <point x="128" y="297" type="qcurve"/>
      <point x="128" y="216"/>
      <point x="133" y="40"/>
    </contour>
  </outline>
</glyph>
<glyph name="oe" format="1">
  <advance width="764"/>
  <unicode hex="0153"/>
  <outline>
    <contour>
      <point x="216" y="33" type="qcurve" smooth="yes"/>
      <point x="261" y="33"/>
      <point x="329" y="170"/>
      <point x="329" y="266" type="qcurve" smooth="yes"/>
      <point x="329" y="368"/>
      <point x="277" y="468"/>
      <point x="224" y="468" type="qcurve" smooth="yes"/>
      <point x="176" y="468"/>
      <point x="105" y="336"/>
      <point x="105" y="240" type="qcurve" smooth="yes"/>
      <point x="105" y="152"/>
      <point x="165" y="33"/>
    </contour>
    <contour>
      <point x="416" y="300" type="qcurve"/>
      <point x="445" y="289"/>
      <point x="512" y="278"/>
      <point x="550" y="278" type="qcurve" smooth="yes"/>
      <point x="561" y="278"/>
      <point x="587" y="281"/>
      <point x="593" y="283" type="qcurve"/>
      <point x="601" y="313"/>
      <point x="608" y="360"/>
      <point x="608" y="380" type="qcurve" smooth="yes"/>
      <point x="608" y="424"/>
      <point x="579" y="462"/>
      <point x="546" y="462" type="qcurve" smooth="yes"/>
      <point x="505" y="462"/>
      <point x="434" y="372"/>
    </contour>
    <contour>
      <point x="640" y="157" type="qcurve"/>
      <point x="656" y="154"/>
      <point x="689" y="135"/>
      <point x="700" y="123" type="qcurve"/>
      <point x="682" y="67"/>
      <point x="563" y="-25"/>
      <point x="504" y="-25" type="qcurve" smooth="yes"/>
      <point x="452" y="-25"/>
      <point x="376" y="30"/>
      <point x="354" y="83" type="qcurve"/>
      <point x="326" y="31"/>
      <point x="249" y="-22"/>
      <point x="202" y="-22" type="qcurve" smooth="yes"/>
      <point x="123" y="-22"/>
      <point x="29" y="117"/>
      <point x="29" y="230" type="qcurve" smooth="yes"/>
      <point x="29" y="360"/>
      <point x="147" y="523"/>
      <point x="240" y="523" type="qcurve" smooth="yes"/>
      <point x="292" y="523"/>
      <point x="370" y="464"/>
      <point x="390" y="410" type="qcurve"/>
      <point x="423" y="461"/>
      <point x="508" y="516"/>
      <point x="554" y="516" type="qcurve" smooth="yes"/>
      <point x="613" y="516"/>
      <point x="681" y="441"/>
      <point x="681" y="377" type="qcurve" smooth="yes"/>
      <point x="681" y="344"/>
      <point x="668" y="275"/>
      <point x="656" y="243" type="qcurve"/>
      <point x="636" y="236"/>
      <point x="579" y="229"/>
      <point x="537" y="229" type="qcurve" smooth="yes"/>
      <point x="505" y="229"/>
      <point x="438" y="240"/>
      <point x="407" y="251" type="qcurve"/>
      <point x="406" y="240"/>
      <point x="404" y="217"/>
      <point x="404" y="206" type="qcurve" smooth="yes"/>
      <point x="404" y="127"/>
      <point x="459" y="29"/>
      <point x="506" y="29" type="qcurve" smooth="yes"/>
      <point x="546" y="29"/>
      <point x="625" y="105"/>
    </contour>
  </outline>
</glyph>
<glyph name="florin" format="1">
  <advance width="354"/>
  <unicode hex="0192"/>
  <outline>
    <contour>
      <point x="226" y="54" type="qcurve" smooth="yes"/>
      <point x="223" y="-51"/>
      <point x="155" y="-155"/>
      <point x="90" y="-155" type="qcurve" smooth="yes"/>
      <point x="43" y="-155"/>
      <point x="-13" y="-86"/>
      <point x="-13" y="-29" type="qcurve" smooth="yes"/>
      <point x="-13" y="-14"/>
      <point x="-6" y="20"/>
      <point x="0" y="31" type="qcurve"/>
      <point x="15" y="31"/>
      <point x="46" y="25"/>
      <point x="61" y="20" type="qcurve"/>
      <point x="57" y="9"/>
      <point x="52" y="-19"/>
      <point x="52" y="-35" type="qcurve" smooth="yes"/>
      <point x="52" y="-65"/>
      <point x="76" y="-100"/>
      <point x="97" y="-100" type="qcurve" smooth="yes"/>
      <point x="129" y="-100"/>
      <point x="159" y="-30"/>
      <point x="159" y="44" type="qcurve" smooth="yes"/>
      <point x="159" y="132"/>
      <point x="105" y="374"/>
      <point x="104" y="379" type="qcurve"/>
      <point x="80" y="382"/>
      <point x="32" y="391"/>
      <point x="11" y="398" type="qcurve"/>
      <point x="11" y="406"/>
      <point x="16" y="434"/>
      <point x="19" y="443" type="qcurve"/>
      <point x="38" y="440"/>
      <point x="76" y="435"/>
      <point x="96" y="434" type="qcurve"/>
      <point x="94" y="459"/>
      <point x="92" y="484"/>
      <point x="92" y="495" type="qcurve" smooth="yes"/>
      <point x="91" y="607"/>
      <point x="170" y="726"/>
      <point x="243" y="726" type="qcurve" smooth="yes"/>
      <point x="295" y="727"/>
      <point x="356" y="657"/>
      <point x="356" y="601" type="qcurve" smooth="yes"/>
      <point x="356" y="585"/>
      <point x="349" y="550"/>
      <point x="344" y="541" type="qcurve"/>
      <point x="329" y="540"/>
      <point x="297" y="545"/>
      <point x="282" y="551" type="qcurve"/>
      <point x="286" y="562"/>
      <point x="291" y="590"/>
      <point x="291" y="607" type="qcurve" smooth="yes"/>
      <point x="291" y="636"/>
      <point x="262" y="671"/>
      <point x="238" y="671" type="qcurve" smooth="yes"/>
      <point x="203" y="671"/>
      <point x="168" y="595"/>
      <point x="168" y="519" type="qcurve" smooth="yes"/>
      <point x="168" y="497"/>
      <point x="170" y="453"/>
      <point x="173" y="429" type="qcurve"/>
      <point x="184" y="428"/>
      <point x="212" y="428"/>
      <point x="241" y="428" type="qcurve" smooth="yes"/>
      <point x="265" y="428"/>
      <point x="305" y="431"/>
      <point x="323" y="435" type="qcurve"/>
      <point x="323" y="422"/>
      <point x="319" y="388"/>
      <point x="317" y="377" type="qcurve"/>
      <point x="306" y="374"/>
      <point x="265" y="371"/>
      <point x="240" y="371" type="qcurve" smooth="yes"/>
      <point x="215" y="371"/>
      <point x="191" y="371"/>
      <point x="181" y="372" type="qcurve"/>
      <point x="184" y="357"/>
      <point x="230" y="140"/>
    </contour>
  </outline>
</glyph>
<glyph name="circumflex" format="1">
  <advance width="260"/>
  <unicode hex="02C6"/>
  <outline>
    <contour>
      <point x="257" y="610" type="qcurve"/>
      <point x="245" y="598"/>
      <point x="227" y="586"/>
      <point x="216" y="581" type="qcurve"/>
      <point x="185" y="604"/>
      <point x="145" y="643"/>
      <point x="128" y="667" type="qcurve"/>
      <point x="112" y="643"/>
      <point x="71" y="603"/>
      <point x="40" y="580" type="qcurve"/>
      <point x="29" y="585"/>
      <point x="10" y="599"/>
      <point x="0" y="609" type="qcurve"/>
      <point x="40" y="645"/>
      <point x="82" y="700"/>
      <point x="99" y="737" type="qcurve"/>
      <point x="104" y="738"/>
      <point x="120" y="740"/>
      <point x="128" y="740" type="qcurve" smooth="yes"/>
      <point x="133" y="740"/>
      <point x="149" y="739"/>
      <point x="157" y="738" type="qcurve"/>
      <point x="171" y="705"/>
      <point x="212" y="651"/>
    </contour>
    <contour>
      <point x="131" y="560" type="move" name="_top"/>
    </contour>
  </outline>
</glyph>
<glyph name="uni02C9" format="1">
  <advance width="259"/>
  <unicode hex="02C9"/>
  <outline>
    <contour>
      <point x="31" y="645" type="qcurve"/>
      <point x="30" y="657"/>
      <point x="32" y="690"/>
      <point x="34" y="701" type="qcurve"/>
      <point x="83" y="692"/>
      <point x="180" y="689"/>
      <point x="227" y="695" type="qcurve"/>
      <point x="228" y="682"/>
      <point x="228" y="655"/>
      <point x="226" y="637" type="qcurve"/>
      <point x="164" y="630"/>
      <point x="64" y="634"/>
    </contour>
  </outline>
</glyph>
<glyph name="breve" format="1">
  <advance width="260"/>
  <unicode hex="02D8"/>
  <outline>
    <contour>
      <point x="39" y="656" type="qcurve" smooth="yes"/>
      <point x="29" y="671"/>
      <point x="20" y="705"/>
      <point x="21" y="727" type="qcurve"/>
      <point x="33" y="731"/>
      <point x="61" y="735"/>
      <point x="75" y="734" type="qcurve"/>
      <point x="71" y="696"/>
      <point x="98" y="664"/>
      <point x="133" y="664" type="qcurve" smooth="yes"/>
      <point x="167" y="664"/>
      <point x="193" y="701"/>
      <point x="184" y="736" type="qcurve"/>
      <point x="195" y="739"/>
      <point x="224" y="739"/>
      <point x="238" y="737" type="qcurve"/>
      <point x="240" y="711"/>
      <point x="233" y="670"/>
      <point x="224" y="654" type="qcurve" smooth="yes"/>
      <point x="212" y="634"/>
      <point x="166" y="614"/>
      <point x="132" y="614" type="qcurve" smooth="yes"/>
      <point x="102" y="614"/>
      <point x="55" y="635"/>
    </contour>
    <contour>
      <point x="137" y="560" type="move" name="_top"/>
    </contour>
  </outline>
</glyph>
<glyph name="ring" format="1">
  <advance width="260"/>
  <unicode hex="02DA"/>
  <outline>
    <contour>
      <point x="32" y="665" type="qcurve" smooth="yes"/>
      <point x="32" y="711"/>
      <point x="90" y="765"/>
      <point x="139" y="765" type="qcurve" smooth="yes"/>
      <point x="179" y="765"/>
      <point x="226" y="722"/>
      <point x="226" y="685" type="qcurve" smooth="yes"/>
      <point x="226" y="635"/>
      <point x="170" y="577"/>
      <point x="122" y="577" type="qcurve" smooth="yes"/>
      <point x="83" y="577"/>
      <point x="32" y="627"/>
    </contour>
    <contour>
      <point x="169" y="678" type="qcurve" smooth="yes"/>
      <point x="169" y="703"/>
      <point x="149" y="731"/>
      <point x="132" y="731" type="qcurve" smooth="yes"/>
      <point x="112" y="731"/>
      <point x="87" y="695"/>
      <point x="87" y="665" type="qcurve" smooth="yes"/>
      <point x="87" y="642"/>
      <point x="110" y="614"/>
      <point x="127" y="614" type="qcurve" smooth="yes"/>
      <point x="146" y="614"/>
      <point x="169" y="649"/>
    </contour>
    <contour>
      <point x="130" y="560" type="move" name="_top"/>
    </contour>
  </outline>
</glyph>
<glyph name="ogonek" format="1">
  <advance width="261"/>
  <unicode hex="02DB"/>
  <outline>
    <contour>
      <point x="130" y="8" type="qcurve"/>
      <point x="160" y="-1" type="line"/>
      <point x="125" y="-32"/>
      <point x="93" y="-87"/>
      <point x="93" y="-116" type="qcurve" smooth="yes"/>
      <point x="93" y="-134"/>
      <point x="111" y="-154"/>
      <point x="128" y="-154" type="qcurve" smooth="yes"/>
      <point x="145" y="-154"/>
      <point x="174" y="-133"/>
      <point x="187" y="-110" type="qcurve"/>
      <point x="195" y="-116"/>
      <point x="206" y="-134"/>
      <point x="212" y="-149" type="qcurve"/>
      <point x="192" y="-179"/>
      <point x="143" y="-207"/>
      <point x="112" y="-207" type="qcurve" smooth="yes"/>
      <point x="75" y="-207"/>
      <point x="30" y="-166"/>
      <point x="30" y="-132" type="qcurve" smooth="yes"/>
      <point x="30" y="-95"/>
      <point x="79" y="-26"/>
    </contour>
    <contour>
      <point x="144" y="0" type="move" name="_bottom"/>
    </contour>
  </outline>
</glyph>
<glyph name="tilde" format="1">
  <advance width="260"/>
  <unicode hex="02DC"/>
  <outline>
    <contour>
      <point x="133" y="707" type="qcurve" smooth="yes"/>
      <point x="149" y="698"/>
      <point x="165" y="693"/>
      <point x="172" y="693" type="qcurve" smooth="yes"/>
      <point x="187" y="693"/>
      <point x="197" y="711"/>
      <point x="196" y="731" type="qcurve"/>
      <point x="209" y="732"/>
      <point x="230" y="728"/>
      <point x="242" y="722" type="qcurve"/>
      <point x="245" y="681"/>
      <point x="213" y="638"/>
      <point x="180" y="638" type="qcurve" smooth="yes"/>
      <point x="167" y="638"/>
      <point x="141" y="646"/>
      <point x="121" y="658" type="qcurve" smooth="yes"/>
      <point x="106" y="667"/>
      <point x="92" y="672"/>
      <point x="86" y="672" type="qcurve" smooth="yes"/>
      <point x="73" y="672"/>
      <point x="62" y="654"/>
      <point x="63" y="636" type="qcurve"/>
      <point x="52" y="635"/>
      <point x="27" y="639"/>
      <point x="17" y="643" type="qcurve"/>
      <point x="14" y="682"/>
      <point x="46" y="726"/>
      <point x="78" y="726" type="qcurve" smooth="yes"/>
      <point x="90" y="726"/>
      <point x="113" y="719"/>
    </contour>
    <contour>
      <point x="130" y="560" type="move" name="_top"/>
    </contour>
  </outline>
</glyph>
<glyph name="bn_a" format="1">
  <advance width="632"/>
  <unicode hex="0985"/>
  <note>
    uni0985
  </note>
  <outline>
    <contour>
      <point x="569" y="422" type="qcurve" smooth="yes"/>
      <point x="569" y="293"/>
      <point x="531" y="42"/>
      <point x="501" y="-21" type="qcurve"/>
      <point x="486" y="-21"/>
      <point x="455" y="-13"/>
      <point x="444" y="-7" type="qcurve"/>
      <point x="424" y="28"/>
      <point x="383" y="85"/>
      <point x="361" y="107" type="qcurve"/>
      <point x="345" y="98"/>
      <point x="311" y="88"/>
      <point x="292" y="88" type="qcurve" smooth="yes"/>
      <point x="208" y="88"/>
      <point x="69" y="261"/>
      <point x="15" y="433" type="qcurve"/>
      <point x="26" y="443"/>
      <point x="50" y="457"/>
      <point x="61" y="462" type="qcurve"/>
      <point x="110" y="310"/>
      <point x="224" y="158"/>
      <point x="289" y="158" type="qcurve" smooth="yes"/>
      <point x="334" y="158"/>
      <point x="380" y="227"/>
      <point x="380" y="293" type="qcurve" smooth="yes"/>
      <point x="380" y="362"/>
      <point x="336" y="447"/>
      <point x="300" y="447" type="qcurve" smooth="yes"/>
      <point x="278" y="447"/>
      <point x="254" y="410"/>
      <point x="254" y="375" type="qcurve" smooth="yes"/>
      <point x="254" y="357"/>
      <point x="264" y="320"/>
      <point x="273" y="306" type="qcurve"/>
      <point x="256" y="306"/>
      <point x="220" y="312"/>
      <point x="210" y="317" type="qcurve"/>
      <point x="203" y="330"/>
      <point x="196" y="363"/>
      <point x="196" y="381" type="qcurve" smooth="yes"/>
      <point x="196" y="432"/>
      <point x="248" y="498"/>
      <point x="288" y="498" type="qcurve" smooth="yes"/>
      <point x="351" y="498"/>
      <point x="434" y="366"/>
      <point x="434" y="274" type="qcurve" smooth="yes"/>
      <point x="434" y="236"/>
      <point x="416" y="169"/>
      <point x="399" y="144" type="qcurve"/>
      <point x="418" y="120"/>
      <point x="450" y="67"/>
      <point x="464" y="38" type="qcurve"/>
      <point x="484" y="105"/>
      <point x="503" y="289"/>
      <point x="503" y="410" type="qcurve" smooth="yes"/>
      <point x="503" y="445"/>
      <point x="501" y="511"/>
      <point x="498" y="551" type="qcurve"/>
      <point x="454" y="556"/>
      <point x="363" y="562"/>
      <point x="317" y="562" type="qcurve" smooth="yes"/>
      <point x="239" y="562"/>
      <point x="83" y="546"/>
      <point x="0" y="530" type="qcurve"/>
      <point x="-2" y="536"/>
      <point x="-5" y="554"/>
      <point x="-5" y="564" type="qcurve" smooth="yes"/>
      <point x="-5" y="571"/>
      <point x="-2" y="584"/>
      <point x="0" y="589" type="qcurve"/>
      <point x="77" y="606"/>
      <point x="238" y="624"/>
      <point x="320" y="624" type="qcurve" smooth="yes"/>
      <point x="403" y="624"/>
      <point x="569" y="605"/>
      <point x="632" y="589" type="qcurve"/>
      <point x="635" y="583"/>
      <point x="637" y="571"/>
      <point x="637" y="564" type="qcurve" smooth="yes"/>
      <point x="637" y="557"/>
      <point x="635" y="542"/>
      <point x="632" y="530" type="qcurve"/>
      <point x="621" y="532"/>
      <point x="594" y="537"/>
      <point x="566" y="542" type="qcurve"/>
      <point x="568" y="514"/>
      <point x="569" y="454"/>
    </contour>
    <contour>
      <point x="326" y="690" type="move" name="chandrabindu"/>
    </contour>
  </outline>
</glyph>
<glyph name="bn_ri" format="1">
  <advance width="676"/>
  <unicode hex="098B"/>
  <outline>
    <contour>
      <point x="363" y="63" type="qcurve"/>
      <point x="363" y="64" type="line" smooth="yes"/>
      <point x="363" y="152"/>
      <point x="373" y="320"/>
      <point x="383" y="394" type="qcurve"/>
      <point x="327" y="371"/>
      <point x="208" y="299"/>
      <point x="167" y="263" type="qcurve"/>
      <point x="233" y="229"/>
      <point x="332" y="129"/>
    </contour>
    <contour>
      <point x="419" y="64" type="qcurve" smooth="yes"/>
      <point x="419" y="29"/>
      <point x="419" y="-3"/>
      <point x="420" y="-15" type="qcurve"/>
      <point x="410" y="-18"/>
      <point x="382" y="-20"/>
      <point x="366" y="-19" type="qcurve"/>
      <point x="322" y="77"/>
      <point x="199" y="193"/>
      <point x="120" y="215" type="qcurve"/>
      <point x="107" y="233"/>
      <point x="95" y="269"/>
      <point x="94" y="293" type="qcurve"/>
      <point x="132" y="331"/>
      <point x="261" y="414"/>
      <point x="333" y="447" type="qcurve"/>
      <point x="331" y="466"/>
      <point x="313" y="500"/>
      <point x="297" y="515" type="qcurve"/>
      <point x="269" y="476"/>
      <point x="188" y="430"/>
      <point x="148" y="430" type="qcurve" smooth="yes"/>
      <point x="99" y="430"/>
      <point x="39" y="489"/>
      <point x="39" y="540" type="qcurve" smooth="yes"/>
      <point x="39" y="555"/>
      <point x="45" y="582"/>
      <point x="51" y="594" type="qcurve"/>
      <point x="66" y="600"/>
      <point x="103" y="607"/>
      <point x="121" y="606" type="qcurve"/>
      <point x="114" y="596"/>
      <point x="105" y="566"/>
      <point x="104" y="550" type="qcurve" smooth="yes"/>
      <point x="104" y="523"/>
      <point x="131" y="496"/>
      <point x="157" y="496" type="qcurve" smooth="yes"/>
      <point x="190" y="496"/>
      <point x="259" y="538"/>
      <point x="284" y="574" type="qcurve"/>
      <point x="325" y="552" type="line"/>
      <point x="341" y="536"/>
      <point x="367" y="490"/>
      <point x="373" y="465" type="qcurve"/>
      <point x="377" y="467"/>
      <point x="390" y="472"/>
      <point x="393" y="473" type="qcurve"/>
      <point x="395" y="495"/>
      <point x="402" y="543"/>
      <point x="415" y="605" type="qcurve"/>
      <point x="432" y="605"/>
      <point x="465" y="596"/>
      <point x="479" y="588" type="qcurve"/>
      <point x="455" y="505"/>
      <point x="428" y="335"/>
      <point x="423" y="234" type="qcurve"/>
      <point x="460" y="210"/>
      <point x="526" y="143"/>
      <point x="552" y="102" type="qcurve"/>
      <point x="547" y="138"/>
      <point x="541" y="227"/>
      <point x="541" y="278" type="qcurve" smooth="yes"/>
      <point x="541" y="369"/>
      <point x="562" y="525"/>
      <point x="583" y="593" type="qcurve"/>
      <point x="597" y="593"/>
      <point x="626" y="588"/>
      <point x="638" y="583" type="qcurve"/>
      <point x="618" y="527"/>
      <point x="595" y="377"/>
      <point x="595" y="299" type="qcurve" smooth="yes"/>
      <point x="595" y="216"/>
      <point x="619" y="65"/>
      <point x="642" y="6" type="qcurve"/>
      <point x="629" y="-1"/>
      <point x="594" y="-8"/>
      <point x="577" y="-7" type="qcurve"/>
      <point x="543" y="55"/>
      <point x="466" y="145"/>
      <point x="420" y="174" type="qcurve"/>
      <point x="419" y="155"/>
      <point x="419" y="110"/>
    </contour>
    <contour>
      <point x="371" y="690" type="move" name="chandrabindu"/>
    </contour>
  </outline>
</glyph>
<glyph name="bn_e" format="1">
  <advance width="582"/>
  <unicode hex="098F"/>
  <note>
    uni098F
  </note>
  <outline>
    <contour>
      <point x="491" y="-10" type="qcurve"/>
      <point x="479" y="-15"/>
      <point x="447" y="-20"/>
      <point x="431" y="-20" type="qcurve"/>
      <point x="418" y="5"/>
      <point x="402" y="36"/>
      <point x="397" y="41" type="qcurve" smooth="yes"/>
      <point x="385" y="55"/>
      <point x="356" y="69"/>
      <point x="337" y="69" type="qcurve" smooth="yes"/>
      <point x="323" y="69"/>
      <point x="287" y="62"/>
      <point x="247" y="50" type="qcurve" smooth="yes"/>
      <point x="203" y="36"/>
      <point x="159" y="28"/>
      <point x="141" y="28" type="qcurve" smooth="yes"/>
      <point x="87" y="28"/>
      <point x="23" y="98"/>
      <point x="23" y="155" type="qcurve" smooth="yes"/>
      <point x="23" y="186"/>
      <point x="44" y="259"/>
      <point x="63" y="294" type="qcurve"/>
      <point x="78" y="293"/>
      <point x="103" y="285"/>
      <point x="113" y="278" type="qcurve"/>
      <point x="100" y="258"/>
      <point x="84" y="197"/>
      <point x="84" y="172" type="qcurve" smooth="yes"/>
      <point x="84" y="137"/>
      <point x="120" y="100"/>
      <point x="152" y="100" type="qcurve" smooth="yes"/>
      <point x="165" y="100"/>
      <point x="200" y="107"/>
      <point x="237" y="119" type="qcurve" smooth="yes"/>
      <point x="276" y="132"/>
      <point x="315" y="140"/>
      <point x="330" y="140" type="qcurve" smooth="yes"/>
      <point x="365" y="140"/>
      <point x="413" y="99"/>
      <point x="430" y="54" type="qcurve"/>
      <point x="442" y="141"/>
      <point x="456" y="379"/>
      <point x="456" y="506" type="qcurve" smooth="yes"/>
      <point x="456" y="542"/>
      <point x="425" y="583"/>
      <point x="398" y="583" type="qcurve" smooth="yes"/>
      <point x="347" y="583"/>
      <point x="231" y="458"/>
      <point x="231" y="399" type="qcurve" smooth="yes"/>
      <point x="231" y="372"/>
      <point x="260" y="343"/>
      <point x="286" y="343" type="qcurve" smooth="yes"/>
      <point x="307" y="343"/>
      <point x="347" y="364"/>
      <point x="364" y="385" type="qcurve"/>
      <point x="367" y="381"/>
      <point x="370" y="368"/>
      <point x="370" y="358" type="qcurve" smooth="yes"/>
      <point x="370" y="345"/>
      <point x="364" y="319"/>
      <point x="358" y="309" type="qcurve"/>
      <point x="341" y="294"/>
      <point x="297" y="278"/>
      <point x="273" y="278" type="qcurve" smooth="yes"/>
      <point x="222" y="278"/>
      <point x="158" y="340"/>
      <point x="158" y="391" type="qcurve" smooth="yes"/>
      <point x="158" y="431"/>
      <point x="197" y="515"/>
      <point x="232" y="552" type="qcurve" smooth="yes"/>
      <point x="268" y="590"/>
      <point x="352" y="634"/>
      <point x="389" y="634" type="qcurve" smooth="yes"/>
      <point x="444" y="634"/>
      <point x="518" y="549"/>
      <point x="518" y="484" type="qcurve" smooth="yes"/>
      <point x="518" y="342"/>
      <point x="505" y="99"/>
    </contour>
    <contour>
      <point x="372" y="690" type="move" name="chandrabindu"/>
    </contour>
  </outline>
</glyph>
<glyph name="bn_ka" format="1">
  <advance width="607"/>
  <unicode hex="0995"/>
  <outline>
    <contour>
      <point x="360" y="284" type="qcurve" smooth="yes"/>
      <point x="360" y="192"/>
      <point x="369" y="39"/>
      <point x="378" y="-8" type="qcurve"/>
      <point x="365" y="-13"/>
      <point x="329" y="-19"/>
      <point x="308" y="-19" type="qcurve"/>
      <point x="260" y="85"/>
      <point x="138" y="208"/>
      <point x="62" y="228" type="qcurve"/>
      <point x="47" y="244"/>
      <point x="32" y="279"/>
      <point x="29" y="303" type="qcurve"/>
      <point x="72" y="354"/>
      <point x="228" y="464"/>
      <point x="313" y="502" type="qcurve"/>
      <point x="314" y="512"/>
      <point x="316" y="536"/>
      <point x="318" y="561" type="qcurve"/>
      <point x="313" y="561"/>
      <point x="302" y="561"/>
      <point x="297" y="561" type="qcurve" smooth="yes"/>
      <point x="225" y="561"/>
      <point x="77" y="546"/>
      <point x="0" y="530" type="qcurve"/>
      <point x="-2" y="536"/>
      <point x="-5" y="554"/>
      <point x="-5" y="562" type="qcurve" smooth="yes"/>
      <point x="-5" y="570"/>
      <point x="-2" y="584"/>
      <point x="0" y="589" type="qcurve"/>
      <point x="68" y="606"/>
      <point x="223" y="624"/>
      <point x="301" y="624" type="qcurve" smooth="yes"/>
      <point x="382" y="624"/>
      <point x="551" y="605"/>
      <point x="607" y="589" type="qcurve"/>
      <point x="610" y="583"/>
      <point x="613" y="570"/>
      <point x="613" y="564" type="qcurve" smooth="yes"/>
      <point x="613" y="559"/>
      <point x="612" y="550"/>
      <point x="607" y="530" type="qcurve"/>
      <point x="552" y="541"/>
      <point x="430" y="556"/>
      <point x="372" y="559" type="qcurve"/>
      <point x="370" y="534"/>
      <point x="368" y="510"/>
      <point x="367" y="500" type="qcurve"/>
      <point x="465" y="478"/>
      <point x="582" y="367"/>
      <point x="582" y="298" type="qcurve" smooth="yes"/>
      <point x="582" y="250"/>
      <point x="529" y="163"/>
      <point x="489" y="140" type="qcurve"/>
      <point x="474" y="144"/>
      <point x="446" y="174"/>
      <point x="437" y="196" type="qcurve"/>
      <point x="485" y="214"/>
      <point x="536" y="269"/>
      <point x="536" y="303" type="qcurve" smooth="yes"/>
      <point x="536" y="348"/>
      <point x="445" y="412"/>
      <point x="362" y="427" type="qcurve"/>
      <point x="361" y="378"/>
      <point x="360" y="315"/>
    </contour>
    <contour>
      <point x="301" y="79" type="qcurve"/>
      <point x="300" y="108"/>
      <point x="299" y="161"/>
      <point x="299" y="188" type="qcurve" smooth="yes"/>
      <point x="299" y="255"/>
      <point x="302" y="367"/>
      <point x="306" y="422" type="qcurve"/>
      <point x="254" y="397"/>
      <point x="142" y="316"/>
      <point x="104" y="277" type="qcurve"/>
      <point x="165" y="248"/>
      <point x="266" y="147"/>
    </contour>
    <contour>
      <point x="328" y="-2" type="move" name="blwm"/>
    </contour>
    <contour>
      <point x="118" y="0" type="move" name="nukt"/>
    </contour>
    <contour>
      <point x="337" y="690" type="move" name="reph"/>
    </contour>
    <contour>
      <point x="337" y="690" type="move" name="chandrabindu"/>
    </contour>
    <contour>
      <point x="265" y="-1" type="move" name="haln"/>
    </contour>
  </outline>
</glyph>
<glyph name="bn_ga" format="1">
  <advance width="473"/>
  <unicode hex="0997"/>
  <outline>
    <contour>
      <point x="409" y="467" type="qcurve" smooth="yes"/>
      <point x="409" y="320"/>
      <point x="384" y="82"/>
      <point x="357" y="-20" type="qcurve"/>
      <point x="338" y="-20"/>
      <point x="301" y="-15"/>
      <point x="287" y="-10" type="qcurve"/>
      <point x="308" y="53"/>
      <point x="334" y="167"/>
      <point x="341" y="228" type="qcurve"/>
      <point x="341" y="228" type="line"/>
      <point x="345" y="266"/>
      <point x="349" y="325"/>
      <point x="349" y="347" type="qcurve" smooth="yes"/>
      <point x="349" y="435"/>
      <point x="255" y="550"/>
      <point x="191" y="550" type="qcurve" smooth="yes"/>
      <point x="145" y="550"/>
      <point x="92" y="503"/>
      <point x="92" y="462" type="qcurve" smooth="yes"/>
      <point x="92" y="458"/>
      <point x="93" y="450"/>
      <point x="94" y="445" type="qcurve"/>
      <point x="116" y="457"/>
      <point x="159" y="469"/>
      <point x="179" y="469" type="qcurve" smooth="yes"/>
      <point x="221" y="469"/>
      <point x="280" y="407"/>
      <point x="280" y="363" type="qcurve" smooth="yes"/>
      <point x="280" y="321"/>
      <point x="220" y="215"/>
      <point x="159" y="149" type="qcurve"/>
      <point x="142" y="159"/>
      <point x="111" y="188"/>
      <point x="100" y="205" type="qcurve"/>
      <point x="169" y="266"/>
      <point x="233" y="348"/>
      <point x="233" y="374" type="qcurve" smooth="yes"/>
      <point x="233" y="393"/>
      <point x="210" y="413"/>
      <point x="189" y="413" type="qcurve" smooth="yes"/>
      <point x="163" y="413"/>
      <point x="100" y="389"/>
      <point x="71" y="368" type="qcurve"/>
      <point x="42" y="406" type="line"/>
      <point x="38" y="418"/>
      <point x="35" y="445"/>
      <point x="35" y="462" type="qcurve" smooth="yes"/>
      <point x="35" y="530"/>
      <point x="122" y="619"/>
      <point x="190" y="619" type="qcurve" smooth="yes"/>
      <point x="247" y="619"/>
      <point x="334" y="540"/>
      <point x="358" y="467" type="qcurve"/>
      <point x="357" y="474"/>
      <point x="357" y="489"/>
      <point x="357" y="502" type="qcurve" smooth="yes"/>
      <point x="357" y="522"/>
      <point x="374" y="552"/>
      <point x="390" y="561" type="qcurve" smooth="yes"/>
      <point x="406" y="569"/>
      <point x="446" y="583"/>
      <point x="473" y="589" type="qcurve"/>
      <point x="476" y="585"/>
      <point x="479" y="571"/>
      <point x="479" y="561" type="qcurve" smooth="yes"/>
      <point x="479" y="551"/>
      <point x="476" y="534"/>
      <point x="473" y="530" type="qcurve"/>
      <point x="456" y="525"/>
      <point x="438" y="518"/>
      <point x="431" y="515" type="qcurve" smooth="yes"/>
      <point x="419" y="509"/>
      <point x="409" y="487"/>
    </contour>
    <contour>
      <point x="326" y="-1" type="move" name="blwm"/>
    </contour>
    <contour>
      <point x="152" y="0" type="move" name="nukt"/>
    </contour>
    <contour>
      <point x="390" y="690" type="move" name="reph"/>
    </contour>
    <contour>
      <point x="390" y="690" type="move" name="chandrabindu"/>
    </contour>
    <contour>
      <point x="210" y="-1" type="move" name="haln"/>
    </contour>
  </outline>
</glyph>
<glyph name="bn_ca" format="1">
  <advance width="437"/>
  <unicode hex="099A"/>
  <outline>
    <contour>
      <point x="324" y="398" type="qcurve" smooth="yes"/>
      <point x="366" y="379"/>
      <point x="401" y="326"/>
      <point x="401" y="284" type="qcurve" smooth="yes"/>
      <point x="401" y="165"/>
      <point x="273" y="-20"/>
      <point x="188" y="-20" type="qcurve" smooth="yes"/>
      <point x="129" y="-20"/>
      <point x="63" y="70"/>
      <point x="63" y="156" type="qcurve" smooth="yes"/>
      <point x="63" y="219"/>
      <point x="86" y="435"/>
      <point x="104" y="547" type="qcurve"/>
      <point x="74" y="543"/>
      <point x="21" y="534"/>
      <point x="0" y="530" type="qcurve"/>
      <point x="-2" y="537"/>
      <point x="-5" y="554"/>
      <point x="-5" y="563" type="qcurve" smooth="yes"/>
      <point x="-5" y="570"/>
      <point x="-2" y="584"/>
      <point x="0" y="589" type="qcurve"/>
      <point x="41" y="601"/>
      <point x="163" y="617"/>
      <point x="217" y="617" type="qcurve" smooth="yes"/>
      <point x="270" y="617"/>
      <point x="404" y="600"/>
      <point x="437" y="589" type="qcurve"/>
      <point x="439" y="585"/>
      <point x="441" y="572"/>
      <point x="441" y="564" type="qcurve" smooth="yes"/>
      <point x="441" y="556"/>
      <point x="439" y="537"/>
      <point x="437" y="530" type="qcurve"/>
      <point x="398" y="540"/>
      <point x="275" y="554"/>
      <point x="223" y="554" type="qcurve" smooth="yes"/>
      <point x="215" y="554"/>
      <point x="193" y="553"/>
      <point x="171" y="552" type="qcurve"/>
      <point x="188" y="502"/>
      <point x="263" y="427"/>
    </contour>
    <contour>
      <point x="124" y="127" type="qcurve" smooth="yes"/>
      <point x="124" y="77"/>
      <point x="150" y="31"/>
      <point x="179" y="31" type="qcurve" smooth="yes"/>
      <point x="235" y="31"/>
      <point x="332" y="194"/>
      <point x="332" y="287" type="qcurve" smooth="yes"/>
      <point x="332" y="312"/>
      <point x="310" y="341"/>
      <point x="276" y="359" type="qcurve" smooth="yes"/>
      <point x="235" y="381"/>
      <point x="173" y="447"/>
      <point x="157" y="486" type="qcurve"/>
      <point x="143" y="385"/>
      <point x="124" y="184"/>
    </contour>
    <contour>
      <point x="177" y="0" type="move" name="blwm"/>
    </contour>
    <contour>
      <point x="115" y="-120" type="move" name="nukt"/>
    </contour>
    <contour>
      <point x="205" y="690" type="move" name="reph"/>
    </contour>
    <contour>
      <point x="205" y="690" type="move" name="chandrabindu"/>
    </contour>
    <contour>
      <point x="107" y="0" type="move" name="haln"/>
    </contour>
  </outline>
</glyph>
<glyph name="bn_cha" format="1">
  <advance width="492"/>
  <unicode hex="099B"/>
  <outline>
    <contour>
      <point x="132" y="319" type="qcurve" smooth="yes"/>
      <point x="132" y="303"/>
      <point x="148" y="287"/>
      <point x="163" y="287" type="qcurve" smooth="yes"/>
      <point x="201" y="287"/>
      <point x="263" y="368"/>
      <point x="263" y="419" type="qcurve" smooth="yes"/>
      <point x="263" y="425"/>
      <point x="263" y="430"/>
      <point x="262" y="432" type="qcurve"/>
      <point x="219" y="442"/>
      <point x="159" y="478"/>
      <point x="140" y="504" type="qcurve"/>
      <point x="136" y="460"/>
      <point x="132" y="362"/>
    </contour>
    <contour>
      <point x="498" y="-97" type="qcurve"/>
      <point x="489" y="-110"/>
      <point x="468" y="-133"/>
      <point x="455" y="-143" type="qcurve"/>
      <point x="379" y="-59"/>
      <point x="217" y="61"/>
      <point x="124" y="102" type="qcurve"/>
      <point x="108" y="188" type="line"/>
      <point x="148" y="174"/>
      <point x="216" y="161"/>
      <point x="244" y="161" type="qcurve" smooth="yes"/>
      <point x="307" y="161"/>
      <point x="381" y="224"/>
      <point x="381" y="280" type="qcurve" smooth="yes"/>
      <point x="381" y="314"/>
      <point x="352" y="376"/>
      <point x="325" y="401" type="qcurve"/>
      <point x="317" y="332"/>
      <point x="230" y="240"/>
      <point x="172" y="240" type="qcurve" smooth="yes"/>
      <point x="128" y="240"/>
      <point x="68" y="291"/>
      <point x="68" y="331" type="qcurve" smooth="yes"/>
      <point x="68" y="380"/>
      <point x="74" y="487"/>
      <point x="81" y="546" type="qcurve"/>
      <point x="52" y="541"/>
      <point x="13" y="534"/>
      <point x="0" y="530" type="qcurve"/>
      <point x="-2" y="537"/>
      <point x="-5" y="554"/>
      <point x="-5" y="563" type="qcurve" smooth="yes"/>
      <point x="-5" y="570"/>
      <point x="-2" y="584"/>
      <point x="0" y="589" type="qcurve"/>
      <point x="40" y="602"/>
      <point x="188" y="621"/>
      <point x="254" y="621" type="qcurve" smooth="yes"/>
      <point x="321" y="621"/>
      <point x="459" y="602"/>
      <point x="492" y="589" type="qcurve"/>
      <point x="494" y="585"/>
      <point x="496" y="572"/>
      <point x="496" y="564" type="qcurve" smooth="yes"/>
      <point x="496" y="556"/>
      <point x="494" y="537"/>
      <point x="492" y="530" type="qcurve"/>
      <point x="456" y="542"/>
      <point x="316" y="558"/>
      <point x="252" y="558" type="qcurve" smooth="yes"/>
      <point x="229" y="558"/>
      <point x="175" y="555"/>
      <point x="145" y="553" type="qcurve"/>
      <point x="145" y="553" type="line"/>
      <point x="167" y="525"/>
      <point x="244" y="487"/>
      <point x="317" y="472" type="qcurve"/>
      <point x="375" y="435"/>
      <point x="443" y="323"/>
      <point x="443" y="262" type="qcurve" smooth="yes"/>
      <point x="443" y="189"/>
      <point x="344" y="102"/>
      <point x="256" y="95" type="qcurve"/>
      <point x="316" y="58"/>
      <point x="437" y="-37"/>
    </contour>
    <contour>
      <point x="297" y="11" type="move" name="blwm"/>
    </contour>
    <contour>
      <point x="114" y="-170" type="move" name="nukt"/>
    </contour>
    <contour>
      <point x="236" y="690" type="move" name="reph"/>
    </contour>
    <contour>
      <point x="236" y="690" type="move" name="chandrabindu"/>
    </contour>
    <contour>
      <point x="104" y="0" type="move" name="haln"/>
    </contour>
  </outline>
</glyph>
<glyph name="bn_nya" format="1">
  <advance width="813"/>
  <unicode hex="099E"/>
  <outline>
    <contour>
      <point x="513" y="261" type="qcurve"/>
      <point x="543" y="218"/>
      <point x="624" y="169"/>
      <point x="663" y="169" type="qcurve" smooth="yes"/>
      <point x="695" y="169"/>
      <point x="732" y="202"/>
      <point x="732" y="229" type="qcurve" smooth="yes"/>
      <point x="732" y="241"/>
      <point x="725" y="267"/>
      <point x="718" y="279" type="qcurve"/>
      <point x="702" y="256"/>
      <point x="661" y="233"/>
      <point x="639" y="233" type="qcurve" smooth="yes"/>
      <point x="605" y="233"/>
      <point x="562" y="279"/>
      <point x="562" y="315" type="qcurve" smooth="yes"/>
      <point x="562" y="349"/>
      <point x="607" y="394"/>
      <point x="642" y="394" type="qcurve" smooth="yes"/>
      <point x="660" y="394"/>
      <point x="698" y="377"/>
      <point x="712" y="363" type="qcurve"/>
      <point x="720" y="378"/>
      <point x="727" y="406"/>
      <point x="727" y="419" type="qcurve" smooth="yes"/>
      <point x="727" y="442"/>
      <point x="693" y="468"/>
      <point x="664" y="468" type="qcurve" smooth="yes"/>
      <point x="623" y="468"/>
      <point x="548" y="419"/>
      <point x="517" y="373" type="qcurve"/>
      <point x="516" y="327"/>
      <point x="514" y="280"/>
    </contour>
    <contour>
      <point x="599" y="317" type="qcurve" smooth="yes"/>
      <point x="599" y="302"/>
      <point x="618" y="283"/>
      <point x="633" y="283" type="qcurve" smooth="yes"/>
      <point x="648" y="283"/>
      <point x="676" y="305"/>
      <point x="692" y="329" type="qcurve"/>
      <point x="691" y="330" type="line"/>
      <point x="692" y="331" type="line"/>
      <point x="681" y="342"/>
      <point x="654" y="355"/>
      <point x="641" y="355" type="qcurve" smooth="yes"/>
      <point x="623" y="355"/>
      <point x="599" y="334"/>
    </contour>
    <contour>
      <point x="491" y="-10" type="qcurve"/>
      <point x="479" y="-15"/>
      <point x="447" y="-20"/>
      <point x="431" y="-20" type="qcurve"/>
      <point x="418" y="5"/>
      <point x="402" y="36"/>
      <point x="397" y="41" type="qcurve" smooth="yes"/>
      <point x="385" y="55"/>
      <point x="356" y="69"/>
      <point x="337" y="69" type="qcurve" smooth="yes"/>
      <point x="323" y="69"/>
      <point x="287" y="62"/>
      <point x="247" y="50" type="qcurve" smooth="yes"/>
      <point x="203" y="36"/>
      <point x="159" y="28"/>
      <point x="141" y="28" type="qcurve" smooth="yes"/>
      <point x="87" y="28"/>
      <point x="23" y="98"/>
      <point x="23" y="155" type="qcurve" smooth="yes"/>
      <point x="23" y="186"/>
      <point x="44" y="259"/>
      <point x="63" y="294" type="qcurve"/>
      <point x="78" y="293"/>
      <point x="103" y="285"/>
      <point x="113" y="278" type="qcurve"/>
      <point x="100" y="258"/>
      <point x="84" y="197"/>
      <point x="84" y="172" type="qcurve" smooth="yes"/>
      <point x="84" y="137"/>
      <point x="120" y="100"/>
      <point x="152" y="100" type="qcurve" smooth="yes"/>
      <point x="165" y="100"/>
      <point x="200" y="107"/>
      <point x="237" y="119" type="qcurve" smooth="yes"/>
      <point x="276" y="132"/>
      <point x="315" y="140"/>
      <point x="330" y="140" type="qcurve" smooth="yes"/>
      <point x="365" y="140"/>
      <point x="413" y="99"/>
      <point x="430" y="54" type="qcurve"/>
      <point x="442" y="141"/>
      <point x="456" y="379"/>
      <point x="456" y="506" type="qcurve" smooth="yes"/>
      <point x="456" y="542"/>
      <point x="425" y="583"/>
      <point x="398" y="583" type="qcurve" smooth="yes"/>
      <point x="347" y="583"/>
      <point x="231" y="458"/>
      <point x="231" y="399" type="qcurve" smooth="yes"/>
      <point x="231" y="372"/>
      <point x="260" y="343"/>
      <point x="286" y="343" type="qcurve" smooth="yes"/>
      <point x="307" y="343"/>
      <point x="347" y="364"/>
      <point x="364" y="385" type="qcurve"/>
      <point x="367" y="381"/>
      <point x="370" y="368"/>
      <point x="370" y="358" type="qcurve" smooth="yes"/>
      <point x="370" y="345"/>
      <point x="364" y="319"/>
      <point x="358" y="309" type="qcurve"/>
      <point x="341" y="294"/>
      <point x="297" y="278"/>
      <point x="273" y="278" type="qcurve" smooth="yes"/>
      <point x="222" y="278"/>
      <point x="158" y="340"/>
      <point x="158" y="391" type="qcurve" smooth="yes"/>
      <point x="158" y="431"/>
      <point x="197" y="515"/>
      <point x="232" y="552" type="qcurve" smooth="yes"/>
      <point x="268" y="590"/>
      <point x="352" y="634"/>
      <point x="389" y="634" type="qcurve" smooth="yes"/>
      <point x="444" y="634"/>
      <point x="518" y="549"/>
      <point x="518" y="484" type="qcurve" smooth="yes"/>
      <point x="518" y="477"/>
      <point x="518" y="464"/>
      <point x="518" y="457" type="qcurve"/>
      <point x="547" y="490"/>
      <point x="622" y="527"/>
      <point x="661" y="527" type="qcurve" smooth="yes"/>
      <point x="712" y="527"/>
      <point x="777" y="468"/>
      <point x="777" y="419" type="qcurve" smooth="yes"/>
      <point x="777" y="392"/>
      <point x="761" y="339"/>
      <point x="746" y="315" type="qcurve"/>
      <point x="764" y="292"/>
      <point x="782" y="243"/>
      <point x="782" y="217" type="qcurve" smooth="yes"/>
      <point x="782" y="168"/>
      <point x="719" y="107"/>
      <point x="669" y="107" type="qcurve" smooth="yes"/>
      <point x="626" y="107"/>
      <point x="541" y="155"/>
      <point x="510" y="195" type="qcurve"/>
      <point x="506" y="136"/>
      <point x="497" y="35"/>
    </contour>
    <contour>
      <point x="448" y="0" type="move" name="blwm"/>
    </contour>
    <contour>
      <point x="277" y="-53" type="move" name="nukt"/>
    </contour>
    <contour>
      <point x="414" y="690" type="move" name="reph"/>
    </contour>
    <contour>
      <point x="491" y="690" type="move" name="chandrabindu"/>
    </contour>
    <contour>
      <point x="373" y="0" type="move" name="haln"/>
    </contour>
  </outline>
</glyph>
<glyph name="bn_ttha" format="1">
  <advance width="451"/>
  <unicode hex="09A0"/>
  <outline>
    <contour>
      <point x="61" y="162" type="qcurve"/>
      <point x="69" y="106"/>
      <point x="135" y="46"/>
      <point x="190" y="46" type="qcurve" smooth="yes"/>
      <point x="265" y="46"/>
      <point x="357" y="169"/>
      <point x="357" y="265" type="qcurve" smooth="yes"/>
      <point x="357" y="333"/>
      <point x="306" y="475"/>
      <point x="252" y="557" type="qcurve"/>
      <point x="251" y="557" type="line"/>
      <point x="262" y="532"/>
      <point x="273" y="478"/>
      <point x="273" y="450" type="qcurve" smooth="yes"/>
      <point x="273" y="353"/>
      <point x="162" y="203"/>
    </contour>
    <contour>
      <point x="299" y="554" type="qcurve"/>
      <point x="358" y="466"/>
      <point x="416" y="308"/>
      <point x="416" y="235" type="qcurve" smooth="yes"/>
      <point x="416" y="124"/>
      <point x="298" y="-18"/>
      <point x="204" y="-18" type="qcurve" smooth="yes"/>
      <point x="118" y="-18"/>
      <point x="23" y="92"/>
      <point x="23" y="189" type="qcurve" smooth="yes"/>
      <point x="23" y="195"/>
      <point x="24" y="208"/>
      <point x="25" y="224" type="qcurve"/>
      <point x="116" y="257"/>
      <point x="230" y="391"/>
      <point x="230" y="475" type="qcurve" smooth="yes"/>
      <point x="230" y="495"/>
      <point x="222" y="538"/>
      <point x="215" y="557" type="qcurve"/>
      <point x="165" y="556"/>
      <point x="59" y="543"/>
      <point x="0" y="530" type="qcurve"/>
      <point x="-2" y="538"/>
      <point x="-5" y="556"/>
      <point x="-5" y="564" type="qcurve" smooth="yes"/>
      <point x="-5" y="571"/>
      <point x="-2" y="584"/>
      <point x="0" y="589" type="qcurve"/>
      <point x="47" y="602"/>
      <point x="147" y="618"/>
      <point x="197" y="620" type="qcurve"/>
      <point x="174" y="658"/>
      <point x="152" y="730"/>
      <point x="152" y="764" type="qcurve" smooth="yes"/>
      <point x="152" y="803"/>
      <point x="179" y="878"/>
      <point x="205" y="911" type="qcurve"/>
      <point x="222" y="903"/>
      <point x="243" y="888"/>
      <point x="251" y="879" type="qcurve"/>
      <point x="231" y="858"/>
      <point x="205" y="787"/>
      <point x="205" y="754" type="qcurve" smooth="yes"/>
      <point x="205" y="723"/>
      <point x="227" y="659"/>
      <point x="252" y="620" type="qcurve"/>
      <point x="302" y="618"/>
      <point x="403" y="602"/>
      <point x="451" y="589" type="qcurve"/>
      <point x="454" y="585"/>
      <point x="457" y="572"/>
      <point x="457" y="564" type="qcurve" smooth="yes"/>
      <point x="457" y="557"/>
      <point x="454" y="541"/>
      <point x="451" y="530" type="qcurve"/>
      <point x="415" y="538"/>
      <point x="338" y="551"/>
    </contour>
    <contour>
      <point x="202" y="-1" type="move" name="blwm"/>
    </contour>
    <contour>
      <point x="192" y="-120" type="move" name="nukt"/>
    </contour>
    <contour>
      <point x="237" y="686" type="move" name="reph"/>
    </contour>
    <contour>
      <point x="384" y="690" type="move" name="chandrabindu"/>
    </contour>
    <contour>
      <point x="80" y="0" type="move" name="haln"/>
    </contour>
  </outline>
</glyph>
<glyph name="bn_ddha" format="1">
  <advance width="476"/>
  <unicode hex="09A2"/>
  <outline>
    <contour>
      <point x="327" y="375" type="qcurve" smooth="yes"/>
      <point x="378" y="375"/>
      <point x="440" y="307"/>
      <point x="440" y="250" type="qcurve" smooth="yes"/>
      <point x="440" y="207"/>
      <point x="403" y="115"/>
      <point x="370" y="75" type="qcurve" smooth="yes"/>
      <point x="334" y="31"/>
      <point x="248" y="-20"/>
      <point x="209" y="-20" type="qcurve" smooth="yes"/>
      <point x="154" y="-20"/>
      <point x="79" y="65"/>
      <point x="79" y="130" type="qcurve" smooth="yes"/>
      <point x="79" y="239"/>
      <point x="90" y="448"/>
      <point x="101" y="549" type="qcurve"/>
      <point x="72" y="546"/>
      <point x="19" y="536"/>
      <point x="0" y="530" type="qcurve"/>
      <point x="-2" y="538"/>
      <point x="-4" y="552"/>
      <point x="-4" y="560" type="qcurve" smooth="yes"/>
      <point x="-4" y="568"/>
      <point x="-2" y="584"/>
      <point x="0" y="589" type="qcurve"/>
      <point x="35" y="603"/>
      <point x="160" y="620"/>
      <point x="231" y="620" type="qcurve" smooth="yes"/>
      <point x="297" y="620"/>
      <point x="424" y="604"/>
      <point x="476" y="589" type="qcurve"/>
      <point x="478" y="584"/>
      <point x="480" y="570"/>
      <point x="480" y="561" type="qcurve" smooth="yes"/>
      <point x="480" y="554"/>
      <point x="478" y="538"/>
      <point x="476" y="530" type="qcurve"/>
      <point x="414" y="544"/>
      <point x="293" y="557"/>
      <point x="233" y="557" type="qcurve" smooth="yes"/>
      <point x="221" y="557"/>
      <point x="195" y="556"/>
      <point x="171" y="555" type="qcurve"/>
      <point x="157" y="463"/>
      <point x="141" y="224"/>
      <point x="141" y="109" type="qcurve" smooth="yes"/>
      <point x="141" y="73"/>
      <point x="173" y="31"/>
      <point x="200" y="30" type="qcurve" smooth="yes"/>
      <point x="226" y="30"/>
      <point x="289" y="73"/>
      <point x="316" y="109" type="qcurve" smooth="yes"/>
      <point x="341" y="142"/>
      <point x="368" y="211"/>
      <point x="368" y="242" type="qcurve" smooth="yes"/>
      <point x="368" y="274"/>
      <point x="339" y="311"/>
      <point x="314" y="311" type="qcurve" smooth="yes"/>
      <point x="293" y="311"/>
      <point x="253" y="287"/>
      <point x="240" y="267" type="qcurve"/>
      <point x="235" y="273"/>
      <point x="230" y="290"/>
      <point x="230" y="300" type="qcurve" smooth="yes"/>
      <point x="230" y="311"/>
      <point x="235" y="333"/>
      <point x="240" y="342" type="qcurve"/>
      <point x="257" y="358"/>
      <point x="302" y="375"/>
    </contour>
    <contour>
      <point x="201" y="-1" type="move" name="blwm"/>
    </contour>
    <contour>
      <point x="188" y="-120" type="move" name="nukt"/>
    </contour>
    <contour>
      <point x="224" y="690" type="move" name="reph"/>
    </contour>
    <contour>
      <point x="224" y="690" type="move" name="chandrabindu"/>
    </contour>
    <contour>
      <point x="105" y="0" type="move" name="haln"/>
    </contour>
  </outline>
</glyph>
<glyph name="bn_nna" format="1">
  <advance width="457"/>
  <unicode hex="09A3"/>
  <outline>
    <contour>
      <point x="392" y="475" type="qcurve" smooth="yes"/>
      <point x="387" y="255"/>
      <point x="362" y="79"/>
      <point x="328" y="-20" type="qcurve"/>
      <point x="311" y="-20"/>
      <point x="274" y="-10"/>
      <point x="259" y="-2" type="qcurve"/>
      <point x="286" y="60"/>
      <point x="316" y="168"/>
      <point x="324" y="229" type="qcurve"/>
      <point x="323" y="228" type="line"/>
      <point x="328" y="273"/>
      <point x="332" y="329"/>
      <point x="332" y="347" type="qcurve" smooth="yes"/>
      <point x="332" y="433"/>
      <point x="245" y="544"/>
      <point x="184" y="544" type="qcurve" smooth="yes"/>
      <point x="143" y="544"/>
      <point x="90" y="481"/>
      <point x="90" y="432" type="qcurve" smooth="yes"/>
      <point x="90" y="396"/>
      <point x="125" y="352"/>
      <point x="153" y="352" type="qcurve" smooth="yes"/>
      <point x="175" y="352"/>
      <point x="201" y="383"/>
      <point x="201" y="407" type="qcurve" smooth="yes"/>
      <point x="201" y="420"/>
      <point x="190" y="452"/>
      <point x="181" y="466" type="qcurve"/>
      <point x="199" y="464"/>
      <point x="237" y="451"/>
      <point x="248" y="442" type="qcurve"/>
      <point x="253" y="432"/>
      <point x="258" y="408"/>
      <point x="258" y="395" type="qcurve" smooth="yes"/>
      <point x="258" y="351"/>
      <point x="200" y="294"/>
      <point x="157" y="294" type="qcurve" smooth="yes"/>
      <point x="104" y="294"/>
      <point x="32" y="379"/>
      <point x="32" y="445" type="qcurve" smooth="yes"/>
      <point x="32" y="519"/>
      <point x="114" y="616"/>
      <point x="178" y="616" type="qcurve" smooth="yes"/>
      <point x="234" y="616"/>
      <point x="318" y="542"/>
      <point x="341" y="472" type="qcurve"/>
      <point x="340" y="478"/>
      <point x="340" y="490"/>
      <point x="340" y="499" type="qcurve" smooth="yes"/>
      <point x="340" y="523"/>
      <point x="353" y="549"/>
      <point x="369" y="559" type="qcurve" smooth="yes"/>
      <point x="386" y="568"/>
      <point x="432" y="584"/>
      <point x="457" y="589" type="qcurve"/>
      <point x="460" y="585"/>
      <point x="463" y="569"/>
      <point x="463" y="561" type="qcurve" smooth="yes"/>
      <point x="463" y="553"/>
      <point x="459" y="535"/>
      <point x="457" y="530" type="qcurve"/>
      <point x="441" y="526"/>
      <point x="419" y="518"/>
      <point x="412" y="514" type="qcurve" smooth="yes"/>
      <point x="401" y="509"/>
      <point x="393" y="493"/>
    </contour>
    <contour>
      <point x="301" y="0" type="move" name="blwm"/>
    </contour>
    <contour>
      <point x="137" y="0" type="move" name="nukt"/>
    </contour>
    <contour>
      <point x="368" y="690" type="move" name="reph"/>
    </contour>
    <contour>
      <point x="369" y="690" type="move" name="chandrabindu"/>
    </contour>
    <contour>
      <point x="185" y="0" type="move" name="haln"/>
    </contour>
  </outline>
</glyph>
<glyph name="bn_ta" format="1">
  <advance width="575"/>
  <unicode hex="09A4"/>
  <outline>
    <contour>
      <point x="575" y="530" type="qcurve"/>
      <point x="505" y="543"/>
      <point x="360" y="557"/>
      <point x="287" y="557" type="qcurve" smooth="yes"/>
      <point x="211" y="557"/>
      <point x="73" y="544"/>
      <point x="0" y="530" type="qcurve"/>
      <point x="-3" y="535"/>
      <point x="-6" y="551"/>
      <point x="-6" y="561" type="qcurve" smooth="yes"/>
      <point x="-6" y="570"/>
      <point x="-3" y="585"/>
      <point x="0" y="589" type="qcurve"/>
      <point x="65" y="605"/>
      <point x="206" y="620"/>
      <point x="287" y="620" type="qcurve" smooth="yes"/>
      <point x="364" y="620"/>
      <point x="511" y="604"/>
      <point x="575" y="589" type="qcurve"/>
      <point x="578" y="585"/>
      <point x="581" y="570"/>
      <point x="581" y="561" type="qcurve" smooth="yes"/>
      <point x="581" y="554"/>
      <point x="578" y="537"/>
    </contour>
    <contour>
      <point x="360" y="481" type="qcurve" smooth="yes"/>
      <point x="439" y="481"/>
      <point x="553" y="317"/>
      <point x="553" y="200" type="qcurve" smooth="yes"/>
      <point x="553" y="97"/>
      <point x="457" y="-20"/>
      <point x="371" y="-20" type="qcurve" smooth="yes"/>
      <point x="257" y="-20"/>
      <point x="84" y="196"/>
      <point x="19" y="426" type="qcurve"/>
      <point x="30" y="434"/>
      <point x="55" y="447"/>
      <point x="70" y="454" type="qcurve"/>
      <point x="124" y="259"/>
      <point x="277" y="53"/>
      <point x="369" y="53" type="qcurve" smooth="yes"/>
      <point x="431" y="53"/>
      <point x="496" y="138"/>
      <point x="496" y="220" type="qcurve" smooth="yes"/>
      <point x="496" y="310"/>
      <point x="425" y="425"/>
      <point x="373" y="425" type="qcurve" smooth="yes"/>
      <point x="345" y="425"/>
      <point x="315" y="386"/>
      <point x="315" y="350" type="qcurve" smooth="yes"/>
      <point x="315" y="318"/>
      <point x="341" y="257"/>
      <point x="364" y="236" type="qcurve"/>
      <point x="355" y="230"/>
      <point x="331" y="224"/>
      <point x="319" y="224" type="qcurve" smooth="yes"/>
      <point x="309" y="224"/>
      <point x="293" y="227"/>
      <point x="289" y="229" type="qcurve"/>
      <point x="269" y="254"/>
      <point x="246" y="320"/>
      <point x="246" y="353" type="qcurve" smooth="yes"/>
      <point x="246" y="409"/>
      <point x="309" y="481"/>
    </contour>
    <contour>
      <point x="340" y="-1" type="move" name="blwm"/>
    </contour>
    <contour>
      <point x="325" y="-120" type="move" name="nukt"/>
    </contour>
    <contour>
      <point x="286" y="690" type="move" name="reph"/>
    </contour>
    <contour>
      <point x="286" y="690" type="move" name="chandrabindu"/>
    </contour>
    <contour>
      <point x="239" y="0" type="move" name="haln"/>
    </contour>
  </outline>
</glyph>
<glyph name="bn_tha" format="1">
  <advance width="525"/>
  <unicode hex="09A5"/>
  <outline>
    <contour>
      <point x="459" y="463" type="qcurve" smooth="yes"/>
      <point x="459" y="316"/>
      <point x="422" y="63"/>
      <point x="388" y="-21" type="qcurve"/>
      <point x="370" y="-21"/>
      <point x="332" y="-11"/>
      <point x="320" y="-2" type="qcurve"/>
      <point x="279" y="97"/>
      <point x="181" y="200"/>
      <point x="113" y="216" type="qcurve"/>
      <point x="99" y="230"/>
      <point x="83" y="267"/>
      <point x="82" y="286" type="qcurve"/>
      <point x="162" y="333" type="line" smooth="yes"/>
      <point x="221" y="368"/>
      <point x="273" y="437"/>
      <point x="273" y="480" type="qcurve" smooth="yes"/>
      <point x="273" y="516"/>
      <point x="223" y="560"/>
      <point x="184" y="560" type="qcurve" smooth="yes"/>
      <point x="148" y="560"/>
      <point x="106" y="517"/>
      <point x="106" y="483" type="qcurve" smooth="yes"/>
      <point x="106" y="458"/>
      <point x="125" y="421"/>
      <point x="142" y="411" type="qcurve"/>
      <point x="131" y="400"/>
      <point x="95" y="386"/>
      <point x="73" y="382" type="qcurve"/>
      <point x="54" y="401"/>
      <point x="32" y="452"/>
      <point x="32" y="481" type="qcurve" smooth="yes"/>
      <point x="32" y="539"/>
      <point x="114" y="620"/>
      <point x="177" y="620" type="qcurve" smooth="yes"/>
      <point x="244" y="620"/>
      <point x="329" y="529"/>
      <point x="329" y="460" type="qcurve" smooth="yes"/>
      <point x="329" y="402"/>
      <point x="263" y="307"/>
      <point x="195" y="267" type="qcurve"/>
      <point x="177" y="256" type="line"/>
      <point x="232" y="227"/>
      <point x="317" y="117"/>
      <point x="345" y="41" type="qcurve"/>
      <point x="374" y="110"/>
      <point x="402" y="298"/>
      <point x="402" y="420" type="qcurve" smooth="yes"/>
      <point x="402" y="429"/>
      <point x="401" y="451"/>
      <point x="400" y="470" type="qcurve" smooth="yes"/>
      <point x="399" y="483"/>
      <point x="399" y="493"/>
      <point x="399" y="496" type="qcurve"/>
      <point x="399" y="516"/>
      <point x="418" y="548"/>
      <point x="435" y="558" type="qcurve" smooth="yes"/>
      <point x="450" y="566"/>
      <point x="492" y="581"/>
      <point x="525" y="589" type="qcurve"/>
      <point x="528" y="586"/>
      <point x="531" y="571"/>
      <point x="531" y="562" type="qcurve" smooth="yes"/>
      <point x="531" y="551"/>
      <point x="528" y="534"/>
      <point x="525" y="530" type="qcurve"/>
      <point x="507" y="525"/>
      <point x="486" y="517"/>
      <point x="480" y="514" type="qcurve" smooth="yes"/>
      <point x="468" y="508"/>
      <point x="459" y="488"/>
    </contour>
    <contour>
      <point x="352" y="-1" type="move" name="blwm"/>
    </contour>
    <contour>
      <point x="151" y="0" type="move" name="nukt"/>
    </contour>
    <contour>
      <point x="427" y="690" type="move" name="reph"/>
    </contour>
    <contour>
      <point x="427" y="690" type="move" name="chandrabindu"/>
    </contour>
    <contour>
      <point x="261" y="0" type="move" name="haln"/>
    </contour>
  </outline>
</glyph>
<glyph name="bn_da" format="1">
  <advance width="479"/>
  <unicode hex="09A6"/>
  <outline>
    <contour>
      <point x="394" y="199" type="qcurve" smooth="yes"/>
      <point x="394" y="152"/>
      <point x="406" y="52"/>
      <point x="418" y="0" type="qcurve"/>
      <point x="405" y="-6"/>
      <point x="372" y="-16"/>
      <point x="356" y="-19" type="qcurve"/>
      <point x="346" y="23"/>
      <point x="335" y="118"/>
      <point x="335" y="170" type="qcurve" smooth="yes"/>
      <point x="335" y="227"/>
      <point x="348" y="337"/>
      <point x="360" y="383" type="qcurve"/>
      <point x="288" y="332"/>
      <point x="153" y="187"/>
      <point x="113" y="117" type="qcurve"/>
      <point x="93" y="121"/>
      <point x="54" y="137"/>
      <point x="45" y="146" type="qcurve"/>
      <point x="74" y="244"/>
      <point x="109" y="456"/>
      <point x="112" y="549" type="qcurve"/>
      <point x="82" y="546"/>
      <point x="25" y="536"/>
      <point x="0" y="530" type="qcurve"/>
      <point x="-2" y="536"/>
      <point x="-5" y="555"/>
      <point x="-5" y="564" type="qcurve" smooth="yes"/>
      <point x="-5" y="571"/>
      <point x="-2" y="584"/>
      <point x="0" y="589" type="qcurve"/>
      <point x="47" y="603"/>
      <point x="185" y="620"/>
      <point x="252" y="620" type="qcurve" smooth="yes"/>
      <point x="315" y="620"/>
      <point x="445" y="602"/>
      <point x="479" y="589" type="qcurve"/>
      <point x="481" y="585"/>
      <point x="483" y="573"/>
      <point x="483" y="565" type="qcurve" smooth="yes"/>
      <point x="483" y="553"/>
      <point x="481" y="535"/>
      <point x="479" y="530" type="qcurve"/>
      <point x="439" y="542"/>
      <point x="309" y="557"/>
      <point x="247" y="557" type="qcurve" smooth="yes"/>
      <point x="225" y="557"/>
      <point x="182" y="555"/>
      <point x="161" y="554" type="qcurve"/>
      <point x="161" y="547"/>
      <point x="161" y="533"/>
      <point x="161" y="526" type="qcurve" smooth="yes"/>
      <point x="161" y="462"/>
      <point x="147" y="322"/>
      <point x="135" y="260" type="qcurve"/>
      <point x="188" y="326"/>
      <point x="305" y="431"/>
      <point x="367" y="469" type="qcurve"/>
      <point x="386" y="460"/>
      <point x="415" y="435"/>
      <point x="427" y="415" type="qcurve"/>
      <point x="411" y="364"/>
      <point x="394" y="255"/>
    </contour>
    <contour>
      <point x="377" y="0" type="move" name="blwm"/>
    </contour>
    <contour>
      <point x="158" y="0" type="move" name="nukt"/>
    </contour>
    <contour>
      <point x="251" y="690" type="move" name="reph"/>
    </contour>
    <contour>
      <point x="250" y="690" type="move" name="chandrabindu"/>
    </contour>
    <contour>
      <point x="233" y="0" type="move" name="haln"/>
    </contour>
  </outline>
</glyph>
<glyph name="bn_pha" format="1">
  <advance width="655"/>
  <unicode hex="09AB"/>
  <outline>
    <contour>
      <point x="408" y="292" type="qcurve" smooth="yes"/>
      <point x="408" y="188"/>
      <point x="423" y="40"/>
      <point x="438" y="-6" type="qcurve"/>
      <point x="426" y="-12"/>
      <point x="389" y="-19"/>
      <point x="366" y="-19" type="qcurve"/>
      <point x="312" y="75"/>
      <point x="179" y="183"/>
      <point x="95" y="200" type="qcurve"/>
      <point x="76" y="214"/>
      <point x="56" y="250"/>
      <point x="54" y="271" type="qcurve"/>
      <point x="195" y="398" type="line"/>
      <point x="192" y="400"/>
      <point x="45" y="499"/>
      <point x="32" y="536" type="qcurve"/>
      <point x="18" y="534"/>
      <point x="5" y="531"/>
      <point x="0" y="530" type="qcurve"/>
      <point x="-5" y="545"/>
      <point x="-6" y="580"/>
      <point x="0" y="589" type="qcurve"/>
      <point x="65" y="605"/>
      <point x="249" y="625"/>
      <point x="341" y="625" type="qcurve" smooth="yes"/>
      <point x="433" y="625"/>
      <point x="604" y="605"/>
      <point x="655" y="589" type="qcurve"/>
      <point x="659" y="579"/>
      <point x="659" y="544"/>
      <point x="655" y="530" type="qcurve"/>
      <point x="594" y="545"/>
      <point x="425" y="562"/>
      <point x="338" y="562" type="qcurve" smooth="yes"/>
      <point x="285" y="562"/>
      <point x="172" y="555"/>
      <point x="115" y="548" type="qcurve"/>
      <point x="117" y="533"/>
      <point x="142" y="498"/>
      <point x="167" y="476" type="qcurve" smooth="yes"/>
      <point x="181" y="463"/>
      <point x="233" y="420"/>
      <point x="238" y="416" type="qcurve"/>
      <point x="278" y="382" type="line"/>
      <point x="139" y="252" type="line"/>
      <point x="205" y="225"/>
      <point x="311" y="139"/>
      <point x="349" y="80" type="qcurve"/>
      <point x="347" y="100"/>
      <point x="345" y="153"/>
      <point x="345" y="190" type="qcurve" smooth="yes"/>
      <point x="345" y="280"/>
      <point x="352" y="426"/>
      <point x="359" y="498" type="qcurve"/>
      <point x="481" y="484"/>
      <point x="624" y="375"/>
      <point x="624" y="299" type="qcurve" smooth="yes"/>
      <point x="624" y="253"/>
      <point x="572" y="171"/>
      <point x="532" y="150" type="qcurve"/>
      <point x="517" y="153"/>
      <point x="489" y="184"/>
      <point x="481" y="205" type="qcurve"/>
      <point x="528" y="221"/>
      <point x="579" y="271"/>
      <point x="579" y="302" type="qcurve" smooth="yes"/>
      <point x="579" y="343"/>
      <point x="492" y="402"/>
      <point x="411" y="416" type="qcurve"/>
      <point x="409" y="388"/>
      <point x="408" y="327"/>
    </contour>
    <contour>
      <point x="386" y="0" type="move" name="blwm"/>
    </contour>
    <contour>
      <point x="157" y="0" type="move" name="nukt"/>
    </contour>
    <contour>
      <point x="352" y="690" type="move" name="reph"/>
    </contour>
    <contour>
      <point x="352" y="690" type="move" name="chandrabindu"/>
    </contour>
    <contour>
      <point x="291" y="0" type="move" name="haln"/>
    </contour>
  </outline>
</glyph>
<glyph name="bn_bha" format="1">
  <advance width="603"/>
  <unicode hex="09AD"/>
  <outline>
    <contour>
      <point x="603" y="530" type="qcurve"/>
      <point x="530" y="544"/>
      <point x="379" y="557"/>
      <point x="300" y="557" type="qcurve" smooth="yes"/>
      <point x="220" y="557"/>
      <point x="71" y="544"/>
      <point x="0" y="530" type="qcurve"/>
      <point x="-2" y="535"/>
      <point x="-5" y="552"/>
      <point x="-5" y="561" type="qcurve" smooth="yes"/>
      <point x="-5" y="569"/>
      <point x="-2" y="584"/>
      <point x="0" y="589" type="qcurve"/>
      <point x="64" y="604"/>
      <point x="216" y="620"/>
      <point x="300" y="620" type="qcurve" smooth="yes"/>
      <point x="384" y="620"/>
      <point x="536" y="604"/>
      <point x="603" y="589" type="qcurve"/>
      <point x="606" y="585"/>
      <point x="609" y="570"/>
      <point x="609" y="561" type="qcurve" smooth="yes"/>
      <point x="609" y="552"/>
      <point x="606" y="536"/>
    </contour>
    <contour>
      <point x="579" y="206" type="qcurve" smooth="yes"/>
      <point x="579" y="102"/>
      <point x="470" y="-20"/>
      <point x="376" y="-20" type="qcurve" smooth="yes"/>
      <point x="255" y="-20"/>
      <point x="79" y="196"/>
      <point x="17" y="427" type="qcurve"/>
      <point x="33" y="437"/>
      <point x="58" y="451"/>
      <point x="69" y="455" type="qcurve"/>
      <point x="126" y="248"/>
      <point x="276" y="52"/>
      <point x="377" y="52" type="qcurve" smooth="yes"/>
      <point x="448" y="52"/>
      <point x="524" y="142"/>
      <point x="524" y="226" type="qcurve" smooth="yes"/>
      <point x="524" y="254"/>
      <point x="516" y="311"/>
      <point x="508" y="337" type="qcurve"/>
      <point x="459" y="292"/>
      <point x="383" y="254"/>
      <point x="345" y="254" type="qcurve" smooth="yes"/>
      <point x="290" y="254"/>
      <point x="212" y="323"/>
      <point x="212" y="374" type="qcurve" smooth="yes"/>
      <point x="212" y="415"/>
      <point x="267" y="481"/>
      <point x="312" y="497" type="qcurve"/>
      <point x="327" y="491"/>
      <point x="354" y="463"/>
      <point x="360" y="446" type="qcurve"/>
      <point x="315" y="435"/>
      <point x="265" y="392"/>
      <point x="265" y="364" type="qcurve" smooth="yes"/>
      <point x="265" y="340"/>
      <point x="298" y="313"/>
      <point x="326" y="313" type="qcurve" smooth="yes"/>
      <point x="360" y="313"/>
      <point x="437" y="357"/>
      <point x="500" y="414" type="qcurve"/>
      <point x="511" y="407"/>
      <point x="535" y="388"/>
      <point x="543" y="379" type="qcurve"/>
      <point x="560" y="341"/>
      <point x="579" y="250"/>
    </contour>
    <contour>
      <point x="373" y="-3" type="move" name="blwm"/>
    </contour>
    <contour>
      <point x="370" y="-120" type="move" name="nukt"/>
    </contour>
    <contour>
      <point x="302" y="690" type="move" name="reph"/>
    </contour>
    <contour>
      <point x="302" y="690" type="move" name="chandrabindu"/>
    </contour>
    <contour>
      <point x="250" y="0" type="move" name="haln"/>
    </contour>
  </outline>
</glyph>
<glyph name="bn_ma" format="1">
  <advance width="502"/>
  <unicode hex="09AE"/>
  <outline>
    <contour>
      <point x="189" y="399" type="qcurve" smooth="yes"/>
      <point x="243" y="356"/>
      <point x="278" y="294"/>
      <point x="278" y="257" type="qcurve" smooth="yes"/>
      <point x="278" y="248"/>
      <point x="276" y="235"/>
      <point x="274" y="229" type="qcurve"/>
      <point x="296" y="205"/>
      <point x="335" y="146"/>
      <point x="352" y="111" type="qcurve"/>
      <point x="351" y="139"/>
      <point x="350" y="185"/>
      <point x="350" y="209" type="qcurve" smooth="yes"/>
      <point x="350" y="303"/>
      <point x="360" y="469"/>
      <point x="370" y="551" type="qcurve"/>
      <point x="344" y="554"/>
      <point x="289" y="557"/>
      <point x="261" y="557" type="qcurve" smooth="yes"/>
      <point x="235" y="557"/>
      <point x="175" y="554"/>
      <point x="138" y="550" type="qcurve"/>
      <point x="130" y="538"/>
      <point x="121" y="511"/>
      <point x="121" y="497" type="qcurve" smooth="yes"/>
      <point x="121" y="474"/>
      <point x="147" y="434"/>
    </contour>
    <contour>
      <point x="446" y="1" type="qcurve"/>
      <point x="433" y="-9"/>
      <point x="398" y="-19"/>
      <point x="377" y="-19" type="qcurve"/>
      <point x="356" y="37"/>
      <point x="294" y="133"/>
      <point x="253" y="174" type="qcurve"/>
      <point x="238" y="141"/>
      <point x="187" y="105"/>
      <point x="153" y="105" type="qcurve" smooth="yes"/>
      <point x="107" y="105"/>
      <point x="45" y="169"/>
      <point x="45" y="218" type="qcurve" smooth="yes"/>
      <point x="45" y="263"/>
      <point x="100" y="319"/>
      <point x="142" y="319" type="qcurve" smooth="yes"/>
      <point x="162" y="319"/>
      <point x="198" y="305"/>
      <point x="213" y="292" type="qcurve"/>
      <point x="212" y="316"/>
      <point x="181" y="357"/>
      <point x="130" y="387" type="qcurve" smooth="yes"/>
      <point x="78" y="419"/>
      <point x="46" y="462"/>
      <point x="46" y="488" type="qcurve" smooth="yes"/>
      <point x="46" y="500"/>
      <point x="53" y="527"/>
      <point x="59" y="541" type="qcurve"/>
      <point x="55" y="540"/>
      <point x="11" y="533"/>
      <point x="0" y="530" type="qcurve"/>
      <point x="-5" y="546"/>
      <point x="-5" y="581"/>
      <point x="0" y="589" type="qcurve"/>
      <point x="64" y="604"/>
      <point x="198" y="620"/>
      <point x="263" y="620" type="qcurve" smooth="yes"/>
      <point x="328" y="620"/>
      <point x="451" y="604"/>
      <point x="502" y="589" type="qcurve"/>
      <point x="506" y="579"/>
      <point x="506" y="544"/>
      <point x="502" y="530" type="qcurve"/>
      <point x="489" y="533"/>
      <point x="456" y="539"/>
      <point x="431" y="543" type="qcurve"/>
      <point x="421" y="484"/>
      <point x="413" y="372"/>
      <point x="413" y="294" type="qcurve" smooth="yes"/>
      <point x="413" y="194"/>
      <point x="430" y="47"/>
    </contour>
    <contour>
      <point x="92" y="219" type="qcurve" smooth="yes"/>
      <point x="92" y="197"/>
      <point x="121" y="170"/>
      <point x="145" y="170" type="qcurve" smooth="yes"/>
      <point x="169" y="170"/>
      <point x="201" y="201"/>
      <point x="208" y="231" type="qcurve"/>
      <point x="195" y="250"/>
      <point x="158" y="271"/>
      <point x="140" y="271" type="qcurve" smooth="yes"/>
      <point x="119" y="271"/>
      <point x="92" y="241"/>
    </contour>
    <contour>
      <point x="398" y="1" type="move" name="blwm"/>
    </contour>
    <contour>
      <point x="220" y="0" type="move" name="nukt"/>
    </contour>
    <contour>
      <point x="398" y="690" type="move" name="reph"/>
    </contour>
    <contour>
      <point x="398" y="690" type="move" name="chandrabindu"/>
    </contour>
    <contour>
      <point x="304" y="0" type="move" name="haln"/>
    </contour>
  </outline>
</glyph>
<glyph name="bn_la" format="1">
  <advance width="561"/>
  <unicode hex="09B2"/>
  <outline>
    <contour>
      <point x="493" y="-9" type="qcurve"/>
      <point x="480" y="-14"/>
      <point x="441" y="-19"/>
      <point x="420" y="-19" type="qcurve"/>
      <point x="415" y="14"/>
      <point x="411" y="112"/>
      <point x="411" y="180" type="qcurve" smooth="yes"/>
      <point x="411" y="205"/>
      <point x="412" y="259"/>
      <point x="413" y="305" type="qcurve"/>
      <point x="412" y="335"/>
      <point x="376" y="373"/>
      <point x="349" y="373" type="qcurve" smooth="yes"/>
      <point x="328" y="373"/>
      <point x="304" y="352"/>
      <point x="304" y="333" type="qcurve" smooth="yes"/>
      <point x="304" y="328"/>
      <point x="307" y="319"/>
      <point x="310" y="313" type="qcurve"/>
      <point x="324" y="287" type="line"/>
      <point x="313" y="279"/>
      <point x="284" y="266"/>
      <point x="268" y="262" type="qcurve"/>
      <point x="247" y="299" type="line"/>
      <point x="224" y="332"/>
      <point x="169" y="367"/>
      <point x="140" y="367" type="qcurve" smooth="yes"/>
      <point x="108" y="367"/>
      <point x="71" y="328"/>
      <point x="71" y="293" type="qcurve" smooth="yes"/>
      <point x="71" y="251"/>
      <point x="131" y="200"/>
      <point x="179" y="200" type="qcurve" smooth="yes"/>
      <point x="185" y="200"/>
      <point x="202" y="202"/>
      <point x="219" y="204" type="qcurve"/>
      <point x="219" y="185"/>
      <point x="207" y="142"/>
      <point x="197" y="127" type="qcurve"/>
      <point x="123" y="126"/>
      <point x="22" y="228"/>
      <point x="22" y="304" type="qcurve" smooth="yes"/>
      <point x="22" y="364"/>
      <point x="88" y="441"/>
      <point x="140" y="441" type="qcurve" smooth="yes"/>
      <point x="173" y="441"/>
      <point x="234" y="407"/>
      <point x="260" y="374" type="qcurve"/>
      <point x="267" y="405"/>
      <point x="308" y="441"/>
      <point x="335" y="441" type="qcurve" smooth="yes"/>
      <point x="360" y="441"/>
      <point x="404" y="410"/>
      <point x="417" y="383" type="qcurve"/>
      <point x="419" y="420"/>
      <point x="426" y="499"/>
      <point x="433" y="550" type="qcurve"/>
      <point x="394" y="555"/>
      <point x="316" y="559"/>
      <point x="276" y="559" type="qcurve" smooth="yes"/>
      <point x="209" y="559"/>
      <point x="76" y="545"/>
      <point x="0" y="530" type="qcurve"/>
      <point x="-2" y="538"/>
      <point x="-5" y="557"/>
      <point x="-5" y="564" type="qcurve" smooth="yes"/>
      <point x="-5" y="571"/>
      <point x="-2" y="584"/>
      <point x="0" y="589" type="qcurve"/>
      <point x="69" y="606"/>
      <point x="207" y="623"/>
      <point x="277" y="623" type="qcurve" smooth="yes"/>
      <point x="350" y="623"/>
      <point x="499" y="605"/>
      <point x="561" y="589" type="qcurve"/>
      <point x="563" y="585"/>
      <point x="565" y="573"/>
      <point x="565" y="564" type="qcurve" smooth="yes"/>
      <point x="565" y="553"/>
      <point x="563" y="535"/>
      <point x="561" y="530" type="qcurve"/>
      <point x="546" y="533"/>
      <point x="512" y="539"/>
      <point x="487" y="543" type="qcurve"/>
      <point x="481" y="476"/>
      <point x="475" y="344"/>
      <point x="475" y="273" type="qcurve" smooth="yes"/>
      <point x="475" y="175"/>
      <point x="484" y="34"/>
    </contour>
    <contour>
      <point x="445" y="-1" type="move" name="blwm"/>
    </contour>
    <contour>
      <point x="277" y="0" type="move" name="nukt"/>
    </contour>
    <contour>
      <point x="465" y="690" type="move" name="reph"/>
    </contour>
    <contour>
      <point x="465" y="690" type="move" name="chandrabindu"/>
    </contour>
    <contour>
      <point x="359" y="0" type="move" name="haln"/>
    </contour>
  </outline>
</glyph>
